<svg width="93" height="93" viewBox="0 0 93 93" fill="none" xmlns="http://www.w3.org/2000/svg">
<circle opacity="0.2" cx="46.6703" cy="46.8068" r="43.4779" stroke="white" stroke-width="5"/>
<path d="M24.6484 53.8442V53.8442C24.6484 56.8093 27.0521 59.213 30.0173 59.213H64.8868C67.8728 59.213 70.3126 56.8293 70.3821 53.8442V53.8442M24.6484 53.8442V37C24.6484 31.4771 29.1256 27 34.6484 27H60.7717C66.3857 27 70.8997 31.6203 70.769 37.2328L70.3821 53.8442M24.6484 53.8442H70.3821" stroke="#F7770A" stroke-width="2"/>
<path d="M40.0558 35.3151C40.4475 34.9257 40.4494 34.2925 40.06 33.9008C39.6706 33.5092 39.0375 33.5073 38.6458 33.8966L40.0558 35.3151ZM38.6533 49.4902C39.0491 49.8754 39.6822 49.8668 40.0674 49.4711C40.4526 49.0753 40.444 48.4422 40.0483 48.057L38.6533 49.4902ZM48.8267 34.9876C49.0375 34.4771 48.7946 33.8924 48.2841 33.6816C47.7737 33.4707 47.1889 33.7137 46.9781 34.2241L48.8267 34.9876ZM41.127 48.3919C40.9162 48.9023 41.1591 49.487 41.6696 49.6979C42.18 49.9087 42.7648 49.6658 42.9756 49.1553L41.127 48.3919ZM51.7881 33.9279C51.4137 33.5219 50.7811 33.4963 50.3751 33.8707C49.9691 34.2451 49.9435 34.8777 50.3179 35.2838L51.7881 33.9279ZM50.325 48.088C49.9464 48.49 49.9654 49.1229 50.3674 49.5016C50.7695 49.8802 51.4023 49.8612 51.781 49.4592L50.325 48.088ZM54.4954 38.3388L53.7603 39.0167L54.4954 38.3388ZM35.792 45.3097L35.0945 46.0263L35.792 45.3097ZM38.6458 33.8966L35.0495 37.4714L36.4595 38.8899L40.0558 35.3151L38.6458 33.8966ZM35.0945 46.0263L38.6533 49.4902L40.0483 48.057L36.4895 44.5931L35.0945 46.0263ZM46.9781 34.2241L41.127 48.3919L42.9756 49.1553L48.8267 34.9876L46.9781 34.2241ZM50.3179 35.2838L53.7603 39.0167L55.2306 37.6609L51.7881 33.9279L50.3179 35.2838ZM53.7316 44.4708L50.325 48.088L51.781 49.4592L55.1876 45.842L53.7316 44.4708ZM53.7603 39.0167C55.1838 40.5604 55.1713 42.9421 53.7316 44.4708L55.1876 45.842C57.3471 43.549 57.3659 39.9764 55.2306 37.6609L53.7603 39.0167ZM35.0495 37.4714C32.6719 39.8349 32.6922 43.6881 35.0945 46.0263L36.4895 44.5931C34.8879 43.0343 34.8744 40.4655 36.4595 38.8899L35.0495 37.4714Z" fill="#F7770A"/>
<path d="M44.7527 59.9586C44.7527 62.4939 44.7527 66.8188 39.8018 66.8188H56.4549C54.6046 66.9182 51.354 65.3274 51.354 59.9586H44.7527Z" stroke="#F7770A" stroke-width="2"/>
</svg>
