<svg width="93" height="92" viewBox="0 0 93 92" fill="none" xmlns="http://www.w3.org/2000/svg">
<circle opacity="0.2" cx="46.6263" cy="45.9779" r="43.4779" stroke="white" stroke-width="5"/>
<path d="M39.6621 56.7302H49.1879" stroke="#F7770A" stroke-width="2"/>
<path d="M54.7438 70.7547C54.3028 68.7261 54.7968 64.4567 59.2421 64.6684C64.7989 64.1391 67.9741 65.1976 67.7095 61.2286C67.4978 58.0533 67.6213 56.3775 67.7095 55.9365V54.3488L67.754 54.2895C68.694 53.0362 68.8158 51.3495 68.0656 49.9741L67.7095 49.3214C67.4449 48.9686 67.5507 48.1571 70.091 47.7337C72.6312 47.3104 71.5022 45.4405 70.6202 44.5585L66.1219 39.7956C65.6809 32.3866 61.359 19.1048 47.5995 18.098C43.9833 17.8334 37.28 17.8513 32.2524 21.5378C28.8126 24.0601 23.7852 27.6238 22.7267 37.6787C21.8741 45.7776 28.1952 54.7898 31.7232 58.3179L31.7233 64.1392C31.7232 68.0103 37.8092 73.7179 44.1597 68.6374V60.4347H49.1872H39.6614" stroke="#F7770A" stroke-width="2"/>
<path d="M40.1904 25.2422L41.2488 29.2113" stroke="#F7770A" stroke-linecap="round"/>
<path d="M48.5508 25.2422L47.4538 29.2008" stroke="#F7770A" stroke-linecap="round" stroke-linejoin="round"/>
<path d="M44.4238 22.0669V25.5068V28.9466" stroke="#FABA00" stroke-linecap="round"/>
<path d="M33.5527 51.5302L35.9741 48.2119" stroke="#F7770A" stroke-linecap="round"/>
<path d="M29.6982 43.6407L33.7545 42.9924" stroke="#F7770A" stroke-linecap="round" stroke-linejoin="round"/>
<path d="M28.5264 48.714L31.6548 47.2836L34.7831 45.8533" stroke="#FABA00" stroke-linecap="round"/>
<path d="M55.2666 28.9521L52.3643 31.8591" stroke="#F7770A" stroke-linecap="round"/>
<path d="M59.4609 36.1841L55.4863 37.2213" stroke="#F7770A" stroke-linecap="round" stroke-linejoin="round"/>
<path d="M60.1377 31.0212L57.1621 32.7471L54.1865 34.473" stroke="#FABA00" stroke-linecap="round"/>
<path d="M59.5244 43.9485L55.5002 43.1242" stroke="#F7770A" stroke-linecap="round"/>
<path d="M55.793 51.4297L52.7401 48.6812" stroke="#F7770A" stroke-linecap="round" stroke-linejoin="round"/>
<path d="M60.4766 49.1541L57.3983 47.6188L54.32 46.0836" stroke="#FABA00" stroke-linecap="round"/>
<path d="M48.3932 53.2904H40.4551H40.1904L40.1904 50.3797C33.8399 43.6059 35.6923 37.5025 37.0152 35.2973C38.3383 32.3865 44.831 29.1132 50.2455 33.445C56.4677 38.423 51.5685 46.8517 48.3932 50.3797V53.2904Z" stroke="#FABA00" stroke-width="2"/>
</svg>
