<svg width="93" height="93" viewBox="0 0 93 93" fill="none" xmlns="http://www.w3.org/2000/svg">
<circle opacity="0.2" cx="46.6703" cy="46.5912" r="43.4779" stroke="white" stroke-width="5"/>
<path d="M70.6484 29.6743C70.6484 27.5854 70.0529 25.9324 68.8789 24.762C64.1657 20.0664 51.7739 25.0594 40.663 36.1328C40.2593 36.5353 39.8903 36.9643 39.5355 37.4039C39.419 37.3558 39.285 37.3127 39.1308 37.2769C35.9309 36.529 25.6608 38.2737 22.6711 50.2181C22.5942 50.5242 22.7172 50.845 22.9787 51.0215C23.1054 51.1079 23.2519 51.1504 23.3984 51.1504C23.5529 51.1504 23.7074 51.1028 23.8385 51.0076C27.8965 48.064 31.152 46.88 33.9938 47.3159C33.7977 47.6714 33.5986 48.0182 33.393 48.3497C33.2091 48.6463 33.2538 49.0301 33.5007 49.2761L34.6775 50.4491L32.4746 52.6439C32.3332 52.7845 32.2541 52.9756 32.2541 53.1749C32.2541 53.3741 32.3332 53.5652 32.4746 53.7059L39.8464 61.0535C39.9929 61.1993 40.184 61.2725 40.3759 61.2725C40.5678 61.2725 40.759 61.1993 40.9055 61.0535L43.1113 58.8548L44.2915 60.0311C44.4365 60.1753 44.6277 60.2501 44.821 60.2501C44.9565 60.2501 45.0928 60.2134 45.2143 60.1387C45.5243 59.9475 45.8461 59.7618 46.1771 59.5791C46.6653 62.4351 45.4828 65.7112 42.4919 69.8074C42.3059 70.0623 42.2993 70.4065 42.475 70.668C42.6164 70.8789 42.8515 70.9998 43.0976 70.9998C43.1577 70.9998 43.2184 70.9925 43.2785 70.9779C55.2339 68.0049 57.0005 57.7708 56.2636 54.5789C56.2186 54.3841 56.1596 54.2307 56.0957 54.0947C56.5723 53.7181 57.0367 53.3246 57.4707 52.8921C65.4761 44.9138 70.6484 35.7996 70.6484 29.6743ZM34.6916 45.9114C31.7655 45.2947 28.5502 46.1524 24.7321 48.5833C26.61 43.3721 30.0305 40.9104 32.7141 39.751C34.726 38.8823 36.5571 38.6392 37.7289 38.6392C38.0432 38.6392 38.309 38.6567 38.5192 38.6839L34.6916 45.9114ZM40.3759 59.4634L34.0668 53.1749L35.7397 51.5086L41.1903 56.9403L42.0488 57.7957L40.3759 59.4634ZM53.7983 60.9297C52.6381 63.617 50.167 67.041 44.9206 68.9183C47.3552 65.1162 48.2158 61.9141 47.5984 58.9961L54.8537 55.1787C54.9841 56.1646 54.8889 58.4029 53.7983 60.9297ZM48.6655 56.6487C47.3464 57.2837 46.0903 57.8873 44.9374 58.5566L34.9758 48.6287C35.5137 47.7075 36.0111 46.7071 36.5148 45.6737L39.5604 39.9234C40.1978 38.9367 40.904 38.0104 41.7221 37.1948C51.8867 27.064 63.8362 21.8571 67.8198 25.824C68.7017 26.7029 69.1484 27.9985 69.1484 29.6743C69.1484 35.333 64.0295 44.2371 56.4116 51.8301C54.2898 53.9446 51.4304 55.3193 48.6655 56.6487Z" fill="#FABA00"/>
<path d="M54.6919 32.6395C53.8372 33.4899 53.3662 34.6215 53.3662 35.8255C53.3662 37.0304 53.8372 38.162 54.6919 39.0124C55.573 39.889 56.7303 40.3278 57.8874 40.3278C59.0447 40.3278 60.2019 39.889 61.0823 39.0124C61.9371 38.162 62.4073 37.0304 62.4073 35.8255C62.4073 34.6215 61.9371 33.4899 61.0823 32.6395C59.3216 30.8861 56.4541 30.8861 54.6919 32.6395ZM60.0247 37.9489C58.8455 39.1222 56.9287 39.1222 55.7496 37.9489C55.1805 37.3819 54.8662 36.6283 54.8662 35.8255C54.8662 35.0236 55.1805 34.2699 55.7496 33.703C56.3391 33.1163 57.1133 32.8234 57.8874 32.8234C58.6617 32.8234 59.4351 33.1163 60.0247 33.703C60.5938 34.2699 60.9073 35.0236 60.9073 35.8255C60.9073 36.6283 60.5938 37.3819 60.0247 37.9489Z" fill="#F2994A"/>
<path d="M34.9971 58.3602C34.7049 58.0665 34.2303 58.0665 33.9366 58.3588L26.4402 65.8302C26.1472 66.1224 26.1458 66.597 26.4387 66.8907C26.5852 67.038 26.7771 67.1112 26.9697 67.1112C27.1609 67.1112 27.3528 67.038 27.4993 66.8922L34.9956 59.4208C35.2886 59.1285 35.2901 58.6539 34.9971 58.3602Z" fill="#F2994A"/>
<path d="M26.9431 61.9795C27.1343 61.9795 27.3261 61.9063 27.4727 61.7605L32.4092 56.8402C32.7021 56.5479 32.7029 56.0733 32.4106 55.7796C32.1184 55.4859 31.6438 55.4851 31.3501 55.7781L26.4135 60.6985C26.1206 60.9907 26.1198 61.4654 26.4121 61.7591C26.5586 61.9063 26.7505 61.9795 26.9431 61.9795Z" fill="#F2994A"/>
<path d="M36.5258 60.9375L31.5893 65.858C31.2964 66.1502 31.2956 66.6248 31.5879 66.9185C31.7344 67.0657 31.9262 67.139 32.1189 67.139C32.31 67.139 32.5019 67.0657 32.6484 66.92L37.585 61.9996C37.8779 61.7073 37.8787 61.2327 37.5864 60.939C37.2942 60.6453 36.8195 60.6446 36.5258 60.9375Z" fill="#F2994A"/>
</svg>
