<svg width="190" height="508" viewBox="0 0 190 508" fill="none" xmlns="http://www.w3.org/2000/svg">
<path d="M188.17 128.158L178.17 122.384V133.931L188.17 128.158ZM188.17 250.967L178.17 245.193V256.74L188.17 250.967ZM81.6953 129.158H179.17V127.158H81.6953V129.158ZM125.253 251.967H179.17V249.967H125.253V251.967Z" fill="white"/>
<path d="M73.2258 6.55811V5.55811H72.8116L72.5187 5.851L73.2258 6.55811ZM188.776 6.55811L178.776 0.784603V12.3316L188.776 6.55811ZM17.0655 64.1326L73.9329 7.26521L72.5187 5.851L15.6513 62.7184L17.0655 64.1326ZM73.2258 7.55811H179.776V5.55811H73.2258V7.55811Z" fill="white"/>
<path d="M189.381 375.591L179.381 369.818V381.365L189.381 375.591ZM83.5107 376.591H180.381V374.591H83.5107V376.591Z" fill="white"/>
<path d="M81.6959 501.426L81.0428 502.183L81.3243 502.426H81.6959V501.426ZM189.381 501.426L179.381 495.652V507.199L189.381 501.426ZM15.1008 445.315L81.0428 502.183L82.349 500.668L16.407 443.801L15.1008 445.315ZM81.6959 502.426H180.381V500.426H81.6959V502.426Z" fill="white"/>
<path d="M16.9639 67.0553C99.6434 127.956 215.395 288.475 16.9639 443.348" stroke="white" stroke-width="2"/>
<circle cx="15.1487" cy="70.0802" r="15.1243" fill="white"/>
<circle cx="82.9056" cy="131.787" r="15.1243" fill="white"/>
<circle cx="124.044" cy="250.362" r="15.1243" fill="white"/>
<circle cx="82.9056" cy="374.986" r="15.1243" fill="white"/>
<circle cx="15.1487" cy="443.953" r="15.1243" fill="white"/>
<path d="M11.8271 445.057L12.5244 438.914H19.2979V440.915H14.4917L14.1929 443.513C14.7629 443.208 15.3688 443.056 16.0107 443.056C17.1618 443.056 18.0638 443.413 18.7168 444.127C19.3698 444.841 19.6963 445.84 19.6963 447.124C19.6963 447.904 19.5303 448.604 19.1982 449.224C18.8717 449.838 18.4014 450.317 17.7871 450.66C17.1729 450.997 16.4479 451.166 15.6123 451.166C14.8818 451.166 14.2039 451.019 13.5786 450.726C12.9533 450.427 12.458 450.009 12.0928 449.473C11.7331 448.936 11.5422 448.324 11.52 447.638H13.894C13.9438 448.142 14.1182 448.535 14.417 448.817C14.7214 449.094 15.117 449.232 15.604 449.232C16.1463 449.232 16.5641 449.038 16.8574 448.651C17.1507 448.258 17.2974 447.705 17.2974 446.991C17.2974 446.305 17.1286 445.779 16.791 445.414C16.4535 445.048 15.9748 444.866 15.355 444.866C14.785 444.866 14.3229 445.015 13.9688 445.314L13.7363 445.53L11.8271 445.057Z" fill="black"/>
<path d="M85.5674 376.451H86.937V378.385H85.5674V381H83.1685V378.385H78.2129L78.105 376.875L83.1436 368.914H85.5674V376.451ZM80.4956 376.451H83.1685V372.185L83.0107 372.458L80.4956 376.451Z" fill="black"/>
<path d="M16.2974 76H13.8984V66.7529L11.0347 67.6411V65.6904L16.04 63.8975H16.2974V76Z" fill="black"/>
<path d="M86.7544 138H78.4702V136.356L82.3799 132.189C82.9167 131.603 83.3123 131.091 83.5669 130.654C83.827 130.217 83.957 129.802 83.957 129.409C83.957 128.872 83.8215 128.451 83.5503 128.147C83.2791 127.837 82.8918 127.682 82.3882 127.682C81.8459 127.682 81.417 127.87 81.1016 128.247C80.7917 128.617 80.6367 129.107 80.6367 129.716H78.2295C78.2295 128.98 78.4038 128.307 78.7524 127.699C79.1066 127.09 79.6047 126.614 80.2466 126.271C80.8885 125.922 81.6162 125.748 82.4297 125.748C83.6748 125.748 84.6405 126.047 85.3267 126.645C86.0184 127.242 86.3643 128.086 86.3643 129.176C86.3643 129.774 86.2093 130.383 85.8994 131.002C85.5895 131.622 85.0583 132.344 84.3057 133.169L81.5581 136.066H86.7544V138Z" fill="black"/>
<path d="M121.911 248.895H123.189C123.798 248.895 124.249 248.742 124.542 248.438C124.835 248.134 124.982 247.73 124.982 247.226C124.982 246.739 124.835 246.36 124.542 246.089C124.254 245.818 123.856 245.682 123.347 245.682C122.887 245.682 122.503 245.809 122.193 246.064C121.883 246.313 121.728 246.639 121.728 247.043H119.329C119.329 246.413 119.498 245.848 119.835 245.35C120.179 244.847 120.654 244.454 121.263 244.171C121.877 243.889 122.553 243.748 123.289 243.748C124.567 243.748 125.569 244.055 126.293 244.669C127.018 245.278 127.381 246.119 127.381 247.193C127.381 247.746 127.212 248.255 126.875 248.72C126.537 249.185 126.094 249.542 125.546 249.791C126.227 250.035 126.733 250.4 127.065 250.887C127.403 251.374 127.572 251.949 127.572 252.613C127.572 253.687 127.179 254.547 126.393 255.195C125.613 255.842 124.578 256.166 123.289 256.166C122.082 256.166 121.094 255.848 120.325 255.211C119.562 254.575 119.18 253.734 119.18 252.688H121.579C121.579 253.142 121.747 253.513 122.085 253.8C122.428 254.088 122.849 254.232 123.347 254.232C123.917 254.232 124.362 254.083 124.683 253.784C125.01 253.479 125.173 253.078 125.173 252.58C125.173 251.374 124.509 250.771 123.181 250.771H121.911V248.895Z" fill="black"/>
</svg>
