<svg width="100" height="100" viewBox="0 0 100 100" fill="none" xmlns="http://www.w3.org/2000/svg">
<path d="M27.3958 15H72.6042C79.4583 15 85 20.5214 85 27.3504V70.6496C85 77.4786 79.4583 83 72.6042 83H27.3958C20.5417 83 15 77.4786 15 70.6496V27.3504C15 20.5214 20.5417 15 27.3958 15Z" fill="white"/>
<path d="M51.8077 32.8715L43.0577 47.2561L52.3911 62.5125C52.4494 62.6287 52.4786 62.745 52.4494 62.8612C52.4202 62.9774 52.3036 62.8903 52.1286 62.9193H45.4494C44.9827 62.9193 44.6619 62.8903 44.4577 62.5997C43.8452 61.3792 43.2036 60.1877 42.5911 58.9672C41.9786 57.7757 41.3077 56.5552 40.6077 55.3056C39.9077 54.0561 39.2077 52.8065 38.5077 51.5279H38.4494C37.8369 52.7774 37.1661 54.027 36.4952 55.2766C35.8244 56.5262 35.1536 57.7757 34.5119 58.9962C33.8411 60.2168 33.1702 61.4663 32.4994 62.6578C32.3827 62.9484 32.1494 62.9774 31.8286 62.9774H25.4119C25.2952 62.9774 25.2077 63.0356 25.2077 62.8903C25.1786 62.774 25.2077 62.6578 25.2661 62.5706L34.3369 47.7501L25.4994 32.8424C25.4119 32.7262 25.3827 32.6099 25.4411 32.5518C25.4994 32.4646 25.6161 32.4356 25.7327 32.4356H32.3536C32.4994 32.4356 32.6452 32.4646 32.7619 32.4937C32.8786 32.5518 32.9661 32.639 33.0536 32.7552C33.6077 34.0048 34.2494 35.2544 34.9202 36.5039C35.6202 37.7535 36.2911 38.974 37.0202 40.1945C37.7202 41.415 38.3619 42.6356 38.9744 43.8851H39.0327C39.6452 42.6065 40.2869 41.3569 40.9286 40.1364C41.5702 38.9159 42.2411 37.6954 42.9119 36.4749C43.5827 35.2544 44.2244 34.0048 44.8661 32.8133C44.8952 32.6971 44.9536 32.5809 45.0411 32.5227C45.1577 32.4646 45.2744 32.4356 45.4202 32.4646H51.5744C51.7202 32.4356 51.8661 32.5227 51.8952 32.668C51.9244 32.6971 51.8661 32.8133 51.8077 32.8715ZM65.2827 63.5296C63.1244 63.5586 60.9661 63.1227 59.0119 62.2219C57.1744 61.3791 55.6577 59.9843 54.6077 58.2697C53.5286 56.4971 53.0036 54.2885 53.0036 51.6441C52.9744 49.4937 53.5286 47.3723 54.6077 45.5125C55.7161 43.6236 57.3202 42.0544 59.2452 41.0082C61.2869 39.8749 63.7369 39.3227 66.6244 39.3227C66.7702 39.3227 66.9744 39.3227 67.2369 39.3518C67.4994 39.3809 67.7911 39.3809 68.1411 39.4099V30.227C68.1411 30.0236 68.2286 29.9073 68.4327 29.9073H74.3536C74.4994 29.8783 74.6161 29.9945 74.6452 30.1108V57.8338C74.6452 58.3569 74.6744 58.9381 74.7036 59.5774C74.7619 60.1877 74.7911 60.7689 74.8202 61.2629C74.8202 61.4663 74.7327 61.6407 74.5286 61.7279C73.0119 62.3672 71.4077 62.8321 69.7744 63.1227C68.2869 63.3843 66.7994 63.5296 65.2827 63.5296ZM68.1411 57.7176V44.9313C67.8786 44.8732 67.6161 44.815 67.3536 44.786C67.0327 44.7569 66.7119 44.7279 66.3911 44.7279C65.2536 44.7279 64.1161 44.9603 63.0952 45.4834C62.1036 45.9774 61.2577 46.7039 60.6161 47.6338C59.9744 48.5638 59.6536 49.8133 59.6536 51.3244C59.6244 52.3415 59.7994 53.3586 60.1494 54.3176C60.4411 55.1022 60.8786 55.7997 61.4619 56.3809C62.0161 56.9039 62.6869 57.3108 63.4452 57.5432C64.2327 57.8048 65.0494 57.921 65.8661 57.921C66.3036 57.921 66.7119 57.892 67.0911 57.8629C67.4702 57.892 67.7911 57.8338 68.1411 57.7176Z" fill="black"/>
</svg>
