<svg width="100" height="100" viewBox="0 0 100 100" fill="none" xmlns="http://www.w3.org/2000/svg">
<path d="M45.7125 45.3094C45.4208 44.4085 45.1583 43.5368 44.8667 42.6359C44.575 41.735 44.3125 40.8923 44.0792 40.0496C43.8458 39.2359 43.6417 38.4803 43.4375 37.7829H43.3792C43.1167 39.0325 42.7958 40.282 42.3875 41.5316C41.95 42.9265 41.5125 44.3795 41.0458 45.8325C40.6375 47.3145 40.2 48.6803 39.7625 49.9009H47.1708C46.9958 49.2877 46.7625 48.5641 46.5 47.8056C46.2375 47.0239 45.975 46.1812 45.7125 45.3094ZM72.6042 15H27.3958C20.5417 15 15 20.5214 15 27.3504V70.6496C15 77.4786 20.5417 83 27.3958 83H72.6042C79.4583 83 85 77.4786 85 70.6496V27.3504C85 20.5214 79.4583 15 72.6042 15ZM57.875 63.0359H51.7763C51.575 63.065 51.3708 62.9197 51.3125 62.7162L48.9208 55.8H38.0708L35.8542 62.6291C35.7958 62.8906 35.5625 63.065 35.3 63.0388H29.8167C29.4958 63.0388 29.4083 62.8615 29.4958 62.5157L38.8875 35.5744C38.975 35.2838 39.0625 34.9641 39.1792 34.6154C39.2958 34.0051 39.3542 33.3658 39.3542 32.7265C39.325 32.5812 39.4417 32.4359 39.5875 32.4068H47.1417C47.375 32.4068 47.4917 32.494 47.5208 32.6393L58.1667 62.5709C58.2542 62.8877 58.1667 63.0359 57.875 63.0359ZM67.7917 62.6C67.7917 62.9197 67.6779 63.065 67.4154 63.065H61.6958C61.4042 63.065 61.2583 62.8877 61.2583 62.6V40.2239C61.2583 39.9333 61.3779 39.8171 61.6404 39.8171H67.4154C67.6779 39.8171 67.7917 39.9624 67.7917 40.2239V62.6ZM67.1821 36.359C66.5083 37.0564 65.5167 37.4342 64.525 37.3761C63.5625 37.4051 62.6292 37.0273 61.9263 36.359C61.2554 35.6325 60.9054 34.6735 60.9346 33.6855C60.9054 32.6974 61.2846 31.7675 61.9817 31.0991C62.6875 30.4308 63.6208 30.082 64.5833 30.082C65.7238 30.082 66.5929 30.4308 67.2375 31.0991C67.8792 31.7966 68.2292 32.7265 68.2 33.6855C68.2292 34.6735 67.8792 35.6325 67.1821 36.359Z" fill="white"/>
</svg>
