<svg width="100" height="100" viewBox="0 0 100 100" fill="none" xmlns="http://www.w3.org/2000/svg">
<path d="M38.0435 16.499L41.1434 21.9599C35.3849 24.7988 31.4024 30.2385 31.4024 36.5961H68.5797C68.5797 30.264 64.5972 24.803 58.843 21.9599L61.9429 16.499C61.9429 16.499 62.1646 16.2801 61.7211 16.0613C61.4994 15.8424 61.2777 16.2801 61.2777 16.2801L57.9561 21.7432C55.3808 20.6005 52.5907 20.0054 49.7672 19.9966C46.9436 20.0054 44.1536 20.6005 41.5782 21.7432L38.2631 16.2823C38.2631 16.2823 38.0435 16.0655 37.8196 16.0655C37.843 16.2315 37.9209 16.3853 38.0413 16.5033L38.0435 16.499ZM41.1649 27.1999C42.026 27.1999 42.9345 28.0498 42.9345 28.9465C42.9345 29.8432 42.0734 30.6932 41.1649 30.6932C40.9316 30.6966 40.6999 30.6538 40.4837 30.5672C40.2674 30.4807 40.0709 30.3521 39.9059 30.1893C39.7409 30.0264 39.6107 29.8325 39.523 29.619C39.4353 29.4055 39.3919 29.1769 39.3954 28.9465C39.3919 28.7162 39.4353 28.4875 39.523 28.2741C39.6107 28.0606 39.7409 27.8667 39.9059 27.7038C40.0709 27.5409 40.2674 27.4124 40.4837 27.3258C40.6999 27.2393 40.9316 27.1965 41.1649 27.1999ZM58.8688 27.1999C59.7299 27.1999 60.6383 28.0498 60.6383 28.9465C60.6383 29.8432 59.7773 30.6932 58.8688 30.6932C58.6355 30.6966 58.4038 30.6538 58.1875 30.5672C57.9713 30.4807 57.7748 30.3521 57.6098 30.1893C57.4448 30.0264 57.3146 29.8325 57.2269 29.619C57.1392 29.4055 57.0958 29.1769 57.0993 28.9465C57.0958 28.7162 57.1392 28.4875 57.2269 28.2741C57.3146 28.0606 57.4448 27.8667 57.6098 27.7038C57.7748 27.5409 57.9713 27.4124 58.1875 27.3258C58.4038 27.2393 58.6355 27.1965 58.8688 27.1999ZM31.1807 38.7805V66.7439C31.1807 68.0549 32.9502 70.0204 34.2806 70.0204H38.7065V79.6313C38.7065 82.0324 40.4761 84 42.689 84C44.902 84 46.6716 82.0345 46.6716 79.6313V70.0162H53.0866V79.627C53.0866 82.0281 54.8562 83.9958 57.0691 83.9958C59.2821 83.9958 61.0517 82.0302 61.0517 79.627V70.0162H65.4776C66.8058 70.0162 68.5775 68.2695 68.5775 66.7396V38.7805H31.1807Z" fill="white"/>
<path d="M24.9825 38.1255C27.1955 38.1255 28.965 40.091 28.965 42.4942V59.0959C28.965 61.497 27.1955 63.4647 24.9825 63.4647C22.7695 63.4647 21 61.4991 21 59.0959V42.4942C21 40.0931 22.7695 38.1255 24.9825 38.1255Z" fill="white"/>
<path d="M74.9991 38.1255C77.2121 38.1255 78.9816 40.091 78.9816 42.4942V59.0959C78.9816 61.497 77.2121 63.4647 74.9991 63.4647C72.7861 63.4647 71.0166 61.4991 71.0166 59.0959V42.4942C71.0166 40.0931 72.7861 38.1255 74.9991 38.1255Z" fill="white"/>
</svg>
