<svg width="100" height="100" viewBox="0 0 100 100" fill="none" xmlns="http://www.w3.org/2000/svg">
<path d="M31.8261 49.5916C31.8261 50.5884 31.9338 51.3966 32.1224 51.9893C32.3379 52.582 32.6073 53.2285 32.9845 53.9289C33.1192 54.1445 33.173 54.36 33.173 54.5486C33.173 54.818 33.0114 55.0874 32.6612 55.3568L30.964 56.4882C30.7215 56.6499 30.4791 56.7307 30.2636 56.7307C29.9942 56.7307 29.7248 56.596 29.4554 56.3535C29.0782 55.9494 28.7549 55.5184 28.4855 55.0874C28.2161 54.6294 27.9467 54.1175 27.6504 53.4979C25.5491 55.9764 22.909 57.2156 19.7301 57.2156C17.4672 57.2156 15.6622 56.569 14.3422 55.2759C13.0221 53.9828 12.3486 52.2587 12.3486 50.1035C12.3486 47.8136 13.1568 45.9548 14.8001 44.5539C16.4435 43.1531 18.6256 42.4526 21.4004 42.4526C22.3163 42.4526 23.2592 42.5334 24.256 42.6681C25.2528 42.8028 26.2765 43.0184 27.3541 43.2608V41.2942C27.3541 39.2468 26.923 37.819 26.0879 36.9839C25.2258 36.1487 23.7711 35.7446 21.6967 35.7446C20.7538 35.7446 19.784 35.8524 18.7872 36.0948C17.7905 36.3373 16.8206 36.6336 15.8777 37.0108C15.4467 37.1994 15.1234 37.3071 14.9348 37.361C14.7463 37.4149 14.6116 37.4418 14.5038 37.4418C14.1267 37.4418 13.9381 37.1724 13.9381 36.6067V35.2866C13.9381 34.8556 13.992 34.5323 14.1267 34.3438C14.2614 34.1552 14.5038 33.9666 14.881 33.778C15.8239 33.2931 16.9553 32.889 18.2754 32.5657C19.5954 32.2155 20.9963 32.0539 22.478 32.0539C25.6838 32.0539 28.0276 32.7813 29.5362 34.236C31.0179 35.6907 31.7722 37.8998 31.7722 40.8632V49.5916H31.8261ZM20.8885 53.6865C21.7775 53.6865 22.6935 53.5248 23.6633 53.2016C24.6332 52.8783 25.4952 52.2856 26.2226 51.4774C26.6536 50.9656 26.9769 50.3998 27.1385 49.7533C27.3002 49.1067 27.4079 48.3255 27.4079 47.4095V46.2781C26.6267 46.0895 25.7916 45.9278 24.9295 45.8201C24.0674 45.7123 23.2323 45.6584 22.3972 45.6584C20.5922 45.6584 19.2721 46.0087 18.3831 46.736C17.4941 47.4634 17.0631 48.4871 17.0631 49.8341C17.0631 51.1003 17.3864 52.0432 18.0599 52.6897C18.7064 53.3632 19.6493 53.6865 20.8885 53.6865ZM42.5211 56.596C42.0362 56.596 41.7129 56.5152 41.4974 56.3266C41.2819 56.1649 41.0933 55.7878 40.9317 55.2759L34.6009 34.4515C34.4392 33.9127 34.3584 33.5625 34.3584 33.3739C34.3584 32.9429 34.5739 32.7004 35.0049 32.7004H37.645C38.1569 32.7004 38.5071 32.7813 38.6957 32.9698C38.9112 33.1315 39.0729 33.5086 39.2345 34.0205L43.7604 51.8546L47.963 34.0205C48.0977 33.4817 48.2593 33.1315 48.4748 32.9698C48.6903 32.8082 49.0675 32.7004 49.5524 32.7004H51.7076C52.2194 32.7004 52.5697 32.7813 52.7852 32.9698C53.0007 33.1315 53.1893 33.5086 53.297 34.0205L57.5535 52.0701L62.2141 34.0205C62.3757 33.4817 62.5643 33.1315 62.7529 32.9698C62.9684 32.8082 63.3186 32.7004 63.8035 32.7004H66.3089C66.74 32.7004 66.9824 32.916 66.9824 33.3739C66.9824 33.5086 66.9555 33.6433 66.9285 33.805C66.9016 33.9666 66.8477 34.1821 66.74 34.4785L60.2475 55.3029C60.0858 55.8417 59.8973 56.1919 59.6817 56.3535C59.4662 56.5152 59.116 56.6229 58.658 56.6229H56.3412C55.8294 56.6229 55.4791 56.5421 55.2636 56.3535C55.0481 56.1649 54.8595 55.8147 54.7518 55.2759L50.5761 37.8998L46.4274 55.249C46.2927 55.7878 46.1311 56.138 45.9155 56.3266C45.7 56.5152 45.3229 56.596 44.838 56.596H42.5211ZM77.1387 57.3234C75.7378 57.3234 74.337 57.1617 72.99 56.8384C71.643 56.5152 70.5923 56.1649 69.8919 55.7608C69.4609 55.5184 69.1645 55.249 69.0568 55.0065C68.949 54.7641 68.8951 54.4947 68.8951 54.2522V52.8783C68.8951 52.3126 69.1107 52.0432 69.5147 52.0432C69.6764 52.0432 69.838 52.0701 69.9997 52.124C70.1613 52.1779 70.4038 52.2856 70.6732 52.3934C71.5891 52.7975 72.5859 53.1208 73.6365 53.3363C74.7141 53.5518 75.7648 53.6595 76.8424 53.6595C78.5396 53.6595 79.8596 53.3632 80.7756 52.7705C81.6915 52.1779 82.1764 51.3158 82.1764 50.2113C82.1764 49.4569 81.934 48.8373 81.4491 48.3255C80.9641 47.8136 80.0482 47.3556 78.7281 46.9246L74.8219 45.7123C72.8553 45.0927 71.4005 44.1768 70.5115 42.9645C69.6225 41.7791 69.1645 40.4591 69.1645 39.0582C69.1645 37.9267 69.407 36.93 69.8919 36.0679C70.3768 35.2058 71.0234 34.4515 71.8316 33.8588C72.6398 33.2392 73.5557 32.7813 74.6333 32.458C75.7109 32.1347 76.8424 32 78.0277 32C78.6204 32 79.24 32.0269 79.8327 32.1078C80.4523 32.1886 81.018 32.2963 81.5837 32.4041C82.1225 32.5388 82.6344 32.6735 83.1193 32.8351C83.6042 32.9968 83.9814 33.1584 84.2508 33.32C84.6279 33.5356 84.8973 33.7511 85.059 33.9935C85.2206 34.2091 85.3014 34.5054 85.3014 34.8826V36.1487C85.3014 36.7145 85.0859 37.0108 84.6818 37.0108C84.4663 37.0108 84.1161 36.903 83.6581 36.6875C82.1225 35.9871 80.3984 35.6369 78.4857 35.6369C76.9501 35.6369 75.7378 35.8793 74.9027 36.3912C74.0676 36.903 73.6365 37.6843 73.6365 38.7888C73.6365 39.5431 73.9059 40.1897 74.4447 40.7015C74.9835 41.2134 75.9803 41.7252 77.4081 42.1832L81.2335 43.3955C83.1732 44.0151 84.5741 44.8772 85.4092 45.9817C86.2443 47.0863 86.6484 48.3524 86.6484 49.7533C86.6484 50.9117 86.406 51.9623 85.948 52.8783C85.4631 53.7942 84.8165 54.6024 83.9814 55.249C83.1463 55.9225 82.1495 56.4074 80.9911 56.7576C79.7788 57.1348 78.5126 57.3234 77.1387 57.3234Z" fill="white"/>
<path fill-rule="evenodd" clip-rule="evenodd" d="M82.2308 70.4159C73.3677 76.9623 60.4905 80.4375 49.4182 80.4375C33.9009 80.4375 19.9192 74.6993 9.35884 65.1626C8.52371 64.4083 9.27802 63.3846 10.2748 63.9773C21.6972 70.6045 35.7867 74.6185 50.3611 74.6185C60.1941 74.6185 70.997 72.5711 80.9377 68.3685C82.4194 67.695 83.6856 69.3383 82.2308 70.4159Z" fill="white"/>
<path fill-rule="evenodd" clip-rule="evenodd" d="M85.9211 66.2129C84.7897 64.7581 78.4319 65.5125 75.5493 65.8627C74.6873 65.9704 74.5526 65.2161 75.3338 64.6504C80.3985 61.0943 88.7229 62.118 89.6927 63.3034C90.6625 64.5157 89.4233 72.8401 84.6819 76.8271C83.9545 77.4468 83.2541 77.1235 83.5774 76.3153C84.655 73.6483 87.0526 67.6407 85.9211 66.2129Z" fill="white"/>
</svg>
