<svg width="100" height="100" viewBox="0 0 100 100" fill="none" xmlns="http://www.w3.org/2000/svg">
<path d="M91.7537 52.8667C91.2609 49.4162 90.0598 46.1439 88.1825 43.1419C86.5454 40.5219 84.4448 38.1917 81.9374 36.2112L81.9442 36.205L55.6109 16.0814C55.5919 16.0648 55.5721 16.0491 55.5515 16.0345C54.676 15.3672 53.4906 15 52.215 15C50.9378 15 49.7061 15.368 48.7485 16.0366C47.719 16.7522 47.1305 17.7016 47.0894 18.7122C47.0518 19.6551 47.5038 20.5623 48.3657 21.2695C50.0605 22.6001 51.7515 23.9595 53.4448 25.3206C55.0881 26.6422 56.7814 28.0031 58.4665 29.328L26.2124 29.3063C22.5238 29.3063 20.0122 31.0297 19.4956 33.9149C19.2686 35.1787 19.6692 36.5683 20.5647 37.6325C21.5149 38.7607 22.8944 39.3831 24.4489 39.3831L26.9078 39.3847C30.3046 39.3847 33.7164 39.3764 37.1235 39.3682L40.3727 39.3607L11.0994 60.9087L10.9832 60.9932C9.34805 62.2402 8.27759 63.9884 8.04663 65.7893C7.87156 67.1537 8.19145 68.4005 8.97211 69.3962C9.90252 70.5833 11.3552 71.2362 13.0628 71.2362C14.7403 71.2362 16.452 70.6037 17.8848 69.4521L33.6928 56.5803C33.6253 57.2089 33.5433 58.131 33.5526 58.8003C33.5704 59.86 33.9123 61.9862 34.4536 63.7123C35.5721 67.2598 37.4561 70.5056 40.053 73.356C42.7551 76.3216 46.0461 78.673 49.8338 80.3434C53.8382 82.1055 58.1428 83 62.6287 83H62.6703C67.1704 82.9892 71.4888 82.0805 75.5061 80.2982C79.3001 78.6081 82.5896 76.2472 85.2815 73.2821C87.8751 70.4171 89.7565 67.1659 90.8728 63.6214C91.4251 61.8667 91.7788 60.0563 91.9275 58.2236C92.0654 56.4523 92.0061 54.6499 91.7537 52.8667ZM62.9566 69.8697C53.0705 69.8697 45.0535 62.7343 45.0535 53.9317C45.0535 45.1302 53.0706 37.9948 62.9566 37.9948C72.843 37.9948 80.8591 45.1302 80.8591 53.9317C80.8594 62.7343 72.843 69.8697 62.9566 69.8697ZM73.281 52.5312C73.4268 55.1584 72.3722 57.5978 70.5201 59.4036C68.6361 61.2433 65.9478 62.3988 62.9415 62.3988C59.9366 62.3988 57.2478 61.2433 55.3631 59.4036C53.5118 57.5978 52.4593 55.1587 52.6043 52.5334C52.7463 49.9814 53.9974 47.7288 55.8819 46.1338C57.735 44.5655 60.2233 43.6087 62.9413 43.6087C65.6598 43.6087 68.1474 44.5658 70.0006 46.1338C71.8861 47.7288 73.1375 49.9798 73.281 52.5312Z" fill="white"/>
</svg>
