<svg width="100" height="100" viewBox="0 0 100 100" fill="none" xmlns="http://www.w3.org/2000/svg">
<path d="M27.3958 15H72.6042C79.4583 15 85 20.5214 85 27.3504V70.6496C85 77.4786 79.4583 83 72.6042 83H27.3958C20.5417 83 15 77.4786 15 70.6496V27.3504C15 20.5214 20.5417 15 27.3958 15Z" fill="white"/>
<path d="M40.1323 75.9996C45.7254 75.9996 50.2647 72.0423 50.2647 67.1663V58.333H40.1323C34.5393 58.333 30 62.2903 30 67.1663C30 72.0423 34.5393 75.9996 40.1323 75.9996Z" fill="black"/>
<path d="M30 49.4998C30 44.6238 34.5393 40.6665 40.1323 40.6665H50.2647V58.3331H40.1323C34.5393 58.3331 30 54.3758 30 49.4998Z" fill="black"/>
<path d="M30 31.8333C30 26.9573 34.5393 23 40.1323 23H50.2647V40.6666H40.1323C34.5393 40.6666 30 36.7093 30 31.8333Z" fill="black"/>
<path d="M50.2646 23H60.397C65.9901 23 70.5293 26.9573 70.5293 31.8333C70.5293 36.7093 65.9901 40.6666 60.397 40.6666H50.2646V23Z" fill="black"/>
<path d="M70.5293 49.4998C70.5293 54.3758 65.9901 58.3331 60.397 58.3331C54.8039 58.3331 50.2646 54.3758 50.2646 49.4998C50.2646 44.6238 54.8039 40.6665 60.397 40.6665C65.9901 40.6665 70.5293 44.6238 70.5293 49.4998Z" fill="black"/>
</svg>
