<svg width="100" height="100" viewBox="0 0 100 100" fill="none" xmlns="http://www.w3.org/2000/svg">
<g filter="url(#filter0_d_1185_733)">
<path d="M72.5236 76.8583L59.0964 83.5H58.8774L58.8673 16.5H59.0965L72.5231 23.1359L72.5845 23.2223V76.773L72.5236 76.8583Z" fill="white" stroke="black"/>
<path d="M40.1227 83.5H39.892L26.4981 76.869L26.3656 76.6436L26.226 23.4944L26.4785 23.1351L39.8919 16.5H40.133L40.1227 83.5Z" fill="white" stroke="black"/>
<path d="M40.2979 16.5H58.7V83.5H40.2979V16.5Z" fill="white" stroke="black"/>
<path d="M73.0498 48.2746L77.378 48.6738V51.4517L73.2566 51.8028L73.0647 51.7155L72.9564 51.6663L72.8375 51.6711L59.1913 52.2222H40.1429L39.818 52.2094L26.1614 51.6711L25.6417 51.6506V52.1707V62.5095V62.908L26.0302 62.9969L39.2983 66.0331V66.1384H39.7983H59.2014H59.7014V66.0338L73.0087 63.0103L73.2431 62.957L73.3479 62.7407L73.4413 62.5478L77.378 60.4488V61.5905V62.0389L77.8238 62.0875L78.9525 62.2107L73.0211 66.3994L72.9277 66.3588L72.7514 66.4129L59.1265 70.589H39.8732L26.2882 66.4251L25.6417 66.227V66.9032V75.9058L19.5 68.7875V62.2706L21.1759 62.0875L21.6216 62.0388V61.5905V59.8385V59.5381L21.3565 59.3971L19.5 58.4096V52.0449L21.129 52.0208L21.6216 52.0135V51.5209V48.5022V48.0095L21.1289 48.0023L19.5 47.9785V41.5868L21.3556 40.6046L21.6216 40.4637V40.1627V38.4307V37.9818L21.1753 37.9336L19.5 37.7528V31.2052L25.6417 24.0879V33.0916V33.7678L26.2882 33.5697L39.8732 29.4058H59.1265L72.7112 33.5697L72.8612 33.6157L72.9775 33.5783L78.9611 37.8106L77.8242 37.9336L77.378 37.9819V38.4307V39.3L73.0904 37.0456L73.0328 37.0153L72.9694 37.0008L59.3131 33.8707L59.258 33.858H59.2014H39.7983H39.7417L39.6866 33.8707L26.6417 36.8606V36.6817L26.0421 36.998L26.03 37.0008L25.7937 37.055L25.6899 37.274L25.6756 37.3042L25.0325 38.6612L25.6417 38.3398V47.8119V48.332L26.1615 48.3115L39.8081 47.7716H59.1915L72.8379 48.3115L72.9647 48.3165L73.0498 48.2746Z" fill="white" stroke="black"/>
<path d="M72.8584 66.9035V77.251L80.0004 68.9736V61.7939L72.8996 66.8912L72.8584 66.9035Z" fill="white"/>
<path d="M72.8584 66.9035V77.251L80.0004 68.9736V61.7939L72.8996 66.8912L72.8584 66.9035Z" stroke="black"/>
<path d="M72.8584 62.5322L72.8996 62.5228L80.0004 58.745V51.521L72.8584 52.1708V62.5322Z" fill="white"/>
<path d="M72.8584 62.5322L72.8996 62.5228L80.0004 58.745V51.521L72.8584 52.1708V62.5322Z" stroke="black"/>
<path d="M72.8996 37.4982L72.8584 37.4888V47.8125L80.0004 48.4727V41.2522L72.8996 37.4982Z" fill="white"/>
<path d="M72.8996 37.4982L72.8584 37.4888V47.8125L80.0004 48.4727V41.2522L72.8996 37.4982Z" stroke="black"/>
<path d="M72.8996 33.1322L80.0004 38.2012V31.0212L72.8584 22.7432V33.0916L72.8996 33.1058V33.1322Z" fill="white"/>
<path d="M72.8996 33.1322L80.0004 38.2012V31.0212L72.8584 22.7432V33.0916L72.8996 33.1058V33.1322Z" stroke="black"/>
</g>
<defs>
<filter id="filter0_d_1185_733" x="15" y="16" width="69" height="76" filterUnits="userSpaceOnUse" color-interpolation-filters="sRGB">
<feFlood flood-opacity="0" result="BackgroundImageFix"/>
<feColorMatrix in="SourceAlpha" type="matrix" values="0 0 0 0 0 0 0 0 0 0 0 0 0 0 0 0 0 0 127 0" result="hardAlpha"/>
<feOffset dy="4"/>
<feGaussianBlur stdDeviation="2"/>
<feComposite in2="hardAlpha" operator="out"/>
<feColorMatrix type="matrix" values="0 0 0 0 0 0 0 0 0 0 0 0 0 0 0 0 0 0 0.25 0"/>
<feBlend mode="normal" in2="BackgroundImageFix" result="effect1_dropShadow_1185_733"/>
<feBlend mode="normal" in="SourceGraphic" in2="effect1_dropShadow_1185_733" result="shape"/>
</filter>
</defs>
</svg>
