<svg width="100" height="100" viewBox="0 0 100 100" fill="none" xmlns="http://www.w3.org/2000/svg">
<path d="M24.6177 75.204L19 14H80.7244L75.1024 75.1955L49.8228 82L24.6177 75.204Z" fill="white"/>
<path d="M49.8366 26.5098H30.4854L32.5701 49.2097H49.8628V41.704H39.6381L38.9316 34.0176H49.8628V26.5098H49.8366ZM49.8628 61.1738L49.83 61.1823L41.2241 58.9255L40.6772 52.9392H32.9157L33.9986 64.7248L49.8278 68.975L49.8628 68.9643V61.1738Z" fill="black"/>
<path d="M49.8364 49.2097H59.3523L58.4773 58.9425L49.8583 61.2015V69.0111L65.7007 64.7461L67.8226 41.6997H49.8627L49.8364 49.2097ZM69.0083 28.5243L69.192 26.5098H49.832V34.0155H68.4964L68.6495 32.3282L69.0083 28.5243Z" fill="black"/>
</svg>
