<svg width="100" height="100" viewBox="0 0 100 100" fill="none" xmlns="http://www.w3.org/2000/svg">
<path d="M40.4565 68.5711C40.4565 68.5711 37.6416 70.1606 42.4132 70.6154C48.1575 71.2954 51.2172 71.1828 57.5748 70.048C58.8526 70.7746 60.2039 71.3831 61.6095 71.8649C47.3061 77.543 29.2037 71.5249 40.4542 68.5711H40.4565ZM38.6257 61.1909C38.6257 61.1909 35.5682 63.3478 40.3375 63.8047C46.5738 64.372 51.4644 64.4847 59.9046 62.8973C60.7254 63.6703 61.7304 64.2533 62.8385 64.5994C45.5966 69.368 26.2767 65.0542 38.6257 61.193V61.1909ZM72.3749 74.1323C72.3749 74.1323 74.4529 75.7218 70.052 76.9713C61.859 79.2451 35.6918 79.9251 28.3547 76.9713C25.7869 75.9513 30.6776 74.4744 32.2452 74.247C33.8358 73.907 34.694 73.907 34.694 73.907C31.879 72.0901 15.9851 77.6535 26.6245 79.2409C55.8493 83.6694 79.9385 77.3113 72.3565 74.1323H72.3749ZM41.7793 53.4685C41.7793 53.4685 28.4508 56.4223 37.01 57.4423C40.6785 57.8971 47.892 57.7823 54.618 57.3297C60.1197 56.875 65.6259 55.9697 65.6259 55.9697C65.6259 55.9697 63.6692 56.7645 62.3236 57.5592C48.7525 60.853 22.7043 59.3761 30.1649 55.9697C36.5225 53.1307 41.7816 53.4728 41.7816 53.4728L41.7793 53.4685ZM65.6259 65.8447C79.3206 59.2571 72.963 52.9033 68.5598 53.6959C67.4613 53.9233 66.9693 54.1507 66.9693 54.1507C66.9693 54.1507 67.3355 53.4707 68.1914 53.2433C76.8741 50.4043 83.7215 61.7583 65.3765 66.1847C65.3765 66.1847 65.4978 66.0721 65.6214 65.8447H65.6259ZM43.1295 83.7842C56.3344 84.5789 76.5125 83.3294 77 77.5366C77 77.5366 76.0228 79.8104 66.118 81.5104C54.8675 83.4399 40.928 83.2104 32.735 81.9651C32.735 81.9651 34.4468 83.3252 43.1295 83.782V83.7842Z" fill="white"/>
<path d="M57.3325 16C57.3325 16 64.9145 23.1528 50.119 33.9395C38.2575 42.6818 47.43 47.6777 50.119 53.3558C43.1481 47.5651 38.1362 42.4544 41.5599 37.688C46.5718 30.6457 60.39 27.2605 57.3325 16ZM53.442 48.5873C56.9892 52.3337 52.4648 55.7401 52.4648 55.7401C52.4648 55.7401 61.5137 51.4263 57.3554 46.0882C53.5656 40.9797 50.6271 38.4806 66.5256 29.9657C66.5256 29.9657 41.4592 35.7564 53.442 48.5873Z" fill="white"/>
</svg>
