<svg width="100" height="100" viewBox="0 0 100 100" fill="none" xmlns="http://www.w3.org/2000/svg">
<path d="M33.2235 31.6761C29.0525 36.1015 26.4736 42.2114 26.4736 48.9692C26.4736 55.727 29.0567 61.8391 33.2235 66.2601C37.3903 70.6811 43.1429 73.4132 49.4989 73.4132C55.855 73.4132 61.6034 70.6833 65.7744 66.2601C69.9454 61.8369 72.5243 55.7248 72.5243 48.9692C72.5243 42.2136 69.9412 36.0993 65.7744 31.6761C61.6076 27.2529 55.855 24.523 49.4989 24.523C43.1429 24.523 37.3945 27.2529 33.2235 31.6761ZM32.1691 67.3318C27.7376 62.6319 25 56.1355 25 48.9714C25 41.8073 27.7397 35.3108 32.1691 30.6109C36.5984 25.911 42.73 22.9944 49.4989 22.9966C56.2679 22.9988 62.3995 25.911 66.8288 30.6109C71.2581 35.3108 74 41.8073 74 48.9714C74 56.1355 71.2603 62.6319 66.8288 67.3318C62.3974 72.0318 56.2679 74.9462 49.4989 74.9462C42.73 74.9462 36.5984 72.0318 32.1691 67.3318Z" fill="white"/>
<path fill-rule="evenodd" clip-rule="evenodd" d="M39.7674 34.5526C39.7674 34.5526 36.3268 32.3915 35.9669 34.4582C35.6069 36.5248 34.7897 38.027 36.511 40.1859L35.3338 39.8126L34.2476 36.9026L33.8877 34.0848L35.969 31.8315L38.3234 32.0204L39.6784 33.147L39.7695 34.5526H39.7674ZM41.3998 28.636C41.3998 28.636 42.939 20.3738 50.7242 18.7529C57.1332 17.4396 60.4997 19.0341 61.7679 20.5363C61.7679 20.5363 56.064 13.4952 50.6311 15.6541C45.1982 17.813 41.2177 21.8035 41.3024 24.3138L41.3934 28.6338L41.3998 28.636ZM62.3968 21.496C62.3968 21.496 59.7713 21.4016 59.6803 23.846C59.6897 24.1066 59.7509 24.3623 59.8603 24.5971C59.8603 24.5971 61.9437 22.1549 63.2098 23.4704L62.3968 21.496ZM50.9021 24.8497C50.9021 24.8497 50.4511 21.1029 47.3705 23.2816C45.3802 24.6872 45.5602 26.6638 45.9223 27.0152C46.2843 27.3666 46.1869 28.1462 46.4622 27.6301C46.7374 27.114 46.6464 25.4207 47.6436 24.9507C48.6408 24.4807 50.269 23.9558 50.9042 24.8299" fill="#E5E5E5"/>
<path fill-rule="evenodd" clip-rule="evenodd" d="M46.4414 83.8492L44.5676 75.9603L43.636 70.1403L43.4814 65.8203L51.9632 65.3525H57.2416L56.761 75.2356L57.5761 82.8411L57.4851 84.2467L50.6039 84.8111L46.4393 83.8711" fill="white"/>
<path fill-rule="evenodd" clip-rule="evenodd" d="M56.0604 65.2566C56.0604 65.2566 55.6073 75.0232 56.9666 81.9479C56.9666 81.9479 54.2502 83.7312 50.2676 84.2012L57.8686 83.9201L58.7748 83.3557L57.6886 67.9557L57.4176 64.668" fill="#DCD9D8"/>
<path fill-rule="evenodd" clip-rule="evenodd" d="M61.4932 71.2649C61.4932 71.2649 63.8476 70.1383 64.2096 70.2327L63.2145 65.0672L64.3917 64.5972L65.2069 70.0438L70.7287 70.3249C70.7287 70.3249 71.8149 68.166 71.5438 65.9325L72.539 68.9369L72.63 70.628L71.1818 72.8813L69.5515 73.2547L66.835 73.1603L65.9288 71.9392L62.7614 72.4091L61.7663 72.7825" fill="white"/>
<path d="M57.9338 64.597L55.9436 59.3392L53.8623 56.2425C53.8623 56.2425 54.3154 54.9248 54.9485 54.9248H57.0297L59.02 55.6759L58.84 59.1503L57.9338 64.597Z" fill="white"/>
<path fill-rule="evenodd" clip-rule="evenodd" d="M58.3219 62.8187C58.3219 62.8187 55.7875 57.7454 55.7875 56.9987C55.7875 56.9987 56.2406 55.872 56.8737 56.1531C57.5067 56.4343 58.8639 57.1854 58.8639 57.1854V55.402L55.7854 54.7432L53.7041 55.0243L57.2336 63.6642L57.9577 63.7587" fill="#DCD9D8"/>
<path d="M47.2499 50.4214L44.7431 50.1359L42.3887 49.3848V50.2303L43.5384 51.5481L47.1377 53.2392" fill="white"/>
<path fill-rule="evenodd" clip-rule="evenodd" d="M43.2046 50.7036C43.2046 50.7036 46.01 51.9247 46.9162 51.6436L47.0072 52.7703L44.4729 52.208L42.9336 51.0814L43.2046 50.708" fill="#DCD9D8"/>
<path fill-rule="evenodd" clip-rule="evenodd" d="M50.9027 24.8523C48.4361 24.2593 47.2102 25.924 46.4607 27.6525C45.7937 27.4855 46.0372 26.5434 46.2489 26.0624C46.6724 24.8017 48.4721 23.126 49.9245 23.3522C50.5512 23.4511 51.3981 24.044 50.9239 24.8523H50.9027ZM62.9246 27.7447L63.041 27.7491C63.5979 28.9504 64.0996 30.2242 64.7835 31.2631C64.3114 32.4007 61.2159 33.4088 61.2625 31.3641C61.9316 31.061 63.0876 31.3026 63.6825 30.9139C63.3395 29.9365 62.8441 29.1042 62.9203 27.7227L62.9246 27.7447ZM52.1646 27.7974C52.6939 28.8033 52.8633 29.8619 53.617 30.6196C53.9558 30.9622 54.6122 31.3795 54.2882 32.3326C54.057 32.6996 53.7252 32.9865 53.3354 33.1562C52.1604 33.5164 49.4185 33.2309 50.3713 31.7111C51.3452 31.755 52.6494 32.3656 53.3778 31.6342C52.8188 30.7118 51.8258 28.8779 52.1921 27.7996L52.1646 27.7974ZM62.5032 38.023C60.7332 39.2024 58.7599 40.4828 55.8592 40.1885C55.2389 39.6307 55.0038 38.3876 55.6052 37.564C55.9185 38.1219 55.7216 39.1519 56.596 39.3056C58.2412 39.5977 60.1573 38.2624 61.3387 37.7946C62.0734 36.5098 61.2752 36.0377 60.6146 35.2119C59.2596 33.5208 57.4451 31.4212 57.5107 28.8867C58.057 28.476 58.1035 29.5149 58.184 29.7037C58.8912 31.4168 60.6697 33.613 61.9676 35.0845C62.2851 35.4469 62.8145 35.7939 62.8695 36.0333C63.0389 36.7295 62.4312 37.5618 62.5011 38.0252L62.5032 38.023ZM39.1476 36.78C38.5929 36.4505 38.4616 35.0054 37.8095 34.9637C36.8779 34.9044 37.0473 36.8415 37.0515 37.9725C36.41 37.3686 36.2978 35.5128 36.7678 34.5574C36.2321 34.2851 35.9908 34.8583 35.6943 35.0625C36.0754 32.1811 39.7595 33.7448 39.1455 36.7822L39.1476 36.78ZM63.6106 39.198C62.7636 40.8232 61.6203 42.6154 59.2024 42.6681C59.1537 42.141 59.1177 41.3437 59.2045 41.0275C61.0529 40.843 62.1941 39.8679 63.6084 39.198H63.6106ZM52.027 40.2522C53.5683 41.0934 56.4034 41.1834 58.4995 41.1197C58.6117 41.5963 58.6096 42.1849 58.6138 42.7669C55.9185 42.9053 52.7341 42.2178 52.0503 40.2522H52.027ZM51.7538 41.8203C52.8209 44.5985 56.4859 44.2801 59.5772 44.201C59.4416 44.5612 59.1452 44.9873 58.7789 45.141C57.7881 45.5803 55.0568 45.8768 53.6827 45.1191C52.8104 44.6359 52.2514 43.5509 51.7729 42.914C51.5612 42.6066 50.3924 41.8203 51.756 41.8159" fill="white"/>
<path fill-rule="evenodd" clip-rule="evenodd" d="M62.3558 57.166L58.4219 63.6339C59.0444 61.7364 59.3111 58.5606 59.4043 56.136C60.7064 55.5035 61.8222 56.2787 62.3558 57.1682" fill="white"/>
<path fill-rule="evenodd" clip-rule="evenodd" d="M57.8724 50.1157C57.2287 50.555 56.6782 51.0974 56.06 51.5652C54.688 51.6355 53.9385 51.4664 52.9307 50.6494C52.9476 50.5835 53.0492 50.6121 53.0514 50.533C54.5207 51.2138 56.3882 50.2563 57.8724 50.1157Z" fill="white"/>
<path fill-rule="evenodd" clip-rule="evenodd" d="M50.1592 60.5036C50.5615 58.6895 52.1452 57.7495 53.5807 56.748C55.0628 58.7027 55.9647 61.2064 56.9577 63.631C54.6118 62.8975 52.2151 61.7071 50.1613 60.5014" fill="white"/>
<path fill-rule="evenodd" clip-rule="evenodd" d="M58.4089 74.9987C58.3496 76.4812 58.5487 78.8641 58.6164 80.4168C59.5692 80.419 59.9757 80.2016 60.685 79.9556C60.7654 78.124 60.126 76.4307 59.9439 74.7594C59.5692 74.6561 58.8789 75.0339 58.411 74.979L58.4089 74.9987ZM43.605 66.5652C44.2317 72.5434 45.14 77.5464 46.8063 82.8612C50.503 84.0252 54.9578 84.1263 58.2268 83.0765C57.6276 80.0896 57.8881 76.4504 57.5387 73.2593L57.0475 66.0052C53.0882 65.1487 47.4923 65.8075 43.6071 66.5586L43.605 66.5652ZM58.0024 66.0491C57.9685 68.6187 58.1125 71.1487 58.303 73.7205L60.7803 73.2725C60.4944 70.7974 60.5262 68.0125 59.9439 65.8229C59.2664 65.8295 58.6736 65.8141 58.0003 66.0491H58.0024ZM62.8234 65.6362C62.3724 65.5264 61.8495 65.6318 61.4154 65.6406L62.2623 72.2403C62.9399 72.2622 63.2998 71.9328 63.8609 71.8186C63.8905 69.8903 63.6979 67.2329 62.8022 65.6362H62.8234ZM70.1238 72.5543C71.5381 72.1985 72.4252 70.402 72.0293 68.5572C71.7647 67.3185 71.2925 64.9839 70.7865 64.1911C70.4138 63.6047 69.3997 62.836 68.5909 63.3741C67.2739 64.2482 64.9555 64.503 63.9964 65.5593C64.477 67.2219 64.6273 69.5038 64.8264 71.61C66.4715 71.7154 68.4935 71.14 69.8612 71.7505C68.9085 72.0712 67.6677 72.0734 66.8441 72.5412C67.5174 72.8794 69.0969 72.8113 70.1259 72.5521L70.1238 72.5543ZM56.9798 63.6376C55.9846 61.2152 55.0848 58.7049 53.6027 56.7547C52.1672 57.754 50.5856 58.6939 50.1812 60.5102C52.235 61.7181 54.6338 62.9041 56.9776 63.6398L56.9798 63.6376ZM59.4273 56.1375C59.3342 58.56 59.0674 61.7379 58.4449 63.6355C59.927 61.6742 61.1275 59.3901 62.3788 57.1676C61.8452 56.2803 60.7273 55.505 59.4273 56.1353V56.1375ZM56.6749 55.1141C56.1117 55.0482 55.6374 55.7839 54.9027 55.4655L54.4115 56.0541C56.027 58.0746 56.7405 60.9385 58.0109 63.3104C58.6799 61.0307 58.6037 58.5336 58.7519 56.0453C57.833 56.1068 57.3228 55.1822 56.677 55.1119L56.6749 55.1141ZM54.89 52.6719C54.8307 53.3637 54.9853 53.5899 55.1187 54.3849C57.31 55.0965 56.9268 51.2663 54.89 52.6719ZM52.4594 51.8439C51.3332 51.2173 50.1271 50.7595 48.877 50.4844C47.3652 50.1836 47.5071 52.6236 47.5706 54.0797C47.6214 55.2327 48.1994 56.4516 48.4493 57.2159C48.5678 57.5739 48.5932 57.9516 48.8875 58.0241C49.4084 58.1493 51.1255 57.4377 51.6146 57.161C52.6521 56.5746 53.4524 55.6236 54.331 55.0218L54.3649 54.1104C53.8356 53.8381 53.2258 53.6426 52.4488 53.6053C52.9781 53.3308 53.7488 53.3351 54.2273 53.0079L54.24 52.6433C53.3635 52.5731 53.0332 52.1689 52.453 51.8417L52.4594 51.8439ZM43.4398 50.144C42.6564 50.9698 45.6375 52.0943 46.5882 52.1558C46.5818 51.6331 46.8761 51.1411 46.8169 50.7656C45.6883 50.5591 44.2063 50.6953 43.4419 50.144H43.4398ZM53.0946 50.5306C53.0903 50.6118 52.9887 50.5811 52.9739 50.647C53.9817 51.464 54.7312 51.6353 56.1032 51.5628L57.9156 50.1133C56.4335 50.2516 54.564 51.207 53.0946 50.5306ZM61.9575 53.3198C61.9151 52.4017 61.6822 50.5174 61.136 50.188C59.9884 49.4939 57.9495 51.5891 57.0877 51.9098C57.1809 52.1909 57.3376 52.4149 57.3482 52.7707C57.8563 52.6389 58.4809 52.7268 58.9234 52.9552C58.411 53.0145 57.8648 53.0101 57.5048 53.2627C57.3778 53.636 57.5345 54.1412 57.4519 54.6595C58.6672 55.0153 60.0562 55.2041 61.5912 55.2525C61.8876 54.8505 61.9935 54.0819 61.9575 53.3198ZM42.1186 50.9435C41.873 50.7612 40.2067 48.5144 40.0014 48.6067C36.9885 49.8366 34.1725 51.9669 31.6551 53.9874C34.0561 59.3287 35.0215 65.8756 35.1952 72.1832C37.9476 73.5163 40.3613 75.4402 44.0877 75.64L43.0164 66.6619C42.0784 66.2512 40.7339 66.6794 39.8574 66.5345C39.8489 65.4364 41.1976 66.0513 41.3098 65.3178C41.3945 64.7599 40.5688 64.7182 40.8377 63.8397C41.5237 64.0989 41.8836 64.6699 42.6162 64.8829C43.2852 63.3675 42.6077 60.6837 42.7009 59.3923C42.7221 59.1552 42.8152 58.0746 43.3297 58.2635C43.7849 58.4304 43.3043 61.1405 43.3509 62.3375C43.3932 63.4422 43.2238 64.5337 43.6537 65.2058C47.2594 64.6962 50.9222 64.3668 54.8223 64.257C53.9648 63.8748 52.9442 63.5103 51.8263 62.8602C51.2208 62.5088 49.311 61.7687 49.1374 61.1691C48.8579 60.2181 49.87 59.7108 50.0415 58.896C48.2206 59.9282 47.867 57.9077 47.4372 56.4801C47.0476 55.1844 46.8232 54.218 46.73 53.4713C45.1633 52.696 43.4864 51.934 42.1356 50.9171L42.1186 50.9435ZM60.3632 48.879C62.8742 47.6162 63.3273 53.6009 62.3428 55.5248C62.4952 56.1002 63.0203 56.3198 63.2321 56.8359L58.8493 64.4415C59.9122 63.7541 61.4324 64.3185 62.6604 63.7826C63.1177 63.5959 63.448 62.5088 63.7952 61.6413C64.748 59.2518 65.7474 56.2386 66.192 53.9545C66.2915 53.434 66.5668 52.3029 66.5054 51.8395C66.3953 51.0115 65.3133 50.3966 64.7607 49.8629L62.0506 47.2011C61.6208 47.86 60.6998 48.2992 60.3483 48.8351L60.3632 48.879ZM36.3364 25.7857C35.1401 27.1517 35.3899 29.7081 35.536 31.5288C37.6957 30.1188 40.5667 31.6386 40.5413 34.0391C41.5745 34.0105 40.9266 32.6994 40.7403 31.8582C40.1305 29.1042 41.7693 26.1129 40.8144 23.5938C38.9618 23.7388 37.4416 24.525 36.3385 25.7857H36.3364ZM44.8944 17.8617C42.1843 18.6567 38.7162 20.6992 37.6046 23.2205C38.4663 23.0887 39.0655 22.6407 39.9124 22.5616C40.2343 22.5396 40.6535 22.7022 41.024 22.6055C41.7587 22.4167 42.3791 20.7058 42.9359 20.0689C43.4779 19.4474 44.1279 19.1816 44.5725 18.615C44.8584 18.4722 45.2818 18.4832 45.2967 18.0374C45.1696 17.899 45.0426 17.8178 44.8732 17.8178L44.8944 17.8617ZM58.989 18.6084C56.1794 16.9678 51.4219 15.7313 48.4323 17.2753C46.0186 18.5227 42.758 20.5872 41.6465 23.2051C42.6839 25.7308 41.3395 28.0434 41.2527 30.6064C41.2061 31.968 41.8709 33.1606 41.9217 34.6474C41.566 35.2558 40.482 35.3283 39.7282 35.2887C39.4742 33.9754 39.0295 32.4995 37.7295 32.3502C35.8875 32.1416 34.5367 33.725 34.452 35.381C34.3525 37.3268 35.8917 40.5531 38.0768 40.3291C38.9194 40.2412 39.1269 39.3627 40.0458 39.3737C40.5434 40.406 39.2773 40.7288 39.1481 41.4645C39.1142 41.6556 39.254 42.4001 39.3344 42.7493C39.7303 44.4492 40.6154 46.6476 41.4856 47.9412C42.5908 49.5818 44.7589 49.83 47.0963 49.9903C47.5134 49.0591 49.0485 49.1338 50.0499 49.3797C48.8516 48.8878 47.7358 47.693 46.8105 46.6345C45.7519 45.4221 44.6721 44.1198 44.6191 42.5341C46.6242 45.4199 48.282 47.9412 51.9279 49.2106C54.6868 50.1704 57.9114 48.7714 60.0307 47.2252C60.9115 46.5839 61.4366 45.5649 62.0633 44.6337C64.4029 41.1197 65.4933 36.1563 65.2562 31.3246C65.1567 29.3326 65.1609 27.3494 64.5151 26.0097C63.8418 24.6085 61.5636 23.3522 60.2298 24.6217C59.982 23.26 61.3392 22.4167 62.9314 22.9086C61.7965 21.3888 60.6024 19.5616 58.989 18.6172V18.6084ZM64.2251 63.5586C66.4207 62.4253 70.5239 60.5102 71.9023 63.563C72.4104 64.6874 73.0075 66.5894 73.27 67.7512C73.6427 69.3896 72.8466 72.8333 71.2438 73.3845C69.8104 73.8677 68.1357 73.8413 66.408 73.4811C66.2047 73.3054 65.9782 72.998 65.8194 72.6817C64.585 72.6312 63.4311 72.7476 62.4571 73.2747C62.5503 74.2191 61.9321 74.3728 61.3562 74.5705C60.9263 76.334 62.2136 78.6379 61.9066 80.2455C61.6864 81.392 60.3272 81.5677 59.3299 81.7829C59.2982 82.4418 59.3723 82.9513 59.4421 83.4893C59.2135 84.3613 58.1887 84.8598 57.219 84.9828C54.0262 85.3781 49.1776 85.5604 46.1033 84.4118C45.2458 82.2309 44.5704 79.5801 43.859 77.0873C40.8631 77.4168 38.4388 75.7477 36.1564 74.6495C35.3645 74.2696 34.2509 74.0566 33.9756 73.4065C33.6898 72.774 33.8062 71.5616 33.7364 70.4196C33.5564 67.4986 33.3976 64.6765 32.6777 61.683C32.3432 60.3389 31.7609 59.1573 31.3544 57.8616C30.9797 56.6624 30.3233 55.1822 30.1518 53.983C29.8977 52.2107 31.5069 52.1119 32.5359 51.3432C34.1238 50.1572 35.373 49.4983 37.0986 48.4266C37.6067 48.1081 39.1481 47.3285 39.3217 46.9331C39.6689 46.1996 38.7246 45.1652 38.4748 44.5898C38.0725 43.6805 37.8672 42.9075 37.81 42.0092C36.3639 41.772 35.2693 40.8803 34.6066 39.8745C33.5119 38.2097 32.7518 35.1306 33.7004 32.7872C33.7745 32.6028 34.1238 32.2382 34.2 31.9571C34.3059 31.3992 33.9968 30.6569 33.9777 30.0639C33.8782 27.0177 34.4753 24.3976 36.4507 23.4752C37.2553 20.1809 40.1242 19.0608 42.83 17.4093C43.8421 16.7943 44.9558 16.399 46.1076 15.9597C50.2362 14.3829 56.5754 14.6793 60.0032 17.3697C61.4557 18.5118 63.7804 20.9166 64.6104 22.6626C66.806 27.2637 66.6493 34.9549 65.1143 40.5531C64.9089 41.3042 64.6062 42.4089 64.1912 43.3116C63.899 43.9419 62.9949 45.2003 63.105 45.7604C63.2172 46.3358 65.1694 47.8731 65.5886 48.2926C66.3423 49.0459 67.7736 50.0496 67.89 50.9984C68.0171 52.0086 67.4602 53.3966 67.1786 54.374L64.2568 63.5542" fill="white"/>
<path fill-rule="evenodd" clip-rule="evenodd" d="M57.5088 57.1348C57.5088 57.4203 57.2865 57.6509 57.0112 57.6509C56.736 57.6509 56.5137 57.4203 56.5137 57.1348C56.5137 56.8493 56.736 56.6187 57.0112 56.6187C57.2865 56.6187 57.5088 56.8493 57.5088 57.1348ZM58.0042 59.5506C58.0042 59.8361 57.7819 60.0667 57.5067 60.0667C57.2314 60.0667 57.0091 59.8361 57.0091 59.5506C57.0091 59.2651 57.2314 59.0345 57.5067 59.0345C57.7819 59.0345 58.0042 59.2651 58.0042 59.5506Z" fill="white"/>
</svg>
