<svg width="100" height="100" viewBox="0 0 100 100" fill="none" xmlns="http://www.w3.org/2000/svg">
<g filter="url(#filter0_d_1185_730)">
<path d="M49.2424 13.2021L51.4407 16.9112C51.9349 17.5956 52.4703 18.2015 53.1009 18.7657C54.9498 20.4059 56.6732 22.1565 58.2593 24.0055C61.9839 28.3989 64.4962 33.278 66.2903 38.5548C67.3663 41.7782 67.9506 45.0849 67.9943 48.4285C68.1745 58.4248 64.3598 67.0083 56.6685 74.1419C55.4175 75.2732 54.0659 76.311 52.6273 77.2451C51.8654 77.2451 51.505 76.7202 51.191 76.2369C50.6191 75.3407 50.2385 74.3566 50.0687 73.3349C49.7984 72.1255 49.6208 70.9162 49.7083 69.6675V69.1033C49.6465 68.9831 48.9747 13.4866 49.2424 13.2021Z" fill="white"/>
<path d="M49.2424 13.0796C49.1523 12.9177 49.0623 13.0402 48.9722 13.1189C49.0159 13.9282 48.7019 14.6496 48.2102 15.3387C47.6697 16.0232 46.9541 16.5481 46.236 17.1123C42.2462 20.2155 39.1059 23.9638 36.591 28.1561C33.2448 33.7982 31.5202 39.845 31.0311 46.211C30.8071 48.5071 31.8393 56.6096 32.645 58.9474C34.8432 65.1538 38.7918 70.3542 43.9064 74.868C45.1626 75.9548 46.5062 76.963 47.8962 77.9318C48.3003 77.9318 48.3441 77.6081 48.4368 77.3676C48.6139 76.853 48.749 76.3275 48.8409 75.7952L49.7418 69.7507L49.2424 13.0796Z" fill="white"/>
<path d="M51.4409 79.7004C51.531 78.7755 52.0253 78.0078 52.5632 77.2424C52.0227 77.0412 51.6211 76.6412 51.3071 76.1949C51.0363 75.7724 50.8122 75.327 50.6378 74.8653C50.0098 73.1727 49.8759 71.3968 49.6957 69.6671V68.6196C49.4718 68.7815 49.4255 70.1504 49.4255 70.3539C49.2945 72.182 49.0244 73.9999 48.6172 75.7949C48.4834 76.5209 48.3933 77.2447 47.8965 77.8899C47.8965 77.9708 47.8965 78.0517 47.9402 78.172C48.7485 80.3086 48.9699 82.4845 49.1063 84.702V85.5114C49.1063 86.4779 49.0625 86.2744 49.9557 86.5982C50.3161 86.7184 50.7176 86.76 51.078 87.0005C51.3483 87.0005 51.392 86.7994 51.392 86.6375L51.2582 85.3079V81.5989C51.2144 80.9514 51.3483 80.3086 51.4384 79.7027L51.4409 79.7004Z" fill="white"/>
</g>
<defs>
<filter id="filter0_d_1185_730" x="27" y="13" width="45" height="82.0005" filterUnits="userSpaceOnUse" color-interpolation-filters="sRGB">
<feFlood flood-opacity="0" result="BackgroundImageFix"/>
<feColorMatrix in="SourceAlpha" type="matrix" values="0 0 0 0 0 0 0 0 0 0 0 0 0 0 0 0 0 0 127 0" result="hardAlpha"/>
<feOffset dy="4"/>
<feGaussianBlur stdDeviation="2"/>
<feComposite in2="hardAlpha" operator="out"/>
<feColorMatrix type="matrix" values="0 0 0 0 0 0 0 0 0 0 0 0 0 0 0 0 0 0 0.25 0"/>
<feBlend mode="normal" in2="BackgroundImageFix" result="effect1_dropShadow_1185_730"/>
<feBlend mode="normal" in="SourceGraphic" in2="effect1_dropShadow_1185_730" result="shape"/>
</filter>
</defs>
</svg>
