<svg width="100" height="100" viewBox="0 0 100 100" fill="none" xmlns="http://www.w3.org/2000/svg">
<path d="M21 33.8636V66.136L28.7333 70.7487V38.3086L28.8342 38.2415L21.0504 33.8301L21 33.8636ZM71.149 38.2415L71.2667 38.3086V70.8158L79 66.136V33.8636L78.9496 33.8301L71.149 38.2415ZM54.2197 74.4053L50.0168 77.0555L45.7803 74.4053V47.8863L36.3154 42.502V75.4956L50.0168 83.9998L63.6846 75.4956V42.4685L54.2197 47.8192V74.4053Z" fill="white"/>
<path d="M50.0162 16L21.0498 33.8303L28.8336 38.2417L50.0162 25.1248L71.1484 38.2417L78.9489 33.8303L50.0162 16Z" fill="white"/>
<path d="M45.7804 36.5811L36.3154 42.435V42.5021L45.7804 47.8864V36.5811ZM54.2198 36.5811V47.8193L63.6847 42.4686V42.435L54.2198 36.5811Z" fill="white"/>
</svg>
