<svg width="100" height="100" viewBox="0 0 100 100" fill="none" xmlns="http://www.w3.org/2000/svg">
<path d="M44.6 33.8257C43.8161 33.8257 43.0206 33.9027 42.2224 34.0544C40.1343 34.4478 38.0135 35.3468 35.875 36.7069C36.4591 37.2832 37.0147 37.9426 37.5376 38.6625C39.7123 36.8582 41.8732 35.525 44.0255 34.7235C44.8112 34.4296 45.6209 34.2045 46.4455 34.0509C45.8421 33.8992 45.2222 33.8235 44.6 33.8257Z" fill="white"/>
<path d="M46.4441 34.0501C45.8407 33.8985 45.2208 33.823 44.5986 33.8252L48.6851 33.8403C47.9419 33.8403 47.1923 33.9096 46.4441 34.0497" fill="white"/>
<path d="M34.8078 37.4189C34.5034 37.6356 34.2025 37.8571 33.9053 38.0834C34.3007 38.9461 34.6661 39.9143 35.0076 40.9645C35.4483 40.5315 35.8965 40.1063 36.3522 39.6891C35.8721 38.8641 35.3619 38.1023 34.8078 37.4189Z" fill="white"/>
<path d="M35.874 36.7074C35.5131 36.9368 35.1572 37.174 34.8066 37.4188C35.3611 38.1022 35.8713 38.864 36.353 39.6906C36.7403 39.3394 37.1351 38.9967 37.5373 38.6627C37.0145 37.9432 36.4585 37.2833 35.874 36.707" fill="white"/>
<path d="M30.8496 40.7048C31.8199 39.7765 32.8397 38.9013 33.9045 38.0832C33.6879 37.6016 33.4449 37.1322 33.1768 36.6772C32.3567 37.6724 31.607 38.9855 30.8496 40.7048Z" fill="white"/>
<path d="M31.5853 34.7022C32.1709 35.1934 32.6953 35.8686 33.1755 36.6782C33.3268 36.4923 33.4797 36.3206 33.6387 36.1601C32.9726 35.5383 32.2525 35.0282 31.4717 34.644C31.5033 34.6614 31.5348 34.6756 31.5676 34.6895C31.5676 34.6895 31.5799 34.7018 31.5853 34.7018" fill="white"/>
<path d="M33.6376 36.1602C33.4786 36.3222 33.3277 36.4924 33.1748 36.6783C33.4431 37.1333 33.6865 37.6025 33.9041 38.0839C34.2012 37.8577 34.5019 37.6363 34.8062 37.4198C34.4466 36.9731 34.0561 36.5522 33.6376 36.1602Z" fill="white"/>
<path d="M6.9151 62.9956C5.45194 65.8151 3.8521 68.8191 2.07129 71.9947H5.1905C5.58442 68.9637 6.16033 65.9591 6.9151 62.9971" fill="white"/>
<path d="M50.1924 71.0009C50.9783 71.0009 51.7718 70.9239 52.5689 70.771C53.3058 70.6374 54.0443 70.4322 54.7844 70.1743C55.4016 70.4774 56.055 70.7001 56.7288 70.8372C57.2752 70.9476 57.8313 71.0024 58.3887 71.0009H50.1924Z" fill="white"/>
<path d="M58.3882 71.0011C60.3284 71.0011 61.8651 70.7713 63.1704 70.1445C63.965 70.575 64.8347 70.8493 65.7325 70.9526C65.8711 70.9661 66.0082 70.9788 66.1514 70.9888H66.1768C66.2411 70.9888 66.3093 70.9888 66.3786 71.0015H66.6138H58.3828L58.3882 71.0011Z" fill="white"/>
<path d="M66.6191 71.0007H67.0681C67.0951 71.0007 67.1197 71.0007 67.1451 70.9884C67.194 70.9884 67.246 70.9884 67.298 70.9757H67.3723C67.4239 70.9757 67.4805 70.9634 67.5344 70.9584H67.5482C67.5648 70.9584 67.581 70.9461 67.5975 70.9461C67.6553 70.9334 67.7157 70.9284 67.7723 70.9191C67.7912 70.9191 67.8062 70.9191 67.8262 70.9068C67.8905 70.8945 67.9572 70.888 68.0234 70.8756H68.055C68.187 70.8502 68.316 70.8252 68.4469 70.7925C68.8315 70.9342 69.2384 71.0057 69.6483 71.0034L66.6218 71.0158L66.6191 71.0007Z" fill="white"/>
<path d="M28.7318 33.8688C28.7492 33.8688 28.7646 33.8688 28.7819 33.8811C28.8242 33.8811 28.8666 33.8811 28.9093 33.895H28.9517C29.0291 33.9073 29.1065 33.9142 29.185 33.9254C29.1993 33.9254 29.212 33.9254 29.2243 33.9377C29.289 33.95 29.3552 33.9608 29.4211 33.9704C29.4357 33.9704 29.4542 33.9831 29.47 33.9831C29.6213 34.0132 29.7757 34.0447 29.9235 34.0836C29.9378 34.0836 29.952 34.0963 29.9643 34.0963C30.0275 34.1113 30.0841 34.1302 30.1472 34.1479C30.1665 34.1479 30.1804 34.1602 30.1973 34.1633C30.2716 34.1822 30.3409 34.201 30.4133 34.2249C30.4164 34.2249 30.421 34.2249 30.4291 34.2372C30.4907 34.2561 30.5535 34.2799 30.6181 34.3015C30.6436 34.3138 30.667 34.3192 30.6905 34.3254C30.7348 34.3446 30.7837 34.3631 30.8261 34.3808C30.8515 34.3808 30.8761 34.3985 30.9031 34.4078C30.9612 34.4339 31.0224 34.4578 31.0825 34.4828C31.1141 34.4955 31.1406 34.5098 31.1711 34.5209C31.2057 34.5386 31.2415 34.5548 31.2793 34.5671C31.3108 34.5825 31.3455 34.5987 31.3755 34.6126C31.4086 34.6307 31.4398 34.6441 31.4718 34.6618C32.2526 35.046 32.9723 35.5577 33.6384 36.1782C33.8769 35.9271 34.1337 35.694 34.4066 35.4807C32.9499 34.4474 31.3 33.8584 29.396 33.8584C29.1758 33.8584 28.9552 33.8711 28.7314 33.8877" fill="white"/>
<path d="M33.6381 36.1599C34.0566 36.5519 34.4471 36.9728 34.8067 37.4195C35.1568 37.1738 35.5127 36.9363 35.874 36.7073C35.4207 36.251 34.9291 35.8343 34.4047 35.4619C34.1318 35.6748 33.8754 35.908 33.6377 36.1595" fill="white"/>
<path d="M28.7303 33.8686C28.9536 33.8498 29.1742 33.8417 29.3949 33.8417C31.2985 33.8417 32.9488 34.4307 34.4054 35.4624C35.9425 34.2497 37.8003 33.8263 40.3812 33.8263H27.8828C28.1716 33.8263 28.4531 33.8436 28.7303 33.8686Z" fill="white"/>
<path d="M40.3821 33.8259C37.8012 33.8259 35.9433 34.2494 34.4062 35.462C34.9299 35.8347 35.4209 36.2512 35.874 36.707C38.0137 35.3469 40.1333 34.4461 42.2233 34.0527C43.0065 33.9037 43.8018 33.8278 44.599 33.8259H40.3821Z" fill="white"/>
<path d="M35.0082 40.9649C38.5367 51.7541 39.8736 71.0011 50.1926 71.0011C50.9781 71.0011 51.7721 70.9241 52.5687 70.7725C43.1884 68.5858 42.0764 49.5482 36.3528 39.6895C35.8962 40.1058 35.4478 40.531 35.0078 40.9649" fill="white"/>
<path d="M36.3525 39.6894C42.0765 49.5482 43.1882 68.5858 52.5685 70.7724C53.3055 70.6373 54.044 70.4325 54.784 70.1742C46.3643 66.05 44.0372 47.5629 37.5365 38.6631C37.1353 38.9977 36.7405 39.34 36.3525 39.6898" fill="white"/>
<path d="M61.3565 66.3724C62.2536 65.6559 63.1175 64.8989 63.9456 64.1037C60.3601 53.3646 59.0767 33.8423 48.6853 33.8423C47.9421 33.8423 47.1925 33.9116 46.4443 34.0502C55.9098 36.4039 57.1223 56.9937 61.3569 66.3724" fill="white"/>
<path d="M61.1755 68.6535C60.7692 68.2662 60.3834 67.8412 60.0038 67.3877C58.2557 68.625 56.5145 69.5636 54.7842 70.1741C55.4018 70.4774 56.0558 70.7002 56.7302 70.837C57.276 70.9475 57.8316 71.0025 58.3885 71.001C60.3299 71.001 61.8654 70.7712 63.1723 70.1445C62.4526 69.7557 61.7927 69.2513 61.1755 68.6535Z" fill="white"/>
<path d="M44.0244 34.725C52.5022 39.1584 53.2392 59.2354 60.004 67.3876C60.4643 67.0624 60.915 66.7237 61.3555 66.372C57.1208 56.9933 55.9098 36.402 46.4463 34.0498C45.6212 34.2051 44.8109 34.431 44.0244 34.725Z" fill="white"/>
<path d="M37.5361 38.663C44.0364 47.5628 46.3639 66.0495 54.7836 70.1741C56.5144 69.5635 58.2559 68.6249 60.0036 67.3876C53.2388 59.2355 52.5019 39.1584 44.0241 34.7251C41.8717 35.5251 39.7108 36.8582 37.5361 38.6626" fill="white"/>
<path d="M30.8491 40.7048C29.8303 43.0081 28.7896 46.0355 27.5312 49.9872C30.0336 46.4624 32.5279 43.425 35.0083 40.965C34.6668 39.9148 34.2999 38.9466 33.9044 38.0835C32.8396 38.9017 31.8198 39.7769 30.8495 40.7052" fill="white"/>
<path d="M93.7022 33.0042C88.9073 51.4925 78.8924 66.342 70.4958 70.0859H70.4804C70.3275 70.1552 70.1762 70.2183 70.0268 70.2795C70.006 70.2922 69.9872 70.2937 69.9714 70.3011C69.9275 70.3188 69.8867 70.3326 69.8424 70.3503C69.8216 70.3627 69.8031 70.3669 69.7842 70.3742C69.7134 70.3996 69.6441 70.4208 69.5748 70.4485C69.5448 70.4612 69.5166 70.4689 69.4882 70.4789C69.4541 70.492 69.4194 70.5033 69.3842 70.5128C69.3526 70.5251 69.3195 70.5344 69.2833 70.5482C69.2533 70.5605 69.2217 70.5659 69.1936 70.5782C69.132 70.5959 69.0758 70.611 69.0142 70.6321C68.9888 70.6321 68.9653 70.646 68.9387 70.6529C68.9006 70.6652 68.8578 70.6741 68.817 70.6856C68.7889 70.698 68.7654 70.7022 68.7354 70.7084C68.693 70.7207 68.6457 70.7322 68.6029 70.7422L68.4424 70.7777C68.8269 70.9194 69.2339 70.9909 69.6437 70.9886C77.6056 70.9886 85.6329 56.7231 98.9156 33H93.7002L93.7022 33.0042Z" fill="white"/>
<path d="M25.802 34.5764C25.807 34.5764 25.8135 34.564 25.8162 34.564C25.8228 34.564 25.8324 34.564 25.8355 34.5517H25.8455C25.8894 34.5363 25.9302 34.519 25.9745 34.5025C25.986 34.5025 25.9918 34.5025 25.9999 34.4901C26.0111 34.4901 26.0218 34.4774 26.033 34.4759C26.08 34.4609 26.1273 34.4432 26.1716 34.427H26.1789C26.2844 34.3954 26.3822 34.3562 26.4843 34.3196C26.4989 34.3196 26.5128 34.3073 26.5301 34.3073C26.5724 34.2934 26.6167 34.2784 26.661 34.2684C26.6814 34.2557 26.7018 34.2557 26.7207 34.2491C26.7661 34.2357 26.8104 34.2203 26.8528 34.2103C26.872 34.2103 26.8889 34.1976 26.9032 34.1964C27.0495 34.156 27.1947 34.1183 27.341 34.0832C27.3614 34.0832 27.3787 34.0705 27.4007 34.0694C27.443 34.057 27.4827 34.0501 27.5285 34.044C27.5474 34.0316 27.5693 34.0316 27.5913 34.0251C27.6336 34.0128 27.6748 34.0112 27.7206 34.0012H27.7503C27.8388 33.9831 27.9286 33.9685 28.0167 33.9519H28.0703C28.1126 33.9396 28.1503 33.9381 28.1931 33.9304C28.2162 33.9304 28.2401 33.9181 28.2624 33.9181C28.3017 33.9181 28.3409 33.9054 28.3802 33.9004C28.401 33.9004 28.421 33.9004 28.4449 33.8877C28.5377 33.8753 28.6336 33.8703 28.7314 33.8626C28.4499 33.8343 28.1672 33.8196 27.8843 33.8184C18.9182 33.8184 6.5646 50.4518 1 71.9925H2.07234C3.85315 68.8173 5.45299 65.8134 6.91614 62.9934C10.8131 47.7359 18.7511 37.3308 25.8024 34.5741" fill="white"/>
<path d="M6.91504 62.995C15.091 47.2431 18.9645 37.2738 25.8016 34.5752C18.7519 37.3339 10.8124 47.7389 6.91542 62.995" fill="white"/>
<path d="M10.627 71.9232C10.5766 71.9359 10.5261 71.9359 10.4788 71.9409H10.4507C10.4079 71.9409 10.3636 71.9536 10.3244 71.9536H10.304C10.2015 71.9659 10.1007 71.9659 10.0033 71.9736H9.97168C18.2466 71.7423 22.0288 67.6 23.9063 61.5921C25.3329 57.0375 26.5041 53.2005 27.5311 49.981C24.0649 54.8585 20.5834 60.6728 17.083 67.1861C15.395 70.3252 12.8283 71.6364 10.6266 71.9174" fill="white"/>
<path d="M10.6273 71.9201C12.8286 71.6398 15.3953 70.3301 17.0833 67.1888C20.5837 60.6774 24.0672 54.8616 27.5294 49.984C28.7893 46.0303 29.8289 43.0045 30.8493 40.7012C23.9474 47.2696 17.0186 58.1912 10.627 71.917" fill="white"/>
<path d="M28.4445 33.8959C28.4191 33.8959 28.4002 33.9082 28.3783 33.9082C28.3405 33.9209 28.3012 33.9209 28.2616 33.9247C28.2385 33.9247 28.2162 33.9247 28.1923 33.9374C28.1499 33.9498 28.1107 33.9509 28.0695 33.959C28.0506 33.959 28.0317 33.959 28.0159 33.9713C27.9262 33.9863 27.838 34.0029 27.7503 34.0179H27.7202C27.6744 34.0306 27.6332 34.0371 27.5908 34.0433C27.5689 34.0556 27.547 34.0556 27.5262 34.0606C27.4838 34.0733 27.4415 34.0783 27.4003 34.086C27.3783 34.0983 27.361 34.0983 27.3406 34.0995C27.1943 34.1349 27.0491 34.1726 26.9028 34.2131C26.8874 34.2131 26.8712 34.2254 26.8523 34.2281C26.8084 34.2404 26.7657 34.2531 26.7199 34.267C26.701 34.2797 26.6791 34.2797 26.6602 34.2847C26.6163 34.2968 26.5727 34.3098 26.5293 34.3236C26.5124 34.3236 26.4981 34.3359 26.4823 34.3359C26.3814 34.3736 26.2821 34.4117 26.1781 34.4429C26.1342 34.4568 26.0869 34.4745 26.0395 34.491C26.0207 34.5033 26.0037 34.5064 25.9818 34.5149C25.9375 34.5287 25.8932 34.5465 25.8524 34.5626C25.837 34.5753 25.8208 34.5765 25.81 34.583C18.9729 37.2817 15.099 47.2505 6.92343 63.0024C6.16799 65.9643 5.59221 68.9691 5.19922 72.0004H5.63701C6.86991 72.0004 7.21798 71.9877 8.63647 71.9877H10.0115C10.1089 71.9753 10.2097 71.9753 10.3118 71.9673H10.331C10.3734 71.9673 10.4157 71.9549 10.4569 71.9549H10.487C10.5324 71.9549 10.5844 71.9426 10.6348 71.9372C17.0265 58.2114 23.9549 47.2898 30.8571 40.7214C31.6157 39.0025 32.3638 37.6894 33.1828 36.6958C32.7038 35.8865 32.1794 35.2098 31.5937 34.7185C31.0081 34.2273 31.5779 34.7185 31.5768 34.7058C31.5433 34.6924 31.5121 34.6758 31.479 34.6596C31.4459 34.6415 31.4174 34.6277 31.3827 34.6104C31.3505 34.5968 31.3191 34.5816 31.2884 34.5649C31.2476 34.5522 31.2145 34.5345 31.1783 34.5184C31.1482 34.5057 31.1217 34.4929 31.0916 34.4806C31.0306 34.457 30.9703 34.4317 30.9107 34.4048C30.8837 34.3925 30.8587 34.3855 30.8337 34.3759C30.7878 34.3592 30.7425 34.3413 30.6977 34.322C30.6758 34.3093 30.6508 34.3066 30.6253 34.2978C30.561 34.2762 30.4979 34.2535 30.4382 34.2335H30.4224C30.35 34.2096 30.2792 34.1919 30.2053 34.1719C30.1879 34.1592 30.1737 34.1592 30.1564 34.1565C30.0917 34.1392 30.0351 34.1218 29.9739 34.1053C29.9585 34.1053 29.9438 34.0926 29.9315 34.0926C29.7809 34.054 29.629 34.0209 29.476 33.9933C29.4606 33.9933 29.4448 33.9805 29.429 33.9805C29.3639 33.9676 29.2982 33.9571 29.2323 33.949C29.2161 33.9367 29.2069 33.9367 29.193 33.9367C29.1155 33.9248 29.0377 33.9146 28.9597 33.9062H28.9188C28.8557 33.8939 28.7976 33.8928 28.7394 33.8862C28.6401 33.8985 28.5457 33.9039 28.4526 33.9128" fill="white"/>
<path d="M74.9731 43.2396C73.4002 48.2778 72.1261 52.4339 71.0176 55.8536C75.3339 49.9151 79.5855 42.4443 83.6342 33.8232C78.9117 35.3062 76.392 38.7008 74.9731 43.2396Z" fill="white"/>
<path d="M71.1545 69.7711C70.9343 69.8835 70.7136 69.9902 70.4961 70.086C78.8927 66.3422 88.9076 51.4927 93.7025 33.0044H92.7306C81.7146 52.6795 78.1715 65.8509 71.1545 69.7711Z" fill="white"/>
<path d="M65.6722 68.1183C67.4988 65.889 68.987 62.0993 71.0185 55.8535C68.6751 59.0719 66.3164 61.8379 63.9557 64.0942C63.9557 64.1065 63.9557 64.1065 63.9434 64.1142C64.4585 65.6572 65.0238 67.0189 65.6676 68.118" fill="white"/>
<path d="M65.6723 68.1182C65.0505 68.8766 64.3921 69.4548 63.6601 69.8829C63.4992 69.976 63.3371 70.0638 63.1719 70.1447C63.9664 70.5748 64.8359 70.8489 65.7335 70.952C65.8722 70.9658 66.0092 70.9785 66.1525 70.9885H66.1779C66.2422 70.9885 66.3103 70.9885 66.3796 71.0008H67.0627C67.0877 71.0008 67.1139 71.0008 67.1393 70.9885C67.1882 70.9885 67.2402 70.9885 67.2903 70.9758H67.365C67.4166 70.9758 67.4732 70.9635 67.5286 70.9581H67.5413C67.5575 70.9581 67.5752 70.9458 67.5914 70.9458C67.6491 70.9331 67.71 70.9281 67.7666 70.9192H67.8182C67.8821 70.9069 67.9487 70.8988 68.0145 70.8865H68.0465C68.1786 70.8611 68.3075 70.8365 68.4385 70.8034C67.355 70.4068 66.4478 69.4713 65.6669 68.1393" fill="white"/>
<path d="M63.9481 64.1148V64.1021C63.1202 64.8972 62.2564 65.6542 61.3595 66.3707C60.9183 66.722 60.4673 67.0606 60.0068 67.3862C60.3861 67.8397 60.7723 68.2647 61.1785 68.6524C61.7957 69.2503 62.4553 69.7542 63.1749 70.143C63.339 70.0622 63.5026 69.9744 63.6616 69.8816C64.3955 69.4535 65.0536 68.8757 65.6754 68.1169C65.0316 67.0178 64.4664 65.6562 63.9512 64.1132" fill="white"/>
<path d="M89.6536 33.0044H84.7632C84.4991 33.0171 84.2423 33.026 83.9889 33.0421C83.8692 33.2989 83.7464 33.5557 83.6281 33.814C79.5798 42.435 75.3282 49.9058 71.0119 55.8444C68.982 62.0898 67.4926 65.8794 65.666 68.1088C66.4469 69.4408 67.3556 70.3774 68.4356 70.7743C68.4672 70.7616 68.4926 70.7616 68.5207 70.7551H68.5384C68.5573 70.7551 68.5777 70.7428 68.5981 70.7428C68.642 70.7301 68.6894 70.7224 68.7336 70.7089C68.7617 70.6962 68.7852 70.695 68.8137 70.6858C68.8549 70.6735 68.8973 70.6646 68.935 70.6546C68.9604 70.6419 68.9855 70.6381 69.0105 70.6331C69.0736 70.6127 69.1302 70.5976 69.1903 70.5788C69.2184 70.5665 69.2484 70.5557 69.28 70.5484C69.3147 70.536 69.3493 70.5272 69.3809 70.5122C69.4171 70.4995 69.4533 70.4929 69.4848 70.4795C69.513 70.4668 69.5426 70.4591 69.5696 70.4479C69.6404 70.4225 69.7097 70.4013 69.7806 70.3736C69.7998 70.3736 69.8187 70.3559 69.8391 70.352C69.8814 70.3343 69.9257 70.3205 69.9681 70.3016C69.9835 70.2889 70.0027 70.2877 70.0231 70.2812C70.1714 70.2196 70.3239 70.1565 70.4767 70.0876H70.4925C70.7144 69.9888 70.9334 69.8838 71.1494 69.7726C78.1675 65.8525 81.711 52.6811 92.727 33.0059H89.6502L89.6536 33.0044Z" fill="white"/>
<path d="M71.0169 55.8562C72.127 52.4338 73.398 48.2788 74.974 43.2392C76.3948 38.6984 78.9091 35.3041 83.6316 33.8228C83.7564 33.5691 83.8742 33.3077 83.9955 33.0513C76.297 33.5125 72.6988 37.428 70.8879 43.2265C67.7214 53.3497 65.8031 59.9119 63.9561 64.0935C66.3152 61.8391 68.674 59.0711 71.0169 55.8562Z" fill="white"/>
<path d="M82.3123 68.3039H81.4398V71.0153H81.084V68.3039H80.208V67.9813H82.3119L82.3123 68.3039ZM85.8843 71.0145H85.5301V68.9773C85.5301 68.8167 85.5424 68.62 85.5589 68.3883C85.5224 68.5268 85.4923 68.6231 85.4646 68.6847L84.4315 71.0145H84.2583L83.2225 68.702C83.1917 68.6377 83.1617 68.5334 83.1289 68.3886H83.1166C83.1289 68.5107 83.1332 68.7082 83.1332 68.9823V71.0149H82.7928V67.981H83.2625L84.1928 70.0983C84.2633 70.2573 84.3076 70.3801 84.3299 70.4621H84.3437C84.4054 70.295 84.4554 70.1707 84.4901 70.0887L85.4396 67.981H85.8866V71.0145H85.8843Z" fill="white"/>
</svg>
