<svg width="100" height="100" viewBox="0 0 100 100" fill="none" xmlns="http://www.w3.org/2000/svg">
<path d="M43.7292 38.5976C42.65 38.1617 41.4833 37.9873 40.2875 38.0164C39.5292 38.0164 38.8583 38.0164 38.3042 38.0454C37.7208 38.0164 37.3125 38.0454 37.1083 38.0745V47.839C37.5167 47.8681 37.8958 47.8971 38.2458 47.8971H39.7917C40.9292 47.8971 42.0667 47.7228 43.1458 47.374C44.0792 47.1125 44.8958 46.5603 45.5375 45.8338C46.15 45.1073 46.4417 44.1192 46.4417 42.8405C46.4708 41.9396 46.2375 41.0387 45.7708 40.2541C45.275 39.4985 44.575 38.9173 43.7292 38.5976ZM72.6042 15H27.3958C20.5417 15 15 20.5216 15 27.351V70.649C15 77.4784 20.5417 83 27.3958 83H72.6042C79.4583 83 85 77.4784 85 70.649V27.351C85 20.5216 79.4583 15 72.6042 15ZM51.0471 48.8561C49.8833 50.4836 48.25 51.7041 46.3542 52.4016C44.3708 53.1281 42.1833 53.3897 39.7917 53.3897C39.0917 53.3897 38.625 53.3897 38.3333 53.3606C38.0417 53.3316 37.6333 53.3316 37.0792 53.3316V62.6573C37.1083 62.8607 36.9625 63.038 36.7583 63.067H31.1C30.8667 63.067 30.75 62.9479 30.75 62.6863V32.7854C30.75 32.5819 30.8375 32.4657 31.0417 32.4657C31.5375 32.4657 32.0042 32.4657 32.675 32.4366C33.375 32.4076 34.1042 32.4076 34.8917 32.3785C35.6792 32.3495 36.525 32.3495 37.4292 32.3204C38.3333 32.2913 39.2083 32.2913 40.0833 32.2913C42.475 32.2913 44.4583 32.5819 46.0917 33.1922C47.55 33.6863 48.8917 34.5 50 35.5752C50.9333 36.5052 51.6625 37.6386 52.1292 38.8882C52.5638 40.1088 52.7971 41.3584 52.7971 42.6661C52.8 45.1654 52.2167 47.2287 51.0471 48.8561ZM71.7292 60.1609C70.9125 61.3233 69.7721 62.2213 68.4625 62.7503C67.0333 63.3576 65.2833 63.6744 63.1804 63.6744C61.8417 63.6744 60.5262 63.5611 59.2167 63.2995C58.1958 63.1222 57.175 62.8055 56.2417 62.3695C56.0375 62.2562 55.8888 62.0528 55.9179 61.8203V56.7637C55.9179 56.6794 55.95 56.5602 56.0375 56.5021C56.1221 56.444 56.2125 56.4731 56.3 56.5312C57.4375 57.1996 58.6333 57.6675 59.9167 57.9552C61.0221 58.2458 62.1888 58.3911 63.3583 58.3911C64.4667 58.3911 65.2542 58.2429 65.7792 57.9813C66.2458 57.7779 66.5667 57.2839 66.5667 56.7608C66.5667 56.351 66.3333 55.9761 65.8667 55.5983C65.4 55.2234 64.4404 54.7875 63.0113 54.2295C61.5238 53.7064 60.1558 53.009 58.8696 52.14C57.9654 51.4978 57.21 50.6579 56.65 49.6699C56.1862 48.7399 55.9529 47.7228 55.9821 46.7027C55.9821 45.4531 56.3321 44.2616 56.9767 43.1863C57.7058 42.0239 58.7821 41.0939 60.0363 40.5127C61.4042 39.8182 63.125 39.4985 65.1958 39.4985C66.3917 39.4985 67.6167 39.5857 68.8125 39.76C69.6875 39.8763 70.5333 40.1088 71.3208 40.4284C71.4346 40.4575 71.5542 40.5737 71.6125 40.69C71.6417 40.8062 71.6708 40.9225 71.6708 41.0387V45.7757C71.6708 45.8919 71.6125 46.0082 71.525 46.0663C71.2625 46.1244 71.1167 46.1244 71 46.0663C70.125 45.6013 69.1917 45.2816 68.2 45.0782C67.1208 44.8457 66.0417 44.7004 64.9333 44.7004C64.35 44.6714 63.7375 44.7585 63.1804 44.9038C62.8042 44.991 62.4804 45.1945 62.2762 45.4851C62.1304 45.7176 62.0429 46.0082 62.0429 46.2697C62.0429 46.5313 62.1596 46.7928 62.3375 47.0253C62.6 47.345 62.9471 47.6065 63.3292 47.81C63.9971 48.1587 64.7 48.4784 65.3971 48.769C66.975 49.2921 68.4917 50.0186 69.8917 50.8904C70.8542 51.4978 71.6417 52.3144 72.1929 53.3025C72.6596 54.2266 72.8929 55.2496 72.8638 56.2929C72.8958 57.6617 72.4875 59.0246 71.7292 60.1609Z" fill="white"/>
</svg>
