<svg width="100" height="100" viewBox="0 0 100 100" fill="none" xmlns="http://www.w3.org/2000/svg">
<g filter="url(#filter0_d_1185_732)">
<path d="M42.3052 22.2087L38.7978 28.9046L37.2832 34.086V51.1447L40.7906 55.768L45.8125 56.7246L49.1605 57.2029L49.7185 60.79V67.0076L50.5156 76.7327L55.2985 81.1966L62.9509 79.2835L65.5018 72.189L66.2192 63.1814L69.0092 55.9275L69.8063 52.5795V41.2602V33.528L69.4875 31.9337L63.5887 24.6001L55.7767 20.2955L49.0808 19.5781L42.3052 22.2087Z" fill="white" stroke="white"/>
<path d="M61.2785 19.3389L57.6914 20.5346L65.1845 25.3971L69.489 30.4988L70.5253 36.4773L70.1267 40.7818L70.5253 48.2749L69.8876 51.862L68.6919 53.6954L69.1701 54.6519L70.7644 54.8911L72.6775 51.4634L75.9458 45.4052L79.2938 34.4844V26.8319L76.9024 23.0854L70.2064 19.6577L61.2785 19.3389Z" fill="white"/>
<path d="M69.0898 57.2017L67.2564 58.7162L66.9375 61.3468L69.0898 61.9048L74.59 61.1076L78.6554 59.7525L79.0539 57.7597H73.474L69.0898 57.2017Z" fill="white"/>
<path d="M44.8574 59.7536L38.8789 62.145L39.7558 64.377L47.0097 63.7393L49.6402 60.5507V58.9565L48.4445 57.4419H46.4517L45.6546 58.3187L44.8574 59.7536Z" fill="white"/>
<path d="M46.1759 37.8097C44.6345 36.2718 42.5591 36.9941 41.714 37.5476C41.6802 38.101 42.0385 39.2778 43.7421 39.5574C45.4457 39.837 46.0745 38.5088 46.1759 37.8097Z" fill="black"/>
<path d="M68.4942 37.4706C65.9944 36.2283 64.4767 37.2487 64.0303 37.9142C64.1047 38.5428 64.6775 39.7554 66.3738 39.578C68.0702 39.4005 68.4942 38.0991 68.4942 37.4706Z" fill="black"/>
<path d="M47.728 35.2014C44.7945 32.6506 40.0223 34.67 38.0029 35.9986V37.9914C40.474 36.5566 45.7192 34.4043 46.9308 37.274C48.4454 40.8611 47.8874 46.6005 47.6483 47.3179C47.47 47.8526 44.6989 54.6515 44.7786 56.0067L46.612 56.2458C46.6917 54.4921 48.6136 50.0067 49.0831 49.4702C49.6411 48.8324 51.3948 38.39 47.728 35.2014Z" fill="black"/>
<path d="M59.5229 18.6217C58.5663 18.5579 56.6266 19.0203 55.7764 19.2594C56.4406 19.8174 57.833 20.8856 58.0881 20.6943C58.3431 20.503 59.4432 20.3488 59.9215 20.2957L59.5229 18.6217Z" fill="black"/>
<path d="M49.3218 20.4552C45.4956 21.0291 42.9713 23.2451 42.1476 24.2814L41.749 24.0423C42.679 22.7669 45.4956 20.2639 49.3218 20.4552Z" fill="black"/>
<path d="M33.5376 62.9424C34.2391 62.5597 37.975 57.9735 39.6755 55.7681L38.9581 54.3333L37.5233 53.0579L36.487 49.8693L36.6464 41.1806L36.8059 33.6078L38.2407 27.6293L41.5887 22.0493L39.5161 21.1725L33.9362 20.4551H28.9142L25.1677 21.8102L21.5806 25.3176L20.624 30.4193V35.2818L21.5806 40.1443L23.6531 47.7171L25.2474 53.6956L27.0011 57.6813L28.1968 60.5509L30.1896 62.9424C31.9365 63.8158 32.6551 63.4237 33.5273 62.948L33.5376 62.9424Z" fill="white" stroke="white"/>
<path d="M61.119 38.2304C61.0394 33.7665 66.5661 33.2881 69.4889 33.7664L69.5687 35.839C67.4696 35.7061 63.8293 35.1216 63.2713 38.2304C62.7219 41.2913 64.1482 43.7306 66.3005 48.0351C68.0223 51.4788 69.7281 53.9339 70.3659 54.7311L69.0107 56.2456C68.3199 55.7674 66.4121 53.5513 64.3076 48.5134C61.7104 42.2958 61.2245 44.1417 61.119 38.2304Z" fill="black"/>
<path d="M49.8792 18.7012C44.5828 18.7012 41.4296 21.81 40.5527 23.4043L41.9079 24.3608C43.0239 21.6506 49.1618 18.7195 57.2129 21.5709C59.9497 22.4477 66.1886 26.0827 69.2496 33.6076V35.6802H69.5684C69.2762 37.1681 68.7075 40.5267 68.7713 42.0572C68.851 43.9704 69.2496 45.5646 69.2496 46.9995C69.2496 48.4343 69.3293 49.8691 68.4524 52.3403L69.5684 53.7751C71.4805 51.145 71.0032 48.5931 70.7641 44.6081C70.525 40.6224 71.1627 38.6296 71.3221 36.0787C71.4497 34.0381 71.0033 32.465 70.7641 31.9336C67.8945 25.3971 63.3085 22.2019 60.1622 20.8534C56.8143 19.4186 56.4157 18.7012 49.8792 18.7012Z" fill="black"/>
<path d="M46.4512 57.9208L44.6975 57.7614C44.5913 58.4257 43.2786 59.9136 38.8785 60.5514C37.603 60.9499 35.6421 62.321 38.0016 64.6167C40.951 67.4864 48.2846 64.4573 48.7629 63.5805C48.7363 67.4067 48.9301 75.3629 49.56 76.8926C50.118 78.2477 50.9949 82.1537 56.9734 82.074C62.9135 81.9948 64.7616 78.2957 65.0978 77.6227L65.1042 77.61C65.423 76.9723 66.4771 73.6258 66.6984 70.675C66.9376 67.4864 66.7781 69.6387 67.3361 64.6965L67.8144 60.6311C67.9738 59.6745 67.9101 57.5222 69.887 57.5222L68.6913 56.0874C67.4158 56.5657 66.3796 57.2831 65.9013 60.6311C65.7419 63.1819 65.1042 69.3996 64.9447 70.675C64.7467 72.2589 64.1476 75.4578 63.191 76.9723C62.2345 78.4869 60.3213 79.842 57.9299 80.0812C55.5385 80.3203 53.466 79.6029 52.5094 78.168C51.5529 76.7332 50.9152 75.2186 50.9152 72.349C50.9152 70.0532 50.7557 65.281 50.676 63.1819V59.1165H48.9224C48.7629 60.5514 47.5035 63.4689 43.741 63.6602C39.9785 63.8515 39.2504 62.8365 39.3567 62.3051C44.5381 62.3051 46.2652 59.0368 46.4512 57.9208Z" fill="black"/>
<path d="M70.0475 57.6013C69.2823 57.2824 68.6127 57.8404 68.3736 58.1592L68.6127 56.2461L71.0838 56.7244C73.3955 56.6712 78.1624 56.549 78.7363 56.4853C79.4537 56.4056 79.7726 56.2461 80.4103 56.565C81.048 56.8838 81.048 57.6013 80.8089 58.3984C80.5697 59.1955 79.6096 60.2348 78.5769 61.1086C77.5406 61.9855 75.8666 62.4637 74.0332 62.7029C72.6066 62.889 69.0378 62.8358 67.417 62.7029L67.5764 60.7101C68.6393 60.7898 71.3867 60.9014 73.8738 60.7101C76.3608 60.5188 77.6735 59.0892 78.0189 58.3984C73.3955 59.4347 71.0041 57.9998 70.0475 57.6013Z" fill="black"/>
<path d="M72.9971 21.8897C69.0016 19.3044 61.8904 19.8969 59.127 20.4549L59.2864 18.3823C60.2429 18.1698 63.1923 17.9041 67.178 18.1432C71.3157 18.3915 76.0794 20.88 77.8596 22.4477C78.2316 22.7931 79.3026 23.6708 79.8525 24.8391C80.4902 26.1943 80.4104 30.3295 80.4104 31.7742C80.4104 32.7308 79.693 36.8759 79.135 38.8687L78.1785 41.579L77.0625 44.3689L73.6348 51.5431L71.0043 56.8839L68.6926 56.3259L70.4463 54.094L75.5479 43.3326C76.3716 41.1538 78.14 35.6774 78.4176 32.0133C78.8162 26.7523 78.4176 25.3971 72.9971 21.8897Z" fill="black"/>
<path d="M34.5749 61.4274C35.6345 60.0368 38.4809 56.3789 39.7563 55.2097L41.1115 56.246L36.0098 62.2245C34.9735 63.4999 32.8531 65.8913 30.111 64.2971C27.3688 62.7028 25.8065 59.5143 25.3282 58.1591L22.4585 50.9052L19.7482 40.3033C19.0308 36.9553 18.6801 29.4623 19.5091 27.2303C19.8014 25.5297 21.5817 22.1286 24.7702 20.3749C28.8339 18.1399 28.6761 18.6213 32.1835 18.6213C35.5777 18.6213 40.8723 19.3387 43.0246 20.9329L41.6695 22.2881C37.8432 20.7735 32.7541 20.6134 29.7124 20.7735C26.6833 20.9329 24.8893 22.0714 23.1759 24.0418C21.5817 25.8752 21.1831 27.6289 20.8642 30.9768C20.5454 34.3248 21.4222 38.5496 21.6614 39.9047C21.9005 41.2599 24.4772 49.3019 24.8499 51.4632C25.2485 53.7749 27.321 58.6374 29.553 61.4274C31.785 64.2174 33.2995 63.1014 34.5749 61.4274Z" fill="black"/>
<path d="M36.2487 35.3612C36.1212 29.6218 39.1982 24.839 40.7127 23.165L42.2273 24.2013C40.9253 25.6096 38.1619 29.6537 38.1619 35.5206V39.1077C38.1619 40.144 38.1619 45.6442 37.9228 46.9197C37.7553 47.813 37.2054 54.0939 44.3796 55.8476L46.6913 56.1664C49.8798 55.6563 50.677 57.9201 50.677 59.1158H48.9233C48.2856 57.3621 47.5681 58.239 45.655 57.9201C44.1245 57.665 40.6331 57.0433 39.5967 55.6084C34.8139 52.3402 35.9299 47.7965 36.0893 45.6442C36.2488 43.492 36.4082 42.5354 36.2487 35.3612Z" fill="black"/>
<path d="M42.8641 18.7011C44.7507 17.718 49.9905 16.1025 55.8574 17.5054C58.4614 16.602 65.168 15.1619 71.1624 16.6286C78.6555 18.462 81.9237 24.2014 82.0832 25.4768C82.2426 26.7522 83.1992 31.3756 80.1701 41.1803C77.4917 48.9604 74.4307 53.9345 73.235 55.4491H78.0178C79.5058 54.9708 82.4817 54.4606 82.4817 56.2462C82.4817 58.4782 83.1194 59.6739 78.9743 62.8624C78.1772 63.3407 75.9771 64.3132 73.5538 64.377C71.1305 64.4407 69.3556 64.4035 68.771 64.377C68.6382 66.9012 68.1493 73.0498 67.2565 77.45C66.1405 82.9502 59.9228 84.1459 56.3357 83.9865C52.7486 83.8271 48.763 81.9936 48.0455 78.1674C47.5335 75.4368 47.2218 69.1066 47.089 66.2901C44.7507 67.2201 39.0857 68.2351 35.1319 64.8553C34.1754 66.1838 31.3695 68.0438 27.7983 64.8553C26.762 63.5798 24.4344 60.3594 23.4141 57.681C22.1386 54.3331 19.9864 48.6734 18.8704 44.6877C17.7544 40.7021 16.7978 34.4047 17.037 29.9407C17.037 26.1145 20.385 18.7809 27.1607 17.5054C29.6912 17.0291 34.59 16.1822 41.0308 18.2229L42.8272 18.7103V20.7828L41.0308 20.2157C40.154 19.9766 36.2413 18.595 29.0738 19.0997C23.4141 19.4983 20.5179 24.1748 19.827 26.5131C18.5516 30.6582 18.8915 34.7547 19.827 39.6658C20.7626 44.5769 23.4141 53.6954 24.7693 56.7245C25.8534 59.1478 28.0375 62.1981 28.994 63.4204C29.6318 64.0581 31.7043 65.9712 34.574 63.7393C36.3277 61.8261 40.4729 56.565 41.0308 56.0071C41.5958 55.442 43.5816 57.2028 44.8571 57.681C44.5913 58.1859 43.6453 59.3231 42.625 59.8333C41.3496 60.471 38.8785 60.0724 38.1611 60.8696C37.4436 61.6667 36.4871 62.3841 37.4437 63.7393C38.4003 65.0944 40.393 65.8915 43.0236 65.6524C45.6541 65.4132 48.6833 63.819 48.763 63.4204C48.8268 63.1016 49.098 71.1086 49.2042 74.3503C49.3105 77.5919 50.593 82.5676 57.0531 81.9936C65.1283 81.2762 65.6623 76.4934 66.3797 71.87C66.9536 68.1713 67.3363 64.1644 67.416 62.6233L69.887 62.7428L72.1191 62.78C77.3005 62.4612 79.2295 61.2177 80.5687 58.4755C80.9407 57.5455 81.4296 55.9911 78.815 56.565C76.3173 56.6713 71.1465 56.7882 71.0827 56.7245C71.003 56.6448 78.4164 42.4558 79.3729 37.8324C80.3625 33.0496 80.8875 28.1073 79.6121 25.1579C78.0251 21.488 72.1988 19.02 68.8508 18.462C65.9014 17.9704 59.046 18.4354 55.8574 19.1794C53.0143 18.5417 46.4353 17.9678 42.8641 20.7737V18.7011Z" fill="white"/>
<path d="M42.6686 18.7106H42.828L42.9874 18.6309V20.6237L42.852 20.7951L42.5889 20.6237L42.6686 18.7106Z" fill="white"/>
</g>
<defs>
<filter id="filter0_d_1185_732" x="13" y="16" width="73.5166" height="76" filterUnits="userSpaceOnUse" color-interpolation-filters="sRGB">
<feFlood flood-opacity="0" result="BackgroundImageFix"/>
<feColorMatrix in="SourceAlpha" type="matrix" values="0 0 0 0 0 0 0 0 0 0 0 0 0 0 0 0 0 0 127 0" result="hardAlpha"/>
<feOffset dy="4"/>
<feGaussianBlur stdDeviation="2"/>
<feComposite in2="hardAlpha" operator="out"/>
<feColorMatrix type="matrix" values="0 0 0 0 0 0 0 0 0 0 0 0 0 0 0 0 0 0 0.25 0"/>
<feBlend mode="normal" in2="BackgroundImageFix" result="effect1_dropShadow_1185_732"/>
<feBlend mode="normal" in="SourceGraphic" in2="effect1_dropShadow_1185_732" result="shape"/>
</filter>
</defs>
</svg>
