<svg width="100" height="100" viewBox="0 0 100 100" fill="none" xmlns="http://www.w3.org/2000/svg">
<path d="M32.9271 25.099C32.9271 20.4174 34.2112 17.8706 41.3006 16.6578C46.1138 15.833 52.2851 15.7299 58.0417 16.6578C62.5884 17.3915 66.4152 20.7026 66.4152 25.099V40.5445C66.4152 45.0746 62.6998 48.7854 58.0417 48.7854H41.3006C35.6189 48.7854 30.8304 53.5216 30.8304 58.8761V66.2867H25.0742C20.2051 66.2867 17.3702 62.8542 16.1793 58.0513C14.573 51.5989 14.6412 47.7544 16.1793 41.5748C17.513 36.1839 21.7742 33.3395 26.6436 33.3395H49.6742V31.2775H32.9268V25.0987L32.9271 25.099Z" fill="white"/>
<path d="M66.4149 74.528C66.4149 79.2096 62.2591 81.5808 58.0414 82.7633C51.696 84.5462 46.6034 84.2733 41.3003 82.7633C36.8713 81.5021 32.9268 78.9247 32.9268 74.528V59.0824C32.9268 54.6373 36.7167 50.8416 41.3003 50.8416H58.0414C63.6176 50.8416 68.5116 46.1301 68.5116 40.5447V33.3403H74.7888C79.6641 33.3403 81.9595 36.8817 83.1623 41.5757C84.8369 48.0948 84.9114 52.9702 83.1623 58.0522C81.4691 62.9884 79.6578 66.2875 74.7888 66.2875H49.6738V68.3494H66.4149V74.5283V74.528Z" fill="white"/>
<path d="M37.1143 24.0738C37.1143 22.3638 38.5161 20.981 40.2532 20.981C41.9836 20.981 43.3921 22.3635 43.3921 24.0738C43.3921 25.7784 41.984 27.1605 40.2532 27.1605C38.5168 27.1605 37.1143 25.778 37.1143 24.0738ZM55.9513 75.5526C55.9513 73.8481 57.3595 72.4659 59.0903 72.4659C60.8267 72.4659 62.2292 73.8484 62.2292 75.5526C62.2292 77.2626 60.8274 78.6455 59.0903 78.6455C57.3598 78.6455 55.9513 77.2629 55.9513 75.5526Z" fill="black"/>
</svg>
