<svg width="100" height="100" viewBox="0 0 100 100" fill="none" xmlns="http://www.w3.org/2000/svg">
<path d="M49.5009 55.1025C53.3647 55.1025 56.4969 51.8926 56.4969 47.9329C56.4969 43.9732 53.3647 40.7632 49.5009 40.7632C45.6371 40.7632 42.5049 43.9732 42.5049 47.9329C42.5049 51.8926 45.6371 55.1025 49.5009 55.1025Z" fill="white"/>
<path fill-rule="evenodd" clip-rule="evenodd" d="M49.5006 33.355C58.8937 33.355 67.6196 34.7363 74.1989 37.0575C82.1261 39.8544 87 44.0937 87 47.9324C87 51.9326 81.8346 56.4363 73.3219 59.3268C66.8861 61.512 58.417 62.6528 49.5006 62.6528C40.3588 62.6528 31.7021 61.582 25.1938 59.3028C16.9595 56.4185 12 51.8565 12 47.9324C12 44.1248 16.6536 39.9183 24.4693 37.1257C31.0731 34.7661 40.0145 33.355 49.4994 33.355H49.5006Z" stroke="white" stroke-width="4"/>
<path fill-rule="evenodd" clip-rule="evenodd" d="M37.1182 40.6858C41.8108 32.347 47.3374 25.2904 52.5864 20.609C58.9107 14.9687 64.9291 12.7598 68.1738 14.6773C71.5552 16.6757 72.7816 23.5115 70.9722 32.5126C69.6055 39.318 66.3376 47.4062 61.8831 55.322C57.316 63.4379 52.0865 70.5883 46.909 75.2262C40.3574 81.0955 34.0234 83.2195 30.7065 81.2591C27.4879 79.3583 26.257 73.1244 27.8011 64.7905C29.1057 57.749 32.3796 49.1062 37.1166 40.6857L37.1182 40.6858Z" stroke="white" stroke-width="4"/>
<path fill-rule="evenodd" clip-rule="evenodd" d="M37.1308 55.3436C32.4249 47.0142 29.2209 38.5814 27.8836 31.5831C26.2737 23.1511 27.4119 16.7041 30.6537 14.781C34.0318 12.7768 40.4232 15.1018 47.1288 21.2037C52.1988 25.817 57.4049 32.7566 61.8723 40.665C66.4526 48.7731 69.8854 56.9874 71.2208 63.9006C72.9105 72.6489 71.5429 79.3332 68.2291 81.2992C65.0137 83.2068 59.1297 81.1871 52.8556 75.654C47.5546 70.9792 41.8831 63.7558 37.1308 55.3435V55.3436Z" stroke="white" stroke-width="4"/>
</svg>
