<svg width="100" height="100" viewBox="0 0 100 100" fill="none" xmlns="http://www.w3.org/2000/svg">
<path d="M72.5529 29.2642C72.5028 28.9636 72.2563 28.733 71.9512 28.7043C71.7111 28.665 66.435 28.3048 66.435 28.3048L62.4126 24.2992C62.0498 23.8997 61.2475 24.0166 60.9445 24.0994C60.905 24.0994 60.1421 24.3385 58.8938 24.7422C57.6806 21.2466 55.5329 18.0421 51.7494 18.0421H51.4261C50.3421 16.6428 49.0148 16 47.8945 16C39.0857 16.0393 34.8883 26.9788 33.561 32.5686L27.4047 34.4493C25.5162 35.0485 25.4468 35.0921 25.1929 36.8856L20 76.7484L58.9098 84L79.996 79.4738C79.996 79.4344 72.5914 29.6457 72.5529 29.2653V29.2642ZM56.7364 25.4137C55.758 25.7357 54.6419 26.0566 53.4395 26.4178V25.6953C53.4751 23.8924 53.2038 22.0965 52.6371 20.3839C54.6089 20.6856 55.934 22.8882 56.7374 25.4127L56.7364 25.4137ZM50.2621 20.8471C50.9055 22.7362 51.2042 24.7252 51.1434 26.7196V27.0808L44.3415 29.1665C45.6731 24.2153 48.1292 21.7694 50.2632 20.8471H50.2621ZM47.648 18.4108C48.0504 18.4193 48.4416 18.5445 48.7737 18.771C45.9356 20.0864 42.9353 23.4099 41.6485 30.0622L36.2658 31.7048C37.784 26.6569 41.3263 18.4012 47.6448 18.4012L47.648 18.4108Z" fill="white"/>
<path d="M71.9512 28.7042C71.7111 28.6649 66.435 28.3047 66.435 28.3047L62.4126 24.2991C62.2632 24.1482 62.0605 24.0622 61.8503 24.0601L58.9141 83.9999L80.0003 79.4737L72.553 29.3046C72.5288 29.1543 72.4576 29.0155 72.3496 28.9078C72.2415 28.8002 72.1021 28.7294 71.9512 28.7053V28.7042Z" fill="white"/>
<path d="M51.7508 40.3207L49.1325 48.0153C47.5502 47.2524 45.8207 46.8423 44.0623 46.8115C39.9567 46.8115 39.7561 49.3742 39.7561 50.0181C39.7561 53.5222 48.9703 54.8674 48.9703 63.1219C48.9703 69.6138 44.8252 73.7788 39.261 73.7788C32.5819 73.7788 29.1602 69.651 29.1602 69.651L30.9366 63.7541C30.9366 63.7541 34.4363 66.761 37.4163 66.761C37.7725 66.7745 38.1278 66.7159 38.4606 66.5888C38.7935 66.4616 39.0969 66.2685 39.3527 66.0212C39.6084 65.7739 39.8111 65.4775 39.9485 65.1499C40.0859 64.8223 40.1551 64.4704 40.1519 64.1154C40.1519 59.5041 32.5872 59.3054 32.5872 51.7713C32.5872 45.4366 37.173 39.2656 46.3872 39.2656C50.0085 39.3188 51.7412 40.3175 51.7412 40.3175L51.7508 40.3207Z" fill="#363434"/>
</svg>
