<svg width="100" height="100" viewBox="0 0 100 100" fill="none" xmlns="http://www.w3.org/2000/svg">
<path d="M13 47.5V11H86V84H13" fill="white"/>
<path d="M29.0059 47.6281V50.6029H38.4959V77.6129H45.2301V50.6029H54.7201V47.6829C54.7201 46.0404 54.7201 44.7081 54.6471 44.6716C54.6471 44.6169 48.8619 44.5986 41.8356 44.5986L29.0606 44.6534V47.6464L29.0059 47.6281ZM71.6561 44.5804C73.5176 45.0184 74.9411 45.8579 76.2186 47.1901C76.8939 47.9201 77.8976 49.1976 77.9706 49.5261C77.9706 49.6356 74.8134 51.7709 72.8971 52.9571C72.8241 53.0119 72.5321 52.7016 72.2401 52.2271C71.2911 50.8766 70.3239 50.2926 68.8091 50.1831C66.6191 50.0371 65.1591 51.1869 65.1591 53.1031C65.1591 53.6871 65.2686 54.0156 65.4876 54.4901C65.9804 55.4939 66.8929 56.0961 69.7216 57.3371C74.9411 59.5819 77.2041 61.0601 78.5729 63.1771C80.1241 65.5496 80.4709 69.2726 79.4306 72.0649C78.2626 75.1126 75.4156 77.1749 71.3459 77.8501C70.0684 78.0691 67.1484 78.0326 65.7796 77.7954C62.8596 77.2479 60.0674 75.7879 58.3519 73.9081C57.6766 73.1781 56.3809 71.2254 56.4539 71.0976L57.1474 70.6596L59.8849 69.0719L61.9471 67.8674L62.4216 68.5061C63.0239 69.4551 64.3744 70.7326 65.1591 71.1706C67.5316 72.3934 70.7071 72.2291 72.2766 70.8056C72.9519 70.1851 73.2439 69.5281 73.2439 68.6156C73.2439 67.7761 73.1161 67.3929 72.6964 66.7541C72.1124 65.9511 70.9444 65.2941 67.6594 63.8341C63.8816 62.2281 62.2756 61.2061 60.7791 59.6366C59.9214 58.6876 59.1366 57.2094 58.7716 55.9866C58.4979 54.9281 58.4066 52.3366 58.6621 51.2964C59.4469 47.6464 62.2026 45.0914 66.1446 44.3614C67.4221 44.1059 70.4334 44.2154 71.6926 44.5439L71.6561 44.5804Z" fill="black"/>
</svg>
