<svg width="87" height="87" viewBox="0 0 87 87" fill="none" xmlns="http://www.w3.org/2000/svg">
<path d="M14.9979 62.1511C24.8493 62.3429 33.3863 63.816 39.6863 66.4114C39.7938 66.4554 39.9077 66.4774 40.0204 66.4774C40.1918 66.4774 40.3623 66.4271 40.5086 66.3291C40.752 66.1664 40.898 65.8928 40.898 65.6L40.9014 18.5069C40.9014 18.1475 40.6822 17.8244 40.3482 17.6916L15.3393 7.7399C15.0694 7.63237 14.7632 7.66575 14.5225 7.82903C14.2819 7.9925 14.1377 8.26439 14.1377 8.55523V61.2739C14.1377 61.7518 14.5202 62.1417 14.9979 62.1511Z" fill="#2B3137"/>
<path d="M86.6464 16.1038C86.4243 15.9383 86.1369 15.8876 85.8711 15.9668L77.0259 18.6113C76.6543 18.7224 76.3997 19.0641 76.3997 19.4519V64.9453C76.3997 64.9453 76.439 65.6631 75.6834 65.6631C74.8181 65.6631 74.2498 65.6631 74.2498 65.6631C67.1143 65.6631 53.854 66.4037 45.2145 71.3644L43.4998 72.3462L41.7853 71.3644C33.1456 66.4039 19.8855 65.6631 12.75 65.6631C12.75 65.6631 11.2888 65.6631 10.9202 65.6631C10.579 65.6631 10.5999 65.2531 10.5999 65.2533V19.4519C10.5999 19.0641 10.3454 18.7224 9.97388 18.6113L1.12872 15.9668C0.862956 15.8876 0.575545 15.9383 0.353265 16.1038C0.130986 16.2692 0 16.5301 0 16.8072V71.8483C0 72.0958 0.104825 72.332 0.288133 72.4985C0.471622 72.6647 0.716634 72.746 0.96309 72.7215C3.59201 72.4637 7.70202 72.1566 12.352 72.1566C22.565 72.1566 30.7725 73.648 36.0912 76.471C36.8726 76.8809 41.403 79.3222 43.5002 79.3222C45.5974 79.3222 50.1276 76.8811 50.9088 76.471C56.2277 73.648 64.4352 72.1566 74.6482 72.1566C79.2978 72.1566 83.4082 72.4637 86.0369 72.7215C86.2835 72.746 86.5286 72.6647 86.712 72.4985C86.8954 72.332 87 72.096 87 71.8483V16.8072C86.9998 16.5301 86.8687 16.2692 86.6464 16.1038Z" fill="#2B3137"/>
<path d="M46.491 66.3291C46.6375 66.427 46.8081 66.4774 46.9793 66.4774C47.0922 66.4774 47.2059 66.4553 47.3136 66.4113C53.6134 63.8158 62.1506 62.3426 72.0019 62.151C72.4797 62.1416 72.8624 61.7518 72.8624 61.274V8.55518C72.8624 8.26416 72.7182 7.99227 72.4775 7.82898C72.2368 7.66588 71.9307 7.63232 71.6606 7.73985L46.6516 17.6915C46.3177 17.8243 46.0986 18.1475 46.0986 18.5069L46.1021 65.6C46.1017 65.8928 46.2478 66.1663 46.491 66.3291Z" fill="#2B3137"/>
</svg>
