<svg width="100" height="100" viewBox="0 0 100 100" fill="none" xmlns="http://www.w3.org/2000/svg">
<path d="M50.4314 57.102C54.391 57.102 57.601 53.892 57.601 49.9323C57.601 45.9727 54.391 42.7627 50.4314 42.7627C46.4717 42.7627 43.2617 45.9727 43.2617 49.9323C43.2617 53.892 46.4717 57.102 50.4314 57.102Z" fill="#2B3137"/>
<path fill-rule="evenodd" clip-rule="evenodd" d="M50.4314 35.3555C60.0577 35.3555 69.0002 36.7367 75.7428 39.058C83.8667 41.8548 88.8616 46.0941 88.8616 49.9329C88.8616 53.9331 83.568 58.4368 74.844 61.3272C68.2484 63.5124 59.5692 64.6532 50.4314 64.6532C41.0627 64.6532 32.1911 63.5824 25.5212 61.3032C17.0826 58.4189 12 53.8569 12 49.9329C12 46.1253 16.7691 41.9187 24.7788 39.1262C31.5466 36.7666 40.7099 35.3555 50.4301 35.3555H50.4314Z" stroke="#2B3137" stroke-width="3"/>
<path fill-rule="evenodd" clip-rule="evenodd" d="M37.7428 42.6858C42.5519 34.3469 48.2157 27.2903 53.595 22.609C60.0762 16.9687 66.244 14.7598 69.5693 16.6773C73.0347 18.6757 74.2915 25.5115 72.4371 34.5126C71.0366 41.3179 67.6875 49.4061 63.1225 57.3219C58.442 65.4378 53.0827 72.5881 47.7766 77.226C41.0625 83.0953 34.5712 85.2193 31.172 83.2589C27.8735 81.3581 26.6121 75.1242 28.1945 66.7903C29.5315 59.7489 32.8867 51.1061 37.7412 42.6856L37.7428 42.6858Z" stroke="#2B3137" stroke-width="3"/>
<path fill-rule="evenodd" clip-rule="evenodd" d="M37.7523 57.3435C32.9296 49.0141 29.6461 40.5813 28.2756 33.5831C26.6258 25.151 27.7922 18.7041 31.1145 16.781C34.5764 14.7768 41.1264 17.1017 47.9985 23.2037C53.1943 27.817 58.5297 34.7565 63.108 42.6649C67.8019 50.7729 71.3199 58.9873 72.6885 65.9004C74.4202 74.6487 73.0186 81.333 69.6225 83.299C66.3273 85.2066 60.2972 83.1869 53.8675 77.6538C48.4348 72.979 42.6226 65.7556 37.7523 57.3433V57.3435Z" stroke="#2B3137" stroke-width="3"/>
</svg>
