<svg width="100" height="100" viewBox="0 0 100 100" fill="none" xmlns="http://www.w3.org/2000/svg">
<path d="M32.9271 25.099C32.9271 20.4174 34.2112 17.8706 41.3006 16.6578C46.1138 15.833 52.2851 15.7299 58.0417 16.6578C62.5884 17.3915 66.4152 20.7026 66.4152 25.099V40.5445C66.4152 45.0746 62.6998 48.7854 58.0417 48.7854H41.3006C35.6189 48.7854 30.8304 53.5216 30.8304 58.8761V66.2867H25.0742C20.2051 66.2867 17.3702 62.8542 16.1793 58.0513C14.573 51.5989 14.6412 47.7544 16.1793 41.5748C17.513 36.1839 21.7742 33.3395 26.6436 33.3395H49.6742V31.2775H32.9268V25.0987L32.9271 25.099Z" fill="#2B3137"/>
<path d="M66.4159 74.528C66.4159 79.2096 62.2601 81.5808 58.0424 82.7633C51.697 84.5462 46.6044 84.2733 41.3013 82.7633C36.8723 81.5021 32.9277 78.9247 32.9277 74.528V59.0824C32.9277 54.6373 36.7177 50.8416 41.3013 50.8416H58.0424C63.6186 50.8416 68.5126 46.1301 68.5126 40.5447V33.3403H74.7898C79.6651 33.3403 81.9604 36.8817 83.1633 41.5757C84.8379 48.0948 84.9124 52.9702 83.1633 58.0522C81.4701 62.9884 79.6588 66.2875 74.7898 66.2875H49.6748V68.3494H66.4159V74.5283V74.528Z" fill="#2B3137"/>
<path d="M37.1133 24.0738C37.1133 22.3638 38.5151 20.981 40.2522 20.981C41.9827 20.981 43.3911 22.3635 43.3911 24.0738C43.3911 25.7784 41.983 27.1605 40.2522 27.1605C38.5158 27.1605 37.1133 25.778 37.1133 24.0738ZM55.9504 75.5526C55.9504 73.8481 57.3585 72.4659 59.0893 72.4659C60.8257 72.4659 62.2283 73.8484 62.2283 75.5526C62.2283 77.2626 60.8264 78.6455 59.0893 78.6455C57.3588 78.6455 55.9504 77.2629 55.9504 75.5526Z" fill="white"/>
</svg>
