<svg width="100" height="100" viewBox="0 0 100 100" fill="none" xmlns="http://www.w3.org/2000/svg">
<path d="M27.3958 15H72.6042C79.4583 15 85 20.5214 85 27.3504V70.6496C85 77.4786 79.4583 83 72.6042 83H27.3958C20.5417 83 15 77.4786 15 70.6496V27.3504C15 20.5214 20.5417 15 27.3958 15Z" fill="#2B3137"/>
<path d="M40.1323 75.9996C45.7254 75.9996 50.2647 72.0423 50.2647 67.1663V58.333H40.1323C34.5393 58.333 30 62.2903 30 67.1663C30 72.0423 34.5393 75.9996 40.1323 75.9996Z" fill="white"/>
<path d="M30 49.4998C30 44.6238 34.5393 40.6665 40.1323 40.6665H50.2647V58.3331H40.1323C34.5393 58.3331 30 54.3758 30 49.4998Z" fill="white"/>
<path d="M30 31.8333C30 26.9573 34.5393 23 40.1323 23H50.2647V40.6666H40.1323C34.5393 40.6666 30 36.7093 30 31.8333Z" fill="white"/>
<path d="M50.2656 23H60.398C65.991 23 70.5303 26.9573 70.5303 31.8333C70.5303 36.7093 65.991 40.6666 60.398 40.6666H50.2656V23Z" fill="white"/>
<path d="M70.5303 49.4998C70.5303 54.3758 65.991 58.3331 60.398 58.3331C54.8049 58.3331 50.2656 54.3758 50.2656 49.4998C50.2656 44.6238 54.8049 40.6665 60.398 40.6665C65.991 40.6665 70.5303 44.6238 70.5303 49.4998Z" fill="white"/>
</svg>
