<svg width="100" height="100" viewBox="0 0 100 100" fill="none" xmlns="http://www.w3.org/2000/svg">
<path d="M90.7295 56.4696L90.6424 56.4193L85.9756 53.6461C84.9358 53.0281 84.2985 51.908 84.2985 50.6985C84.2985 49.4899 84.94 48.3675 85.9784 47.7492C87.0424 47.1157 88.3696 47.0975 89.4476 47.7068L90.4347 48.2647C90.9646 48.5642 91.2923 49.1259 91.2923 49.7346C91.2923 50.8701 92.52 51.5812 93.5049 51.0162L96.4366 49.3345C97.4037 48.7796 98.0002 47.7498 98.0002 46.6348C98.0002 45.5152 97.3989 44.4819 96.4254 43.9288L92.7616 41.8471C89.6303 40.0679 85.788 40.0878 82.6745 41.898C79.5602 43.7086 77.6426 47.04 77.6426 50.6424C77.6426 54.292 79.6087 57.6584 82.7873 59.4515L84.8467 60.6132C86.6682 61.6407 88.895 61.6379 90.7139 60.6057C92.3161 59.6965 92.3248 57.3909 90.7295 56.4696Z" fill="#2B3137"/>
<path d="M88.7879 48.9445L88.7563 48.9258C88.1406 48.5612 87.3741 48.5657 86.7627 48.9375C86.1848 49.2889 85.832 49.9244 85.832 50.6008C85.832 51.2574 86.1645 51.8771 86.7153 52.2344C87.3497 52.6459 88.1655 52.6508 88.8048 52.247L88.8351 52.2279C89.3934 51.8753 89.732 51.261 89.732 50.6006C89.732 49.9206 89.3731 49.291 88.7879 48.9445Z" fill="#2B3137"/>
<path d="M63.8619 39.7758L65.1532 40.4981C65.4599 40.6696 65.8453 40.5993 66.0716 40.3305V48.7495L64.2789 47.7344C63.201 47.1242 61.8788 47.1387 60.8145 47.7723C59.7698 48.3944 59.1298 49.5204 59.1298 50.7363V50.8296C59.1298 52.0891 59.7855 53.2577 60.8605 53.914L61.5997 54.3654V62.0612L57.4398 59.6101C54.3305 57.7779 52.4219 54.4381 52.4219 50.8291C52.4219 47.1786 54.3742 43.8069 57.5402 41.9897L61.3733 39.7896C62.1428 39.3479 63.0876 39.3427 63.8619 39.7758Z" fill="#2B3137"/>
<path d="M72.5974 28.834L68.8228 26.7132C67.9906 26.2456 67.0521 26 66.0975 26L66.0715 40.3518V48.8536L66.0338 50.8012C66.0088 52.0906 65.3007 53.2696 64.1742 53.8973L63.533 54.2547C62.9379 54.5862 62.2214 54.6177 61.5996 54.3395V62.0614C62.219 62.3548 62.9424 62.3282 63.5386 61.9903L72.3114 57.0175C72.873 56.7055 72.9614 56.0035 72.9354 55.6915C72.9267 47.3283 72.9146 30.4407 72.9354 29.7959C72.9562 29.1511 72.7188 28.8859 72.5974 28.834Z" fill="#2B3137"/>
<path d="M2.65894 44.1994C2.05575 44.553 1.97428 44.8841 2.00895 45.0054V59.3572C1.93094 59.7125 2.37293 60.2412 2.94492 59.7732L8.14483 56.7572C8.32683 56.6966 8.69082 56.4452 8.69082 55.9252V49.2953C8.68215 49.018 8.81042 48.3854 9.39281 48.0734C9.9752 47.7614 10.9528 47.2154 11.3688 46.9814C11.6114 46.7907 12.2944 46.5238 13.0847 46.9814C13.8751 47.439 14.7834 47.9694 15.1387 48.1774C15.3207 48.2987 15.6847 48.6922 15.6847 49.2953V55.9252C15.7055 56.4452 16.0747 56.7485 16.2567 56.8352C17.548 57.5545 20.3698 59.1388 21.3266 59.7212C22.2834 60.3036 22.5746 59.7212 22.6006 59.3572C22.6179 54.7206 22.6422 45.359 22.6006 45.0054C22.559 44.6518 22.0979 44.3208 21.8726 44.1994C19.3593 42.7521 14.1039 39.7275 13.1887 39.2075C12.2736 38.6875 11.5248 38.9909 11.2648 39.2075C8.64749 40.7242 3.26213 43.8458 2.65894 44.1994Z" fill="#2B3137"/>
<path d="M36.7957 39.2338L27.7739 44.4337C27.5918 44.5637 27.1239 44.9277 27.1759 45.7077V55.4575C27.1759 56.3935 27.5139 56.7055 27.7479 56.8095C30.4085 58.3608 35.9065 61.5726 36.6137 62.0094C37.1961 62.4254 37.879 62.1828 38.1477 62.0094C40.8516 60.4321 46.4207 57.1839 47.0655 56.8095C47.6479 56.3727 47.7415 55.7262 47.7155 55.4575C47.7069 52.5109 47.6947 46.4357 47.7155 45.7077C47.7363 44.9797 47.3602 44.5551 47.1695 44.4337C44.4569 42.8651 38.8653 39.629 38.1997 39.2338C37.5341 38.8386 36.9864 39.0692 36.7957 39.2338Z" fill="#2B3137"/>
<path d="M48.2096 83.8235L45.4016 82.1856L47.0916 81.4056C48.5623 82.3168 50.4171 82.3373 51.9076 81.4587L54.3994 79.9899C56.8471 78.5472 58.3494 75.9178 58.3494 73.0765V72.4762C58.3494 69.2689 56.6272 66.3087 53.839 64.7236C51.1061 63.1699 47.7507 63.1735 45.0178 64.7272C42.2354 66.309 40.5038 69.2608 40.4878 72.4613L40.4725 75.5335C40.4658 76.8642 41.1773 78.0951 42.3337 78.7536C44.0737 79.7272 45.0636 77.6784 45.0636 75.6846V68.1458H46.7016V76.4677C46.7016 77.9695 46.8214 79.8327 45.5159 80.5753C44.8246 80.9685 43.9381 80.9206 43.0278 80.639C40.0554 79.7192 38.9277 76.3557 38.9277 73.2442V72.0445C38.9277 68.6016 40.762 65.4194 43.7412 63.6938L44.167 63.4472C47.4233 61.5611 51.4749 61.5815 54.7313 63.4676C57.9309 65.3208 59.9354 68.7584 59.9354 72.456C59.9354 76.1319 57.9883 79.5327 54.8184 81.3937L50.6795 83.8235H48.2096Z" fill="#2B3137"/>
<path d="M50.341 75.8156C49.2802 75.5036 49.0497 74.5243 49.067 74.0736H47.455C47.3684 75.0269 47.8242 77.0116 50.341 77.3236C52.8577 77.6356 54.5096 77.1936 55.0209 76.9336C56.6069 76.2836 57.4908 72.6696 54.4749 72.1237C53.4696 71.9937 51.3081 71.6973 50.705 71.5517C49.951 71.3697 49.405 71.1357 49.561 70.3037C49.6858 69.6381 50.3063 69.4024 50.601 69.3677C51.9009 69.1164 54.5217 69.0869 54.6049 70.9797H56.1909C56.2117 67.6309 52.3516 67.5391 50.419 67.9117C49.4917 68.0244 47.6838 68.7749 47.871 70.8757C47.8086 72.9348 51.6929 73.314 53.6689 73.5276C55.5929 73.7356 54.6829 75.8156 53.6689 75.8936C53.0016 75.9976 51.4018 76.1276 50.341 75.8156Z" fill="#2B3137"/>
</svg>
