<svg width="100" height="100" viewBox="0 0 100 100" fill="none" xmlns="http://www.w3.org/2000/svg">
<path d="M38.0425 16.499L41.1424 21.9599C35.3839 24.7988 31.4014 30.2385 31.4014 36.5961H68.5787C68.5787 30.264 64.5962 24.803 58.842 21.9599L61.9419 16.499C61.9419 16.499 62.1636 16.2801 61.7202 16.0613C61.4984 15.8424 61.2767 16.2801 61.2767 16.2801L57.9551 21.7432C55.3798 20.6005 52.5897 20.0054 49.7662 19.9966C46.9426 20.0054 44.1526 20.6005 41.5773 21.7432L38.2621 16.2823C38.2621 16.2823 38.0425 16.0655 37.8186 16.0655C37.842 16.2315 37.9199 16.3853 38.0404 16.5033L38.0425 16.499ZM41.164 27.1999C42.025 27.1999 42.9335 28.0498 42.9335 28.9465C42.9335 29.8432 42.0724 30.6932 41.164 30.6932C40.9306 30.6966 40.6989 30.6538 40.4827 30.5672C40.2664 30.4807 40.07 30.3521 39.9049 30.1893C39.7399 30.0264 39.6097 29.8325 39.522 29.619C39.4343 29.4055 39.3909 29.1769 39.3944 28.9465C39.3909 28.7162 39.4343 28.4875 39.522 28.2741C39.6097 28.0606 39.7399 27.8667 39.9049 27.7038C40.07 27.5409 40.2664 27.4124 40.4827 27.3258C40.6989 27.2393 40.9306 27.1965 41.164 27.1999ZM58.8678 27.1999C59.7289 27.1999 60.6374 28.0498 60.6374 28.9465C60.6374 29.8432 59.7763 30.6932 58.8678 30.6932C58.6345 30.6966 58.4028 30.6538 58.1866 30.5672C57.9703 30.4807 57.7738 30.3521 57.6088 30.1893C57.4438 30.0264 57.3136 29.8325 57.2259 29.619C57.1382 29.4055 57.0948 29.1769 57.0983 28.9465C57.0948 28.7162 57.1382 28.4875 57.2259 28.2741C57.3136 28.0606 57.4438 27.8667 57.6088 27.7038C57.7738 27.5409 57.9703 27.4124 58.1866 27.3258C58.4028 27.2393 58.6345 27.1965 58.8678 27.1999ZM31.1797 38.7805V66.7439C31.1797 68.0549 32.9492 70.0204 34.2796 70.0204H38.7056V79.6313C38.7056 82.0324 40.4751 84 42.6881 84C44.9011 84 46.6706 82.0345 46.6706 79.6313V70.0162H53.0857V79.627C53.0857 82.0281 54.8552 83.9958 57.0682 83.9958C59.2812 83.9958 61.0507 82.0302 61.0507 79.627V70.0162H65.4766C66.8049 70.0162 68.5766 68.2695 68.5766 66.7396V38.7805H31.1797Z" fill="#2B3137"/>
<path d="M24.9825 38.1255C27.1955 38.1255 28.965 40.091 28.965 42.4942V59.0959C28.965 61.497 27.1955 63.4647 24.9825 63.4647C22.7695 63.4647 21 61.4991 21 59.0959V42.4942C21 40.0931 22.7695 38.1255 24.9825 38.1255Z" fill="#2B3137"/>
<path d="M74.9981 38.1255C77.2111 38.1255 78.9807 40.091 78.9807 42.4942V59.0959C78.9807 61.497 77.2111 63.4647 74.9981 63.4647C72.7852 63.4647 71.0156 61.4991 71.0156 59.0959V42.4942C71.0156 40.0931 72.7852 38.1255 74.9981 38.1255Z" fill="#2B3137"/>
</svg>
