<svg width="88" height="86" viewBox="0 0 88 86" fill="none" xmlns="http://www.w3.org/2000/svg">
<path fill-rule="evenodd" clip-rule="evenodd" d="M17.4393 76.0842V48.081H30.0371C35.3799 49.0336 40.7155 51.9341 46.0583 55.2931H55.8415C60.2676 55.5581 62.5952 60.0486 58.2838 62.9993C54.8532 65.5203 50.3269 65.3699 45.6859 64.9545C42.4846 64.797 42.3485 69.0941 45.6859 69.1084C46.8462 69.2015 48.1067 68.9294 49.2024 68.9294C54.9964 68.9222 59.7591 67.8121 62.6812 63.2428L64.1422 59.8194L78.6953 52.6074C85.9789 50.2081 91.1498 57.8284 85.7856 63.1282C75.2432 70.7987 64.4359 77.1083 53.3778 82.2076C45.3493 87.092 37.3136 86.9273 29.2851 82.2076L17.4393 76.0842ZM54.624 8.03153C58.3697 4.13544 60.991 0.755015 66.7563 0.0961181C77.5852 -1.15006 87.5402 9.93661 82.0757 20.8514C81.0515 22.8925 79.3398 25.1843 77.2915 27.5406V27.2541H63.9846H63.2756L62.7815 27.7698L60.5469 30.0831L55.9275 21.2166L54.3948 18.2731L52.9266 21.2524L48.7441 29.7393L44.5973 23.7233L43.1363 21.6105L41.7827 23.7949L39.8418 26.939H31.3119C28.4114 22.9498 26.3702 18.6455 26.2055 13.9974C25.9047 5.48905 32.6154 0.0459846 40.336 0.146252C47.2329 0.232195 50.1335 3.66276 54.624 8.03153ZM74.4769 30.6274C74.2692 30.8494 74.0543 31.0643 73.8466 31.2863C67.673 37.6819 60.9766 43.8985 54.6312 50.1938C47.9849 43.7982 39.9277 37.0517 34.0263 30.3051H40.78H41.7111L42.2052 29.503L43.2867 27.7483L47.5982 34.0078L49.2168 36.3641L50.4773 33.8001L54.4521 25.7215L58.606 33.707L59.6803 35.7697L61.2989 34.0938L64.665 30.6274H74.4769ZM0 45.3881H13.6435V78.8988H0V45.3881Z" fill="#2B3137"/>
</svg>
