<svg width="88" height="91" viewBox="0 0 88 91" fill="none" xmlns="http://www.w3.org/2000/svg">
<path d="M78.5844 56.3193C78.7025 56.3193 78.8133 56.3341 78.9241 56.3489C79.6478 55.0934 80.3051 53.7714 80.8959 52.3904C80.9107 52.3609 80.9181 52.3387 80.9329 52.3092C81.8265 50.2044 82.4985 48.0184 82.949 45.7511C83.3035 43.9935 83.5177 42.1915 83.5989 40.3452H72.9716C72.7796 45.7438 71.1697 51.0611 68.1639 56.3119H78.5844V56.3193ZM8.16675 82.3521C8.17414 80.491 9.23022 78.6742 10.9436 76.6433L1.00314 70.3585C0.375397 70.0853 0.390168 69.7013 0.752041 69.2508L2.85682 67.4562C3.24084 67.2198 3.64703 67.1164 4.08275 67.242L16.3569 69.3172L24.3403 60.4846L0.47879 44.3258C-0.126794 43.9713 -0.178491 43.5725 0.441864 43.1073L3.88335 40.36L35.0045 49.104L44.199 39.2743C47.286 36.6083 50.277 35.4119 52.5812 35.9806C53.8514 36.2907 54.2945 36.6748 54.686 37.8638C55.4466 40.1975 54.265 43.3288 51.4734 46.5561L41.6511 55.7433L50.3952 86.8644L47.6479 90.3059C47.1826 90.9262 46.7838 90.8745 46.4293 90.2763L30.2706 66.4075L21.4379 74.3908L23.5131 86.665C23.6313 87.1007 23.5353 87.5069 23.299 87.8909L21.5044 89.9957C21.0539 90.3576 20.6699 90.3724 20.3966 89.7446L14.1118 79.8042C12.0661 81.5249 10.2494 82.581 8.38831 82.581C8.20368 82.5736 8.16675 82.5145 8.16675 82.3521ZM76.7307 59.7091H66.0222C63.0903 63.9556 59.2426 68.1578 54.4866 72.3082L53.4674 68.6895C56.7612 65.7059 59.5528 62.7149 61.8496 59.7091H50.9417L50.3804 57.7151L51.8722 56.3193H64.2202C67.5731 51.0389 69.3751 45.7142 69.5892 40.3526H63.1124C63.2823 39.2079 63.3045 38.0706 63.1715 36.9628H69.5154C69.0723 31.7193 67.13 26.402 63.6516 20.996H50.0555V27.687C48.9994 27.8643 47.9433 28.167 46.8798 28.5806C46.806 28.6102 46.7395 28.6397 46.6657 28.6692V21.0034H33.0696C29.5911 26.402 27.6488 31.7267 27.2057 36.9702H36.2156L33.0474 40.36H33.0031L20.9431 36.9702H23.8233C24.2147 31.6824 25.9724 26.3651 29.1111 21.0034H17.7822C17.0659 22.2515 16.416 23.5587 15.8252 24.925C15.8104 24.9545 15.803 24.9767 15.7883 25.0062C14.8946 27.111 14.2226 29.297 13.7721 31.5642C13.5579 32.6351 13.3955 33.7133 13.2773 34.8137L9.96874 33.8832C10.0869 32.8788 10.2494 31.8818 10.4414 30.8996C10.9362 28.4255 11.6821 26.018 12.6717 23.6769C12.6865 23.6473 12.6939 23.6178 12.7086 23.5809C13.713 21.2471 14.902 19.0537 16.2831 16.9933C17.6641 14.9402 19.2297 13.0348 20.98 11.2919C22.7229 9.54164 24.6283 7.97599 26.6814 6.59496C28.7418 5.21393 30.9426 4.01753 33.269 3.02054H33.2763C35.6396 2.00877 38.0767 1.25548 40.5803 0.753288C43.1134 0.251096 45.6982 0 48.3643 0C51.0229 0 53.6151 0.251096 56.1261 0.753288C58.6001 1.24809 61.0077 1.994 63.3488 2.98361C63.3783 2.99838 63.4152 3.00577 63.4448 3.02054C65.7785 4.02492 67.9719 5.21393 70.0323 6.59496C72.0928 7.97599 73.9908 9.54164 75.7337 11.2919C77.4914 13.0348 79.0496 14.9402 80.4307 16.9933C81.8117 19.0537 83.0081 21.2545 84.0051 23.5809V23.5882C85.0169 25.9515 85.7701 28.3886 86.2723 30.8922C86.7745 33.4031 87.0256 35.9953 87.0256 38.654C87.0256 41.3127 86.7745 43.9048 86.2723 46.4158C85.7775 48.8898 85.0316 51.2974 84.042 53.6311C84.0346 53.6607 84.0199 53.6902 84.0051 53.7271C83.0007 56.0608 81.8117 58.2542 80.4307 60.3147C79.0496 62.3678 77.4914 64.2732 75.7337 66.0161C73.9834 67.7663 72.0854 69.332 70.0323 70.713C67.9719 72.0941 65.7711 73.2904 63.4448 74.2874H63.4374C61.0741 75.2992 58.637 76.0525 56.1335 76.5547C55.9931 76.5842 55.8528 76.6064 55.7199 76.6359L54.7967 73.3643C55.0183 73.3274 55.2472 73.2831 55.4688 73.2388C57.7656 72.7809 59.9811 72.094 62.1081 71.1857C64.2719 70.2551 66.2881 69.1621 68.1565 67.914C70.025 66.6586 71.7531 65.2332 73.3483 63.638L73.3557 63.6306C74.5742 62.4121 75.7042 61.1049 76.7307 59.7091ZM19.9904 17.6136H31.275C34.4875 12.9831 38.7414 8.32309 44.0439 3.6335C43.106 3.74428 42.1755 3.89199 41.2523 4.07661C38.9555 4.5345 36.7474 5.22132 34.6131 6.12969C32.4492 7.06023 30.4331 8.15323 28.5646 9.40132C26.6962 10.6568 24.968 12.0821 23.3728 13.6773L23.3654 13.6847C22.1469 14.9107 21.017 16.2252 19.9904 17.6136ZM52.6698 3.6335C57.9724 8.32309 62.2262 12.9757 65.4388 17.6136H76.7307C75.7042 16.2252 74.5742 14.9107 73.3483 13.6847L73.3409 13.6773C71.7531 12.0821 70.0176 10.6568 68.1491 9.40132C66.2807 8.15323 64.2645 7.06023 62.1007 6.12969C62.0711 6.11492 62.049 6.10754 62.0194 6.09277C59.9147 5.19916 57.7286 4.52711 55.4614 4.07661C54.5456 3.89199 53.6151 3.74428 52.6698 3.6335ZM78.9315 21.0034H67.61C70.7561 26.3577 72.5064 31.6824 72.8978 36.9702H83.5915C83.5103 35.1239 83.2887 33.3219 82.9416 31.5642C82.4837 29.2674 81.7969 27.0593 80.8885 24.925C80.2977 23.5587 79.6552 22.2515 78.9315 21.0034ZM50.0555 5.83429V17.6136H61.2735C58.3269 13.729 54.59 9.80012 50.0555 5.83429ZM46.6657 17.6136V5.83429C42.1312 9.80012 38.3943 13.729 35.4476 17.6136H46.6657Z" fill="#2B3137"/>
</svg>
