<svg width="100" height="100" viewBox="0 0 100 100" fill="none" xmlns="http://www.w3.org/2000/svg">
<path d="M83.7707 34.8061V32.742C83.7707 31.2512 83.656 29.7605 83.4267 28.2698C83.1973 26.7791 82.7386 25.403 82.0506 24.027C81.3626 22.6509 80.4452 21.5042 79.4132 20.3575C78.3379 19.289 77.0992 18.3987 75.7437 17.7201C74.3676 17.032 72.9916 16.5733 71.5008 16.344C70.0101 16.1147 68.5194 16 67.0287 16H31.4806C30.3339 16 29.1872 16.1147 28.1551 16.344C27.0084 16.5733 25.9764 16.8027 24.9444 17.2614C24.6003 17.376 24.2563 17.6054 23.9123 17.7201C22.8803 18.1788 21.9629 18.8668 21.1602 19.5548C20.9309 19.7841 20.5869 20.0135 20.3575 20.3575C19.289 21.4327 18.3987 22.6715 17.7201 24.027C17.032 25.403 16.5734 26.7791 16.344 28.2698C16.1147 29.7605 16 31.2512 16 32.742V67.258C16 68.7487 16.1147 70.2394 16.344 71.7302C16.5734 73.2209 17.032 74.597 17.7201 75.973C18.4081 77.3491 19.3255 78.4958 20.3575 79.6425C21.4328 80.711 22.6715 81.6013 24.027 82.2799C25.403 82.968 26.7791 83.4267 28.2698 83.656C29.7605 83.8853 31.2513 84 32.742 84H67.1433C68.6341 84 70.1248 83.8853 71.6155 83.656C73.1063 83.4267 74.4823 82.968 75.8584 82.2799C77.2344 81.5919 78.3811 80.6745 79.5278 79.6425C80.5964 78.5673 81.4867 77.3285 82.1653 75.973C82.8533 74.597 83.312 73.2209 83.5413 71.7302C83.7707 70.2394 83.8853 68.7487 83.8853 67.258V37.3288C83.7707 36.4114 83.7707 35.6088 83.7707 34.8061Z" fill="#2B3137"/>
<path d="M69.665 57.9701C69.7797 57.7407 69.7797 57.3967 69.8944 57.1674C72.7611 45.9296 65.7662 32.6278 54.1844 25.6328C59.3446 32.5131 61.5234 40.9987 59.574 48.3377C59.3446 49.0257 59.2299 49.5991 58.8859 50.2871C58.6566 50.1724 58.3126 49.9431 57.8539 49.7138C57.8539 49.7138 46.2721 42.4895 33.6583 29.8756C33.3142 29.5316 40.4239 39.9667 48.3362 48.3377C44.552 46.2736 34.117 38.5907 27.466 32.5131C28.2687 33.8891 29.3008 35.1505 30.3328 36.4119C35.837 43.4068 43.0613 52.1218 51.7763 58.7728C45.6987 62.4423 37.0984 62.7863 28.4981 58.7728C26.434 57.7407 24.3699 56.594 22.5352 55.218C26.2046 61.0662 31.7089 65.9971 38.5891 68.9785C46.7308 72.4186 54.7578 72.1893 60.7207 69.0932H60.8353C61.0647 68.9785 61.294 68.8638 61.5234 68.6345C64.3901 67.1438 70.1237 65.6531 73.2198 71.616C73.9078 72.8773 75.5133 65.0797 69.665 57.9701Z" fill="white"/>
</svg>
