<svg width="100" height="100" viewBox="0 0 100 100" fill="none" xmlns="http://www.w3.org/2000/svg">
<path d="M17.4897 55.2045C20.3185 55.2045 22.4304 54.707 23.7664 53.7265C25.0883 52.7561 26.0013 51.0742 26.4799 48.7285C26.9261 46.5359 26.7561 45.0049 25.9748 44.1787C25.176 43.3349 23.4489 42.9069 20.8416 42.9069H16.3211L13.8146 55.2047H17.4894L17.4897 55.2045ZM2.70317 70.3531C2.49332 70.3531 2.29403 70.2636 2.16062 70.1089C2.09465 70.0326 2.04719 69.9433 2.02165 69.8474C1.99612 69.7515 1.99313 69.6515 2.0129 69.5544L8.65491 36.9653C8.68609 36.8125 8.77204 36.6748 8.89802 36.5758C9.024 36.4768 9.18217 36.4226 9.34542 36.4226H23.6606C28.1596 36.4226 31.5083 37.5853 33.6131 39.8855C35.7292 42.1952 36.3826 45.4244 35.5552 49.4822C35.2185 51.1355 34.6394 52.6707 33.8342 54.0458C33.0276 55.422 31.9622 56.6954 30.6665 57.8313C29.1153 59.2158 27.3596 60.2197 25.4529 60.8104C23.5765 61.3934 21.1668 61.6892 18.2904 61.6892H12.4939L10.8385 69.8106C10.8074 69.9634 10.7215 70.1012 10.5956 70.2002C10.4696 70.2993 10.3115 70.3535 10.1482 70.3535H2.70317V70.3531Z" fill="#2B3137"/>
<path d="M55.0525 62.9304C54.8424 62.9304 54.6433 62.841 54.5099 62.6863C54.3765 62.5315 54.3218 62.3285 54.3622 62.1318L57.3001 47.7121C57.5795 46.3408 57.5106 45.3565 57.1062 44.9406C56.8586 44.6864 56.1148 44.26 53.9157 44.26H48.5928L44.8988 62.3873C44.8677 62.5402 44.7817 62.6779 44.6558 62.777C44.5298 62.876 44.3716 62.9302 44.2083 62.9302H36.8226C36.7188 62.9302 36.6164 62.9083 36.5225 62.8661C36.4287 62.8239 36.3458 62.7625 36.2798 62.6861C36.2138 62.6098 36.1664 62.5205 36.1408 62.4246C36.1153 62.3287 36.1123 62.2286 36.132 62.1315L42.7741 29.5425C42.8052 29.3896 42.8912 29.2519 43.0172 29.1529C43.1431 29.0539 43.3013 28.9998 43.4646 28.9998H50.8503C50.9541 28.9998 51.0565 29.0217 51.1503 29.0639C51.2442 29.1061 51.3271 29.1675 51.3931 29.2439C51.459 29.3202 51.5065 29.4095 51.5321 29.5054C51.5576 29.6013 51.5606 29.7014 51.5408 29.7985L49.938 37.6641H55.6642C60.0265 37.6641 62.9843 38.3975 64.7076 39.9063C66.4661 41.4456 67.0117 43.9065 66.3365 47.2224L63.2462 62.3878C63.215 62.5406 63.1291 62.6784 63.0031 62.7774C62.8771 62.8765 62.719 62.9307 62.5557 62.9307L55.0525 62.9304Z" fill="#2B3137"/>
<path d="M79.757 55.3563C82.5858 55.3563 84.6977 54.8588 86.0337 53.8783C87.3556 52.9079 88.2686 51.2265 88.7474 48.8803C89.1936 46.6877 89.0236 45.1568 88.2421 44.3306C87.4433 43.4867 85.7162 43.0588 83.1089 43.0588H78.5884L76.0819 55.3565H79.7567L79.757 55.3563ZM64.9709 70.5049C64.7611 70.5049 64.5618 70.4155 64.4284 70.2608C64.3624 70.1844 64.3149 70.0952 64.2893 69.9993C64.2637 69.9034 64.2607 69.8034 64.2804 69.7062L70.9224 37.1172C70.9536 36.9643 71.0396 36.8266 71.1656 36.7276C71.2917 36.6285 71.4499 36.5744 71.6132 36.5745H85.9282C90.4276 36.5745 93.7758 37.7372 95.8809 40.0373C97.997 42.3471 98.65 45.5758 97.823 49.634C97.4858 51.2873 96.9069 52.8225 96.1015 54.1976C95.2949 55.5739 94.2295 56.8472 92.9338 57.9831C91.3826 59.3676 89.6269 60.3716 87.7202 60.9623C85.8438 61.5452 83.4341 61.841 80.5577 61.841H74.7605L73.1058 69.9625C73.0747 70.1154 72.9887 70.2532 72.8627 70.3522C72.7366 70.4513 72.5784 70.5054 72.4151 70.5054H64.9707L64.9709 70.5049Z" fill="#2B3137"/>
</svg>
