<svg width="100" height="100" viewBox="0 0 100 100" fill="none" xmlns="http://www.w3.org/2000/svg">
<path d="M20.8025 50C20.8025 61.5812 27.4537 71.5581 37.165 76.2395L23.3907 38.1744C21.7906 41.8698 20.8025 45.8138 20.8025 50ZM69.7094 48.521C69.7094 44.951 68.3536 42.3585 67.2444 40.514C65.7654 38.049 64.4118 36.0791 64.4118 33.6163C64.4118 30.9069 66.507 28.4419 69.3417 28.4419H69.7115C64.535 23.6373 57.6373 20.8025 50 20.8025C45.168 20.8453 40.4198 22.0686 36.1687 24.366C31.9176 26.6634 28.2926 29.9652 25.6093 33.9839H27.458C30.5393 33.9839 35.2185 33.6141 35.2185 33.6141C36.8207 33.4909 36.944 35.8305 35.465 36.0791C35.465 36.0791 33.8628 36.3256 32.1394 36.3256L42.7346 67.8606L49.1394 48.7654L44.5813 36.3235L41.5 36.0812C39.8978 35.958 40.1443 33.6163 41.6233 33.6163C41.6233 33.6163 46.4258 33.986 49.2605 33.986C52.3418 33.986 57.021 33.6163 57.021 33.6163C58.6233 33.493 58.7465 35.8326 57.2675 36.0812C57.2675 36.0812 55.6652 36.3278 53.9419 36.3278L64.535 67.7438L67.51 58.0113C68.7425 53.9461 69.7264 51.1135 69.7264 48.5252L69.7094 48.521ZM50.493 52.5861L41.7465 77.965C44.3326 78.7045 47.1653 79.1975 50 79.1975C53.4489 79.1975 56.6512 78.56 59.7325 77.5953C59.6092 77.472 59.6093 77.3488 59.486 77.2255L50.493 52.5861ZM75.6233 36.0812L75.8698 39.0563C75.8698 42.0313 75.3768 45.3399 73.6534 49.5283L64.7836 75.2747C73.4069 70.2236 79.3186 60.8609 79.3186 50.0213C79.1954 44.9701 77.8396 40.2887 75.6211 36.1025L75.6233 36.0812ZM50 16C31.2745 16 16 31.2745 16 50C16 68.7255 31.2745 84 50 84C68.7255 84 84 68.7255 84 50C84 31.2745 68.7255 16 50 16ZM50 82.521C32.1373 82.521 17.6022 67.986 17.6022 50C17.6157 41.4117 21.0334 33.1791 27.1062 27.1062C33.1791 21.0334 41.4117 17.6157 50 17.6022C58.5883 17.6157 66.8209 21.0334 72.8938 27.1062C78.9666 33.1791 82.3843 41.4117 82.3978 50C82.3978 67.986 67.8628 82.521 50 82.521Z" fill="#2B3137"/>
</svg>
