<svg width="100" height="100" viewBox="0 0 100 100" fill="none" xmlns="http://www.w3.org/2000/svg">
<path d="M44.6 33.8257C43.8161 33.8257 43.0206 33.9027 42.2224 34.0544C40.1343 34.4478 38.0135 35.3468 35.875 36.7069C36.4591 37.2832 37.0147 37.9426 37.5376 38.6625C39.7123 36.8582 41.8732 35.525 44.0255 34.7235C44.8112 34.4296 45.6209 34.2045 46.4455 34.0509C45.8421 33.8992 45.2222 33.8235 44.6 33.8257Z" fill="#2B3137"/>
<path d="M46.4451 34.0501C45.8417 33.8985 45.2217 33.823 44.5996 33.8252L48.686 33.8403C47.9429 33.8403 47.1932 33.9096 46.4451 34.0497" fill="#2B3137"/>
<path d="M34.8068 37.4189C34.5024 37.6356 34.2015 37.8571 33.9043 38.0834C34.2997 38.9461 34.6651 39.9143 35.0067 40.9645C35.4473 40.5315 35.8956 40.1063 36.3512 39.6891C35.8711 38.8641 35.3609 38.1023 34.8068 37.4189Z" fill="#2B3137"/>
<path d="M35.874 36.7074C35.5131 36.9368 35.1572 37.174 34.8066 37.4188C35.3611 38.1022 35.8713 38.864 36.353 39.6906C36.7403 39.3394 37.1351 38.9967 37.5373 38.6627C37.0145 37.9432 36.4585 37.2833 35.874 36.707" fill="#2B3137"/>
<path d="M30.8496 40.7048C31.8199 39.7765 32.8397 38.9013 33.9045 38.0832C33.6879 37.6016 33.4449 37.1322 33.1768 36.6772C32.3567 37.6724 31.607 38.9855 30.8496 40.7048Z" fill="#2B3137"/>
<path d="M31.5862 34.7022C32.1719 35.1934 32.6963 35.8686 33.1765 36.6782C33.3278 36.4923 33.4806 36.3206 33.6397 36.1601C32.9735 35.5383 32.2535 35.0282 31.4727 34.644C31.5042 34.6614 31.5358 34.6756 31.5685 34.6895C31.5685 34.6895 31.5809 34.7018 31.5862 34.7018" fill="#2B3137"/>
<path d="M33.6386 36.1602C33.4796 36.3222 33.3286 36.4924 33.1758 36.6783C33.4441 37.1333 33.6875 37.6025 33.905 38.0839C34.2022 37.8577 34.5029 37.6363 34.8072 37.4198C34.4476 36.9731 34.0571 36.5522 33.6386 36.1602Z" fill="#2B3137"/>
<path d="M6.91607 62.9956C5.45292 65.8151 3.85308 68.8191 2.07227 71.9947H5.19148C5.5854 68.9637 6.1613 65.9591 6.91607 62.9971" fill="#2B3137"/>
<path d="M50.1914 71.0009C50.9773 71.0009 51.7708 70.9239 52.5679 70.771C53.3048 70.6374 54.0433 70.4322 54.7834 70.1743C55.4006 70.4774 56.0541 70.7001 56.7279 70.8372C57.2742 70.9476 57.8304 71.0024 58.3878 71.0009H50.1914Z" fill="#2B3137"/>
<path d="M58.3882 71.0011C60.3284 71.0011 61.8651 70.7713 63.1704 70.1445C63.965 70.575 64.8347 70.8493 65.7325 70.9526C65.8711 70.9661 66.0082 70.9788 66.1514 70.9888H66.1768C66.2411 70.9888 66.3093 70.9888 66.3786 71.0015H66.6138H58.3828L58.3882 71.0011Z" fill="#2B3137"/>
<path d="M66.6191 71.0007H67.0681C67.0951 71.0007 67.1197 71.0007 67.1451 70.9884C67.194 70.9884 67.246 70.9884 67.298 70.9757H67.3723C67.4239 70.9757 67.4805 70.9634 67.5344 70.9584H67.5482C67.5648 70.9584 67.581 70.9461 67.5975 70.9461C67.6553 70.9334 67.7157 70.9284 67.7723 70.9191C67.7912 70.9191 67.8062 70.9191 67.8262 70.9068C67.8905 70.8945 67.9572 70.888 68.0234 70.8756H68.055C68.187 70.8502 68.316 70.8252 68.4469 70.7925C68.8315 70.9342 69.2384 71.0057 69.6483 71.0034L66.6218 71.0158L66.6191 71.0007Z" fill="#2B3137"/>
<path d="M28.7309 33.8688C28.7482 33.8688 28.7636 33.8688 28.7809 33.8811C28.8233 33.8811 28.8656 33.8811 28.9084 33.895H28.9507C29.0281 33.9073 29.1055 33.9142 29.184 33.9254C29.1983 33.9254 29.211 33.9254 29.2233 33.9377C29.288 33.95 29.3542 33.9608 29.4201 33.9704C29.4347 33.9704 29.4532 33.9831 29.469 33.9831C29.6203 34.0132 29.7747 34.0447 29.9226 34.0836C29.9368 34.0836 29.951 34.0963 29.9634 34.0963C30.0265 34.1113 30.0831 34.1302 30.1463 34.1479C30.1655 34.1479 30.1794 34.1602 30.1963 34.1633C30.2706 34.1822 30.3399 34.201 30.4123 34.2249C30.4154 34.2249 30.42 34.2249 30.4281 34.2372C30.4897 34.2561 30.5525 34.2799 30.6172 34.3015C30.6426 34.3138 30.6661 34.3192 30.6896 34.3254C30.7338 34.3446 30.7827 34.3631 30.8251 34.3808C30.8505 34.3808 30.8751 34.3985 30.9021 34.4078C30.9602 34.4339 31.0215 34.4578 31.0815 34.4828C31.1131 34.4955 31.1397 34.5098 31.1701 34.5209C31.2047 34.5386 31.2405 34.5548 31.2783 34.5671C31.3099 34.5825 31.3445 34.5987 31.3745 34.6126C31.4077 34.6307 31.4388 34.6441 31.4708 34.6618C32.2517 35.046 32.9713 35.5577 33.6374 36.1782C33.876 35.9271 34.1327 35.694 34.4056 35.4807C32.949 34.4474 31.2991 33.8584 29.395 33.8584C29.1748 33.8584 28.9542 33.8711 28.7305 33.8877" fill="#2B3137"/>
<path d="M33.6391 36.1599C34.0575 36.5519 34.448 36.9728 34.8077 37.4195C35.1578 37.1738 35.5137 36.9363 35.875 36.7073C35.4217 36.251 34.9301 35.8343 34.4057 35.4619C34.1328 35.6748 33.8764 35.908 33.6387 36.1595" fill="#2B3137"/>
<path d="M28.7303 33.8686C28.9536 33.8498 29.1742 33.8417 29.3949 33.8417C31.2985 33.8417 32.9488 34.4307 34.4054 35.4624C35.9425 34.2497 37.8003 33.8263 40.3812 33.8263H27.8828C28.1716 33.8263 28.4531 33.8436 28.7303 33.8686Z" fill="#2B3137"/>
<path d="M40.3821 33.8259C37.8012 33.8259 35.9433 34.2494 34.4062 35.462C34.9299 35.8347 35.4209 36.2512 35.874 36.707C38.0137 35.3469 40.1333 34.4461 42.2233 34.0527C43.0065 33.9037 43.8018 33.8278 44.599 33.8259H40.3821Z" fill="#2B3137"/>
<path d="M35.0082 40.9649C38.5367 51.7541 39.8736 71.0011 50.1926 71.0011C50.9781 71.0011 51.7721 70.9241 52.5687 70.7725C43.1884 68.5858 42.0764 49.5482 36.3528 39.6895C35.8962 40.1058 35.4478 40.531 35.0078 40.9649" fill="#2B3137"/>
<path d="M36.3516 39.6894C42.0756 49.5482 43.1872 68.5858 52.5675 70.7724C53.3045 70.6373 54.043 70.4325 54.783 70.1742C46.3634 66.05 44.0362 47.5629 37.5356 38.6631C37.1343 38.9977 36.7396 39.34 36.3516 39.6898" fill="#2B3137"/>
<path d="M61.3575 66.3724C62.2545 65.6559 63.1184 64.8989 63.9465 64.1037C60.361 53.3646 59.0777 33.8423 48.6862 33.8423C47.9431 33.8423 47.1934 33.9116 46.4453 34.0502C55.9108 36.4039 57.1232 56.9937 61.3579 66.3724" fill="#2B3137"/>
<path d="M61.1745 68.6535C60.7683 68.2662 60.3825 67.8412 60.0028 67.3877C58.2547 68.625 56.5136 69.5636 54.7832 70.1741C55.4008 70.4774 56.0548 70.7002 56.7292 70.837C57.275 70.9475 57.8306 71.0025 58.3876 71.001C60.3289 71.001 61.8645 70.7712 63.1713 70.1445C62.4517 69.7557 61.7917 69.2513 61.1745 68.6535Z" fill="#2B3137"/>
<path d="M44.0254 34.725C52.5032 39.1584 53.2402 59.2354 60.0049 67.3876C60.4653 67.0624 60.916 66.7237 61.3564 66.372C57.1218 56.9933 55.9108 36.402 46.4473 34.0498C45.6221 34.2051 44.8119 34.431 44.0254 34.725Z" fill="#2B3137"/>
<path d="M37.5352 38.663C44.0354 47.5628 46.363 66.0495 54.7826 70.1741C56.5134 69.5635 58.2549 68.6249 60.0026 67.3876C53.2379 59.2355 52.5009 39.1584 44.0231 34.7251C41.8707 35.5251 39.7099 36.8582 37.5352 38.6626" fill="#2B3137"/>
<path d="M30.8491 40.7048C29.8303 43.0081 28.7896 46.0355 27.5312 49.9872C30.0336 46.4624 32.5279 43.425 35.0083 40.965C34.6668 39.9148 34.2999 38.9466 33.9044 38.0835C32.8396 38.9017 31.8198 39.7769 30.8495 40.7052" fill="#2B3137"/>
<path d="M93.7031 33.0042C88.9082 51.4925 78.8934 66.342 70.4968 70.0859H70.4814C70.3285 70.1552 70.1772 70.2183 70.0278 70.2795C70.007 70.2922 69.9881 70.2937 69.9724 70.3011C69.9285 70.3188 69.8876 70.3326 69.8434 70.3503C69.8226 70.3627 69.8041 70.3669 69.7852 70.3742C69.7144 70.3996 69.6451 70.4208 69.5758 70.4485C69.5457 70.4612 69.5176 70.4689 69.4891 70.4789C69.4551 70.492 69.4204 70.5033 69.3852 70.5128C69.3536 70.5251 69.3205 70.5344 69.2843 70.5482C69.2543 70.5605 69.2227 70.5659 69.1946 70.5782C69.133 70.5959 69.0768 70.611 69.0151 70.6321C68.9897 70.6321 68.9662 70.646 68.9397 70.6529C68.9016 70.6652 68.8588 70.6741 68.818 70.6856C68.7899 70.698 68.7664 70.7022 68.7364 70.7084C68.694 70.7207 68.6467 70.7322 68.6039 70.7422L68.4434 70.7777C68.8279 70.9194 69.2348 70.9909 69.6447 70.9886C77.6065 70.9886 85.6339 56.7231 98.9166 33H93.7012L93.7031 33.0042Z" fill="#2B3137"/>
<path d="M25.802 34.5764C25.807 34.5764 25.8135 34.564 25.8162 34.564C25.8228 34.564 25.8324 34.564 25.8355 34.5517H25.8455C25.8894 34.5363 25.9302 34.519 25.9745 34.5025C25.986 34.5025 25.9918 34.5025 25.9999 34.4901C26.0111 34.4901 26.0218 34.4774 26.033 34.4759C26.08 34.4609 26.1273 34.4432 26.1716 34.427H26.1789C26.2844 34.3954 26.3822 34.3562 26.4843 34.3196C26.4989 34.3196 26.5128 34.3073 26.5301 34.3073C26.5724 34.2934 26.6167 34.2784 26.661 34.2684C26.6814 34.2557 26.7018 34.2557 26.7207 34.2491C26.7661 34.2357 26.8104 34.2203 26.8528 34.2103C26.872 34.2103 26.8889 34.1976 26.9032 34.1964C27.0495 34.156 27.1947 34.1183 27.341 34.0832C27.3614 34.0832 27.3787 34.0705 27.4007 34.0694C27.443 34.057 27.4827 34.0501 27.5285 34.044C27.5474 34.0316 27.5693 34.0316 27.5913 34.0251C27.6336 34.0128 27.6748 34.0112 27.7206 34.0012H27.7503C27.8388 33.9831 27.9286 33.9685 28.0167 33.9519H28.0703C28.1126 33.9396 28.1503 33.9381 28.1931 33.9304C28.2162 33.9304 28.2401 33.9181 28.2624 33.9181C28.3017 33.9181 28.3409 33.9054 28.3802 33.9004C28.401 33.9004 28.421 33.9004 28.4449 33.8877C28.5377 33.8753 28.6336 33.8703 28.7314 33.8626C28.4499 33.8343 28.1672 33.8196 27.8843 33.8184C18.9182 33.8184 6.5646 50.4518 1 71.9925H2.07234C3.85315 68.8173 5.45299 65.8134 6.91614 62.9934C10.8131 47.7359 18.7511 37.3308 25.8024 34.5741" fill="#2B3137"/>
<path d="M6.91602 62.995C15.092 47.2431 18.9655 37.2738 25.8026 34.5752C18.7529 37.3339 10.8134 47.7389 6.9164 62.995" fill="#2B3137"/>
<path d="M10.626 71.9232C10.5756 71.9359 10.5252 71.9359 10.4778 71.9409H10.4497C10.407 71.9409 10.3627 71.9536 10.3234 71.9536H10.303C10.2006 71.9659 10.0997 71.9659 10.0023 71.9736H9.9707C18.2456 71.7423 22.0279 67.6 23.9053 61.5921C25.3319 57.0375 26.5032 53.2005 27.5301 49.981C24.0639 54.8585 20.5824 60.6728 17.082 67.1861C15.394 70.3252 12.8273 71.6364 10.6257 71.9174" fill="#2B3137"/>
<path d="M10.6273 71.9201C12.8286 71.6398 15.3953 70.3301 17.0833 67.1888C20.5837 60.6774 24.0672 54.8616 27.5294 49.984C28.7893 46.0303 29.8289 43.0045 30.8493 40.7012C23.9474 47.2696 17.0186 58.1912 10.627 71.917" fill="#2B3137"/>
<path d="M28.4445 33.8959C28.4191 33.8959 28.4002 33.9082 28.3783 33.9082C28.3405 33.9209 28.3012 33.9209 28.2616 33.9247C28.2385 33.9247 28.2162 33.9247 28.1923 33.9374C28.1499 33.9498 28.1107 33.9509 28.0695 33.959C28.0506 33.959 28.0317 33.959 28.0159 33.9713C27.9262 33.9863 27.838 34.0029 27.7503 34.0179H27.7202C27.6744 34.0306 27.6332 34.0371 27.5908 34.0433C27.5689 34.0556 27.547 34.0556 27.5262 34.0606C27.4838 34.0733 27.4415 34.0783 27.4003 34.086C27.3783 34.0983 27.361 34.0983 27.3406 34.0995C27.1943 34.1349 27.0491 34.1726 26.9028 34.2131C26.8874 34.2131 26.8712 34.2254 26.8523 34.2281C26.8084 34.2404 26.7657 34.2531 26.7199 34.267C26.701 34.2797 26.6791 34.2797 26.6602 34.2847C26.6163 34.2968 26.5727 34.3098 26.5293 34.3236C26.5124 34.3236 26.4981 34.3359 26.4823 34.3359C26.3814 34.3736 26.2821 34.4117 26.1781 34.4429C26.1342 34.4568 26.0869 34.4745 26.0395 34.491C26.0207 34.5033 26.0037 34.5064 25.9818 34.5149C25.9375 34.5287 25.8932 34.5465 25.8524 34.5626C25.837 34.5753 25.8208 34.5765 25.81 34.583C18.9729 37.2817 15.099 47.2505 6.92343 63.0024C6.16799 65.9643 5.59221 68.9691 5.19922 72.0004H5.63701C6.86991 72.0004 7.21798 71.9877 8.63647 71.9877H10.0115C10.1089 71.9753 10.2097 71.9753 10.3118 71.9673H10.331C10.3734 71.9673 10.4157 71.9549 10.4569 71.9549H10.487C10.5324 71.9549 10.5844 71.9426 10.6348 71.9372C17.0265 58.2114 23.9549 47.2898 30.8571 40.7214C31.6157 39.0025 32.3638 37.6894 33.1828 36.6958C32.7038 35.8865 32.1794 35.2098 31.5937 34.7185C31.0081 34.2273 31.5779 34.7185 31.5768 34.7058C31.5433 34.6924 31.5121 34.6758 31.479 34.6596C31.4459 34.6415 31.4174 34.6277 31.3827 34.6104C31.3505 34.5968 31.3191 34.5816 31.2884 34.5649C31.2476 34.5522 31.2145 34.5345 31.1783 34.5184C31.1482 34.5057 31.1217 34.4929 31.0916 34.4806C31.0306 34.457 30.9703 34.4317 30.9107 34.4048C30.8837 34.3925 30.8587 34.3855 30.8337 34.3759C30.7878 34.3592 30.7425 34.3413 30.6977 34.322C30.6758 34.3093 30.6508 34.3066 30.6253 34.2978C30.561 34.2762 30.4979 34.2535 30.4382 34.2335H30.4224C30.35 34.2096 30.2792 34.1919 30.2053 34.1719C30.1879 34.1592 30.1737 34.1592 30.1564 34.1565C30.0917 34.1392 30.0351 34.1218 29.9739 34.1053C29.9585 34.1053 29.9438 34.0926 29.9315 34.0926C29.7809 34.054 29.629 34.0209 29.476 33.9933C29.4606 33.9933 29.4448 33.9805 29.429 33.9805C29.3639 33.9676 29.2982 33.9571 29.2323 33.949C29.2161 33.9367 29.2069 33.9367 29.193 33.9367C29.1155 33.9248 29.0377 33.9146 28.9597 33.9062H28.9188C28.8557 33.8939 28.7976 33.8928 28.7394 33.8862C28.6401 33.8985 28.5457 33.9039 28.4526 33.9128" fill="#2B3137"/>
<path d="M74.9731 43.2396C73.4002 48.2778 72.1261 52.4339 71.0176 55.8536C75.3339 49.9151 79.5855 42.4443 83.6342 33.8232C78.9117 35.3062 76.392 38.7008 74.9731 43.2396Z" fill="#2B3137"/>
<path d="M71.1545 69.7711C70.9343 69.8835 70.7136 69.9902 70.4961 70.086C78.8927 66.3422 88.9076 51.4927 93.7025 33.0044H92.7306C81.7146 52.6795 78.1715 65.8509 71.1545 69.7711Z" fill="#2B3137"/>
<path d="M65.6722 68.1183C67.4988 65.889 68.987 62.0993 71.0185 55.8535C68.6751 59.0719 66.3164 61.8379 63.9557 64.0942C63.9557 64.1065 63.9557 64.1065 63.9434 64.1142C64.4585 65.6572 65.0238 67.0189 65.6676 68.118" fill="#2B3137"/>
<path d="M65.6723 68.1182C65.0505 68.8766 64.3921 69.4548 63.6601 69.8829C63.4992 69.976 63.3371 70.0638 63.1719 70.1447C63.9664 70.5748 64.8359 70.8489 65.7335 70.952C65.8722 70.9658 66.0092 70.9785 66.1525 70.9885H66.1779C66.2422 70.9885 66.3103 70.9885 66.3796 71.0008H67.0627C67.0877 71.0008 67.1139 71.0008 67.1393 70.9885C67.1882 70.9885 67.2402 70.9885 67.2903 70.9758H67.365C67.4166 70.9758 67.4732 70.9635 67.5286 70.9581H67.5413C67.5575 70.9581 67.5752 70.9458 67.5914 70.9458C67.6491 70.9331 67.71 70.9281 67.7666 70.9192H67.8182C67.8821 70.9069 67.9487 70.8988 68.0145 70.8865H68.0465C68.1786 70.8611 68.3075 70.8365 68.4385 70.8034C67.355 70.4068 66.4478 69.4713 65.6669 68.1393" fill="#2B3137"/>
<path d="M63.9471 64.1148V64.1021C63.1192 64.8972 62.2554 65.6542 61.3585 66.3707C60.9173 66.722 60.4663 67.0606 60.0059 67.3862C60.3851 67.8397 60.7713 68.2647 61.1775 68.6524C61.7948 69.2503 62.4543 69.7542 63.174 70.143C63.338 70.0622 63.5016 69.9744 63.6607 69.8816C64.3945 69.4535 65.0526 68.8757 65.6744 68.1169C65.0306 67.0178 64.4654 65.6562 63.9502 64.1132" fill="#2B3137"/>
<path d="M89.6536 33.0044H84.7632C84.4991 33.0171 84.2423 33.026 83.9889 33.0421C83.8692 33.2989 83.7464 33.5557 83.6281 33.814C79.5798 42.435 75.3282 49.9058 71.0119 55.8444C68.982 62.0898 67.4926 65.8794 65.666 68.1088C66.4469 69.4408 67.3556 70.3774 68.4356 70.7743C68.4672 70.7616 68.4926 70.7616 68.5207 70.7551H68.5384C68.5573 70.7551 68.5777 70.7428 68.5981 70.7428C68.642 70.7301 68.6894 70.7224 68.7336 70.7089C68.7617 70.6962 68.7852 70.695 68.8137 70.6858C68.8549 70.6735 68.8973 70.6646 68.935 70.6546C68.9604 70.6419 68.9855 70.6381 69.0105 70.6331C69.0736 70.6127 69.1302 70.5976 69.1903 70.5788C69.2184 70.5665 69.2484 70.5557 69.28 70.5484C69.3147 70.536 69.3493 70.5272 69.3809 70.5122C69.4171 70.4995 69.4533 70.4929 69.4848 70.4795C69.513 70.4668 69.5426 70.4591 69.5696 70.4479C69.6404 70.4225 69.7097 70.4013 69.7806 70.3736C69.7998 70.3736 69.8187 70.3559 69.8391 70.352C69.8814 70.3343 69.9257 70.3205 69.9681 70.3016C69.9835 70.2889 70.0027 70.2877 70.0231 70.2812C70.1714 70.2196 70.3239 70.1565 70.4767 70.0876H70.4925C70.7144 69.9888 70.9334 69.8838 71.1494 69.7726C78.1675 65.8525 81.711 52.6811 92.727 33.0059H89.6502L89.6536 33.0044Z" fill="#2B3137"/>
<path d="M71.0179 55.8562C72.128 52.4338 73.399 48.2788 74.975 43.2392C76.3958 38.6984 78.9101 35.3041 83.6326 33.8228C83.7573 33.5691 83.8752 33.3077 83.9965 33.0513C76.298 33.5125 72.6998 37.428 70.8889 43.2265C67.7223 53.3497 65.8041 59.9119 63.957 64.0935C66.3162 61.8391 68.6749 59.0711 71.0179 55.8562Z" fill="#2B3137"/>
<path d="M82.3132 68.3039H81.4407V71.0153H81.085V68.3039H80.209V67.9813H82.3129L82.3132 68.3039ZM85.8853 71.0145H85.531V68.9773C85.531 68.8167 85.5434 68.62 85.5599 68.3883C85.5233 68.5268 85.4933 68.6231 85.4656 68.6847L84.4325 71.0145H84.2592L83.2235 68.702C83.1927 68.6377 83.1626 68.5334 83.1299 68.3886H83.1176C83.1299 68.5107 83.1341 68.7082 83.1341 68.9823V71.0149H82.7938V67.981H83.2635L84.1938 70.0983C84.2642 70.2573 84.3085 70.3801 84.3309 70.4621H84.3447C84.4063 70.295 84.4564 70.1707 84.491 70.0887L85.4406 67.981H85.8876V71.0145H85.8853Z" fill="#2B3137"/>
</svg>
