<svg width="93" height="93" viewBox="0 0 93 93" fill="none" xmlns="http://www.w3.org/2000/svg">
<circle opacity="0.2" cx="46.6703" cy="46.3759" r="43.4779" stroke="black" stroke-width="5"/>
<path d="M68.5859 46.9832V45.4375C68.5859 33.6167 58.9693 24 47.1484 24C35.3276 24 25.7109 33.6167 25.7109 45.4375V46.9832C23.8555 48.3816 22.6484 50.5964 22.6484 53.0938C22.6484 57.3157 26.0828 60.75 30.3047 60.75H31.8359V45.4375H30.3047C29.4089 45.4375 28.5522 45.6001 27.7526 45.8841V45.4375C27.7526 34.7427 36.4536 26.0417 47.1484 26.0417C57.8433 26.0417 66.5443 34.7427 66.5443 45.4375V45.8841C65.7447 45.6001 64.888 45.4375 63.9922 45.4375H62.4609V60.75H63.9922C64.5165 60.75 65.0286 60.6966 65.5234 60.5957V66.875C65.5234 68.001 64.6078 68.9167 63.4818 68.9167H52.0645C51.6417 67.7309 50.5192 66.875 49.1901 66.875H46.1276C44.4388 66.875 43.0651 68.2487 43.0651 69.9375C43.0651 71.6263 44.4388 73 46.1276 73H49.1901C50.5192 73 51.6418 72.1441 52.0645 70.9583H63.4818C65.7333 70.9583 67.5651 69.1265 67.5651 66.875V59.8602C69.9908 58.5742 71.6484 56.0254 71.6484 53.0938C71.6484 50.5964 70.4414 48.3816 68.5859 46.9832ZM29.7943 47.5021V58.6854C26.9366 58.4267 24.6901 56.0177 24.6901 53.0938C24.6901 50.1698 26.9366 47.7608 29.7943 47.5021ZM49.1901 70.9583H46.1276C45.5649 70.9583 45.1068 70.5003 45.1068 69.9375C45.1068 69.3747 45.5649 68.9167 46.1276 68.9167H49.1901C49.7529 68.9167 50.2109 69.3747 50.2109 69.9375C50.2109 70.5003 49.7529 70.9583 49.1901 70.9583ZM64.5026 58.6854V47.5021C67.3602 47.7608 69.6068 50.1698 69.6068 53.0938C69.6068 56.0177 67.3602 58.4267 64.5026 58.6854Z" fill="#F2994A"/>
<path d="M60.4196 45.8587V40.933L57.3257 40.4176C57.1119 39.6858 56.8188 38.98 56.4494 38.3081L58.2743 35.7535L54.7921 32.2703L52.2365 34.0957C51.5646 33.7263 50.8588 33.4332 50.127 33.2189L49.6116 30.125H44.6864L44.171 33.2189C43.4393 33.4332 42.7335 33.7263 42.0615 34.0957L39.506 32.2703L36.0238 35.7535L37.8486 38.3081C37.4793 38.98 37.1862 39.6858 36.9718 40.4176L33.8779 40.933V45.8587L36.9718 46.3741C37.1862 47.1058 37.4793 47.8111 37.8486 48.4836L36.0238 51.0381L39.506 54.5208L42.061 52.696C42.7335 53.0653 43.4393 53.3584 44.171 53.5728L44.6864 56.6667H49.6116L50.127 53.5728C50.8588 53.3584 51.5646 53.0653 52.237 52.696L54.7921 54.5208L58.2743 51.0381L56.4494 48.4836C56.8188 47.8111 57.1119 47.1053 57.3257 46.3741L60.4196 45.8587ZM55.6549 44.5827L55.5058 45.2561C55.2925 46.2221 54.9107 47.1412 54.3714 47.9871L54.001 48.5683L55.6075 50.8178L54.5707 51.8541L52.3222 50.2481L51.741 50.6184C50.8951 51.1573 49.9755 51.5391 49.0085 51.7529L48.3356 51.9024L47.882 54.625H46.416L45.9624 51.9024L45.2895 51.7529C44.3225 51.5391 43.4029 51.1573 42.557 50.6184L41.9758 50.2481L39.7273 51.8541L38.6905 50.8178L40.297 48.5683L39.9267 47.9871C39.3878 47.1417 39.0055 46.2226 38.7917 45.2556L38.6422 44.5827L35.9196 44.1291V42.6626L38.6422 42.209L38.7917 41.5361C39.006 40.5686 39.3878 39.6495 39.9267 38.8046L40.297 38.2234L38.6905 35.9739L39.7273 34.9371L41.9758 36.5436L42.557 36.1732C43.4029 35.6344 44.3225 35.2526 45.2895 35.0388L45.9624 34.8892L46.416 32.1667H47.882L48.3356 34.8892L49.0085 35.0388C49.9755 35.2526 50.8951 35.6344 51.741 36.1732L52.3222 36.5436L54.5707 34.9371L55.6075 35.9739L54.001 38.2234L54.3714 38.8046C54.9107 39.65 55.292 40.5686 55.5058 41.5356L55.6549 42.209L58.3779 42.6626V44.1291L55.6549 44.5827Z" fill="#F2C94C"/>
<path d="M47.1479 37.5814C43.9419 37.5814 41.334 40.1898 41.334 43.3959C41.334 46.6019 43.9419 49.2103 47.1479 49.2103C50.354 49.2103 52.9624 46.6019 52.9624 43.3959C52.9624 40.1898 50.354 37.5814 47.1479 37.5814ZM47.1479 47.1687C45.0679 47.1687 43.3757 45.4764 43.3757 43.3959C43.3757 41.3153 45.0679 39.6231 47.1479 39.6231C49.2285 39.6231 50.9207 41.3153 50.9207 43.3959C50.9207 45.4764 49.2285 47.1687 47.1479 47.1687Z" fill="#F2C94C"/>
</svg>
