<svg width="100" height="100" viewBox="0 0 100 100" fill="none" xmlns="http://www.w3.org/2000/svg">
<path d="M68.7694 52.1615C68.6904 43.5668 75.882 39.4373 76.2061 39.2344C72.1598 33.3875 65.8691 32.5912 63.6246 32.4976C58.2744 31.9589 53.177 35.6123 50.4584 35.6123C47.7398 35.6123 43.5513 32.5756 39.1099 32.6615C33.2696 32.7474 27.8878 36.0104 24.8768 41.1781C18.8152 51.5604 23.3278 66.9622 29.2391 75.4007C32.1316 79.5224 35.5694 84.1672 40.0977 83.9954C44.4601 83.8237 46.1039 81.2086 51.3673 81.2086C56.6306 81.2086 58.1163 83.9954 62.7158 83.9096C67.4022 83.8159 70.3737 79.6942 73.2425 75.5569C76.5538 70.7716 77.921 66.1347 78 65.8927C77.8973 65.8537 68.8643 62.4345 68.7694 52.1615Z" fill="#2B3137"/>
<path d="M60.1144 26.8507C62.5169 23.978 64.137 19.9812 63.6944 16C60.2329 16.1405 56.0444 18.2794 53.5629 21.1521C51.3422 23.6892 49.3902 27.7562 49.9197 31.6593C53.7684 31.956 57.7119 29.7156 60.1144 26.8507Z" fill="#2B3137"/>
</svg>
