<svg width="100" height="100" viewBox="0 0 100 100" fill="none" xmlns="http://www.w3.org/2000/svg">
<path d="M49.4999 55.1025C53.3637 55.1025 56.4959 51.8926 56.4959 47.9329C56.4959 43.9732 53.3637 40.7632 49.4999 40.7632C45.6361 40.7632 42.5039 43.9732 42.5039 47.9329C42.5039 51.8926 45.6361 55.1025 49.4999 55.1025Z" fill="#2B3137"/>
<path fill-rule="evenodd" clip-rule="evenodd" d="M49.5006 33.355C58.8937 33.355 67.6196 34.7363 74.1989 37.0575C82.1261 39.8544 87 44.0937 87 47.9324C87 51.9326 81.8346 56.4363 73.3219 59.3268C66.8861 61.512 58.417 62.6528 49.5006 62.6528C40.3588 62.6528 31.7021 61.582 25.1938 59.3028C16.9595 56.4185 12 51.8565 12 47.9324C12 44.1248 16.6536 39.9183 24.4693 37.1257C31.0731 34.7661 40.0145 33.355 49.4994 33.355H49.5006Z" stroke="#2B3137" stroke-width="4"/>
<path fill-rule="evenodd" clip-rule="evenodd" d="M37.1182 40.6858C41.8108 32.347 47.3374 25.2904 52.5864 20.609C58.9107 14.9687 64.9291 12.7598 68.1738 14.6773C71.5552 16.6757 72.7816 23.5115 70.9722 32.5126C69.6055 39.318 66.3376 47.4062 61.8831 55.322C57.316 63.4379 52.0865 70.5883 46.909 75.2262C40.3574 81.0955 34.0234 83.2195 30.7065 81.2591C27.4879 79.3583 26.257 73.1244 27.8011 64.7905C29.1057 57.749 32.3796 49.1062 37.1166 40.6857L37.1182 40.6858Z" stroke="#2B3137" stroke-width="4"/>
<path fill-rule="evenodd" clip-rule="evenodd" d="M37.1318 55.3436C32.4259 47.0142 29.2219 38.5814 27.8846 31.5831C26.2747 23.1511 27.4129 16.7041 30.6547 14.781C34.0328 12.7768 40.4241 15.1018 47.1298 21.2037C52.1998 25.817 57.4059 32.7566 61.8733 40.665C66.4535 48.7731 69.8863 56.9874 71.2218 63.9006C72.9115 72.6489 71.5439 79.3332 68.23 81.2992C65.0147 83.2068 59.1307 81.1871 52.8566 75.654C47.5555 70.9792 41.8841 63.7558 37.1318 55.3435V55.3436Z" stroke="#2B3137" stroke-width="4"/>
</svg>
