<svg width="100" height="100" viewBox="0 0 100 100" fill="none" xmlns="http://www.w3.org/2000/svg">
<path d="M27.3958 15H72.6042C79.4583 15 85 20.5214 85 27.3504V70.6496C85 77.4786 79.4583 83 72.6042 83H27.3958C20.5417 83 15 77.4786 15 70.6496V27.3504C15 20.5214 20.5417 15 27.3958 15Z" fill="#2B3137"/>
<path d="M51.8068 32.8715L43.0568 47.2561L52.3901 62.5125C52.4484 62.6287 52.4776 62.745 52.4484 62.8612C52.4193 62.9774 52.3026 62.8903 52.1276 62.9193H45.4484C44.9818 62.9193 44.6609 62.8903 44.4568 62.5997C43.8443 61.3792 43.2026 60.1877 42.5901 58.9672C41.9776 57.7757 41.3068 56.5552 40.6068 55.3056C39.9068 54.0561 39.2068 52.8065 38.5068 51.5279H38.4484C37.8359 52.7774 37.1651 54.027 36.4943 55.2766C35.8234 56.5262 35.1526 57.7757 34.5109 58.9962C33.8401 60.2168 33.1693 61.4663 32.4984 62.6578C32.3818 62.9484 32.1484 62.9774 31.8276 62.9774H25.4109C25.2943 62.9774 25.2068 63.0356 25.2068 62.8903C25.1776 62.774 25.2068 62.6578 25.2651 62.5706L34.3359 47.7501L25.4984 32.8424C25.4109 32.7262 25.3818 32.6099 25.4401 32.5518C25.4984 32.4646 25.6151 32.4356 25.7318 32.4356H32.3526C32.4984 32.4356 32.6443 32.4646 32.7609 32.4937C32.8776 32.5518 32.9651 32.639 33.0526 32.7552C33.6068 34.0048 34.2484 35.2544 34.9193 36.5039C35.6193 37.7535 36.2901 38.974 37.0193 40.1945C37.7193 41.415 38.3609 42.6356 38.9734 43.8851H39.0318C39.6443 42.6065 40.2859 41.3569 40.9276 40.1364C41.5693 38.9159 42.2401 37.6954 42.9109 36.4749C43.5818 35.2544 44.2234 34.0048 44.8651 32.8133C44.8943 32.6971 44.9526 32.5809 45.0401 32.5227C45.1568 32.4646 45.2734 32.4356 45.4193 32.4646H51.5734C51.7193 32.4356 51.8651 32.5227 51.8943 32.668C51.9234 32.6971 51.8651 32.8133 51.8068 32.8715ZM65.2817 63.5296C63.1234 63.5586 60.9651 63.1227 59.0109 62.2219C57.1734 61.3791 55.6568 59.9843 54.6068 58.2697C53.5276 56.4971 53.0026 54.2885 53.0026 51.6441C52.9734 49.4937 53.5276 47.3723 54.6068 45.5125C55.7151 43.6236 57.3193 42.0544 59.2443 41.0082C61.2859 39.8749 63.7359 39.3227 66.6234 39.3227C66.7693 39.3227 66.9734 39.3227 67.2359 39.3518C67.4984 39.3809 67.7901 39.3809 68.1401 39.4099V30.227C68.1401 30.0236 68.2276 29.9073 68.4318 29.9073H74.3526C74.4984 29.8783 74.6151 29.9945 74.6443 30.1108V57.8338C74.6443 58.3569 74.6734 58.9381 74.7026 59.5774C74.7609 60.1877 74.7901 60.7689 74.8193 61.2629C74.8193 61.4663 74.7318 61.6407 74.5276 61.7279C73.0109 62.3672 71.4068 62.8321 69.7734 63.1227C68.2859 63.3843 66.7984 63.5296 65.2817 63.5296ZM68.1401 57.7176V44.9313C67.8776 44.8732 67.6151 44.815 67.3526 44.786C67.0318 44.7569 66.7109 44.7279 66.3901 44.7279C65.2526 44.7279 64.1151 44.9603 63.0942 45.4834C62.1026 45.9774 61.2568 46.7039 60.6151 47.6338C59.9734 48.5638 59.6526 49.8133 59.6526 51.3244C59.6234 52.3415 59.7984 53.3586 60.1484 54.3176C60.4401 55.1022 60.8776 55.7997 61.4609 56.3809C62.0151 56.9039 62.6859 57.3108 63.4443 57.5432C64.2318 57.8048 65.0484 57.921 65.8651 57.921C66.3026 57.921 66.7109 57.892 67.0901 57.8629C67.4693 57.892 67.7901 57.8338 68.1401 57.7176Z" fill="white"/>
</svg>
