<svg width="90" height="87" viewBox="0 0 90 87" fill="none" xmlns="http://www.w3.org/2000/svg">
<path d="M57.6319 36.7082C57.5235 35.808 57.1818 34.987 56.6565 34.3014L60.2629 11.8956C60.3972 11.0619 59.8629 10.2671 59.0412 10.077L59.0009 10.0679C58.1791 9.87784 57.351 10.3581 57.1065 11.1661L50.5365 32.8867C48.9174 33.7017 47.7934 35.363 47.7934 37.2978C47.7934 40.0298 50.0126 42.2528 52.7416 42.2528C53.2501 42.2528 53.731 42.1534 54.1929 42.0103L67.9185 49.1507C68.6737 49.5435 69.6032 49.2982 70.0666 48.5836L70.0874 48.5517C70.5509 47.8374 70.3968 46.8874 69.7309 46.3567L57.6319 36.7082ZM50.2975 37.2978C50.2975 35.9489 51.3943 34.851 52.7418 34.851C54.0904 34.851 55.1872 35.9489 55.1872 37.2978C55.1872 38.6478 54.0904 39.7459 52.7418 39.7459C51.3943 39.7459 50.2975 38.6479 50.2975 37.2978ZM90 37.2978C90 53.8828 79.1279 67.9676 64.1457 72.8015L64.145 67.4906C76.315 62.8686 84.9916 51.081 84.9916 37.2978C84.9916 19.4966 70.524 5.0137 52.7418 5.0137C34.9594 5.0137 20.4919 19.4966 20.4919 37.2978C20.4919 39.0835 20.644 40.8338 20.924 42.5416H15.8591C15.6171 40.8272 15.4835 39.0781 15.4835 37.2978C15.4835 16.7314 32.1972 0 52.7418 0C73.2863 0 90 16.7314 90 37.2978ZM59.2368 63.8743L47.7677 52.5182C47.0415 51.7911 46.0524 51.39 45.0381 51.39H39.2534V49.2217C39.2534 47.6046 37.9388 46.3012 36.3235 46.3012H2.91779C1.30265 46.3012 0.000441176 47.6046 0.000441176 49.2217V68.7748H60.3888V66.6441C60.3887 65.604 59.9754 64.6012 59.2368 63.8743ZM54.2409 64.2504H43.1349C42.8844 64.2504 42.6841 64.0497 42.6841 63.799V55.2132C42.6841 54.9625 42.8843 54.7618 43.1349 54.7618H45.2509C45.3637 54.7618 45.4888 54.8122 45.5765 54.8872L54.554 63.4734C54.8544 63.7487 54.654 64.2504 54.2409 64.2504ZM60.39 70.3903V76.8591C60.39 78.4727 59.0832 79.781 57.4712 79.781H54.3481C53.7838 75.9045 50.4466 72.9243 46.4188 72.9243C42.4004 72.9243 39.0634 75.9045 38.4991 79.781H22.6693C22.105 75.9045 18.7678 72.9243 14.7496 72.9243C10.7313 72.9243 7.39412 75.9045 6.82985 79.781H2.91882C1.30676 79.7807 0 78.4727 0 76.8592V70.3903H60.39ZM46.4278 74.8792C43.0849 74.8792 40.3678 77.5866 40.3678 80.9331C40.3678 84.2799 43.0849 87 46.4278 87C49.7709 87 52.4754 84.2799 52.4754 80.9331C52.4754 77.5866 49.7709 74.8792 46.4278 74.8792ZM46.4278 83.9666C44.7502 83.9666 43.3978 82.613 43.3978 80.9333C43.3978 79.2662 44.75 77.9 46.4278 77.9C48.0931 77.9 49.4454 79.2661 49.4454 80.9333C49.4454 82.613 48.0931 83.9666 46.4278 83.9666ZM14.75 74.8792C11.4071 74.8792 8.68985 77.5866 8.68985 80.9331C8.68985 84.2799 11.4071 87 14.75 87C18.0931 87 20.7976 84.2799 20.7976 80.9331C20.7976 77.5866 18.0931 74.8792 14.75 74.8792ZM14.75 83.9666C13.0722 83.9666 11.72 82.613 11.72 80.9333C11.72 79.2662 13.0722 77.9 14.75 77.9C16.4153 77.9 17.78 79.2661 17.78 80.9333C17.78 82.613 16.4153 83.9666 14.75 83.9666Z" fill="#2B3137"/>
</svg>
