<svg width="92" height="92" viewBox="0 0 92 92" fill="none" xmlns="http://www.w3.org/2000/svg">
<path d="M38.0137 58.7302H47.5394" stroke="#F7770A" stroke-width="2"/>
<path d="M53.0954 72.7547C52.6544 70.7261 53.1483 66.4567 57.5937 66.6684C63.1504 66.1391 66.3257 67.1976 66.0611 63.2286C65.8494 60.0533 65.9729 58.3775 66.0611 57.9365V56.3488L66.1055 56.2895C67.0455 55.0362 67.1673 53.3495 66.4171 51.9741L66.0611 51.3214C65.7965 50.9686 65.9023 50.1571 68.4425 49.7337C70.9827 49.3104 69.8537 47.4405 68.9717 46.5585L64.4734 41.7956C64.0324 34.3866 59.7106 21.1048 45.9511 20.098C42.3348 19.8334 35.6316 19.8513 30.604 23.5378C27.1642 26.0601 22.1367 29.6238 21.0782 39.6787C20.2256 47.7776 26.5467 56.7898 30.0748 60.3179L30.0748 66.1392C30.0748 70.0103 36.1608 75.7179 42.5113 70.6374V62.4347H47.5388H38.013" stroke="#F7770A" stroke-width="2"/>
<path d="M38.542 27.2422L39.6004 31.2113" stroke="#F7770A" stroke-linecap="round"/>
<path d="M46.9023 27.2422L45.8053 31.2008" stroke="#F7770A" stroke-linecap="round" stroke-linejoin="round"/>
<path d="M42.7754 24.0669V27.5068V30.9466" stroke="#FABA00" stroke-linecap="round"/>
<path d="M31.9043 53.5302L34.3256 50.2119" stroke="#F7770A" stroke-linecap="round"/>
<path d="M28.0498 45.6407L32.1061 44.9924" stroke="#F7770A" stroke-linecap="round" stroke-linejoin="round"/>
<path d="M26.8779 50.714L30.0063 49.2836L33.1347 47.8533" stroke="#FABA00" stroke-linecap="round"/>
<path d="M53.6182 30.9521L50.7158 33.8591" stroke="#F7770A" stroke-linecap="round"/>
<path d="M57.8125 38.1841L53.8378 39.2213" stroke="#F7770A" stroke-linecap="round" stroke-linejoin="round"/>
<path d="M58.4893 33.0212L55.5137 34.7471L52.5381 36.473" stroke="#FABA00" stroke-linecap="round"/>
<path d="M57.876 45.9485L53.8518 45.1242" stroke="#F7770A" stroke-linecap="round"/>
<path d="M54.1445 53.4297L51.0917 50.6812" stroke="#F7770A" stroke-linecap="round" stroke-linejoin="round"/>
<path d="M58.8281 51.1541L55.7499 49.6188L52.6716 48.0836" stroke="#FABA00" stroke-linecap="round"/>
<path d="M46.7448 55.2904H38.8066H38.542L38.542 52.3797C32.1915 45.6059 34.0438 39.5025 35.3668 37.2973C36.6899 34.3865 43.1826 31.1132 48.597 35.445C54.8192 40.423 49.9201 48.8517 46.7448 52.3797V55.2904Z" stroke="#FABA00" stroke-width="2"/>
<circle cx="45.98" cy="45.98" r="43.48" stroke="#CCCCCC" stroke-width="5"/>
</svg>
