<svg width="87" height="87" viewBox="0 0 87 87" fill="none" xmlns="http://www.w3.org/2000/svg">
<path d="M60.4288 76.5493H51.1826C50.8486 76.5493 50.5758 76.277 50.5758 75.943V73.9066C50.5758 73.5729 50.303 73.3003 49.9695 73.3003H37.0311C36.6974 73.3003 36.4246 73.5729 36.4246 73.9066V75.943C36.4246 76.277 36.1518 76.5493 35.8181 76.5493H26.5714C26.2376 76.5493 25.9648 76.8221 25.9648 77.1557V79.7594C25.9648 80.093 26.2376 80.3657 26.5714 80.3657H60.4284C60.7624 80.3657 61.0352 80.093 61.0352 79.7594V77.1557C61.0352 76.8221 60.7624 76.5493 60.4288 76.5493Z" fill="#2B3137"/>
<path d="M82.1254 6.63477H4.8744C2.18656 6.63477 0 8.82154 0 11.5094V65.1937C0 67.8813 2.18677 70.0681 4.8744 70.0681H82.1256C84.8132 70.0681 87 67.8813 87 65.1937V11.5096C87 8.82154 84.8132 6.63477 82.1254 6.63477ZM43.4997 65.8593C42.287 65.8593 41.3037 64.8759 41.3037 63.6629C41.3037 62.4498 42.287 61.4665 43.4997 61.4665C44.7128 61.4665 45.6965 62.4498 45.6965 63.6629C45.6965 64.8759 44.7128 65.8593 43.4997 65.8593ZM83.3109 59.1023H3.68891V11.5096C3.68891 10.8671 4.2317 10.3243 4.8744 10.3243H82.1256C82.7679 10.3243 83.3111 10.8671 83.3111 11.5096V59.1023H83.3109Z" fill="#2B3137"/>
<path d="M50.5562 35.7157L40.1658 28.947C39.8575 28.7643 39.6055 28.9081 39.6055 29.2664V42.8291C39.6055 43.1872 39.8575 43.331 40.1658 43.1485L50.5562 36.3798C50.8641 36.1971 50.8641 35.8982 50.5562 35.7157Z" fill="#2B3137"/>
<path d="M43.5002 21.771C35.6282 21.771 29.2236 28.1753 29.2236 36.0474C29.2236 43.9192 35.6282 50.3238 43.5002 50.3238C51.3723 50.3238 57.7766 43.9192 57.7766 36.0474C57.7766 28.1753 51.3723 21.771 43.5002 21.771ZM43.5002 47.3285C37.2799 47.3285 32.2189 42.2679 32.2189 36.0474C32.2189 29.8268 37.2797 24.7663 43.5002 24.7663C49.721 24.7663 54.7813 29.827 54.7813 36.0474C54.7813 42.2677 49.7206 47.3285 43.5002 47.3285Z" fill="#2B3137"/>
</svg>
