<svg width="105" height="105" viewBox="0 0 105 105" fill="none" xmlns="http://www.w3.org/2000/svg">
<path d="M54.9855 18.0898C36.0116 18.0898 20.5752 33.5262 20.5752 52.5001C20.5752 71.474 36.0116 86.9104 54.9855 86.9104C73.9598 86.9104 89.3962 71.474 89.3962 52.5001C89.3962 33.5262 73.9593 18.0898 54.9855 18.0898ZM54.9855 68.7739C45.9975 68.7739 38.7116 61.4881 38.7116 52.5001C38.7116 43.5121 45.9975 36.2263 54.9855 36.2263C63.9734 36.2263 71.2593 43.5121 71.2593 52.5001C71.2593 61.4881 63.973 68.7739 54.9855 68.7739Z" fill="#2B3137"/>
<path d="M20.8569 34.9905C20.9045 34.7887 20.8569 34.5797 20.8569 34.3638V23.0286C20.8569 21.5264 19.6386 20.3081 18.1364 20.3081C16.6343 20.3081 15.416 21.5264 15.416 23.0286V31.1859L13.1489 31.1868V23.0286C13.1489 21.5264 11.9306 20.3081 10.4285 20.3081C8.9263 20.3081 7.70799 21.5264 7.70799 23.0286V31.1891L5.44093 31.19V23.0286C5.44093 21.5264 4.22262 20.3081 2.72047 20.3081C1.21832 20.3081 0 21.5264 0 23.0286V34.3638C0 34.4554 0.0802537 34.5457 0.0893219 34.6345C0.0807071 34.7597 0.113353 34.8844 0.113353 35.0072C0.113353 37.9517 2.51144 40.2582 5.52481 40.2582H6.34775V79.4782C6.34775 81.8532 8.28019 83.7856 10.6552 83.7856C13.0301 83.7856 14.9626 81.8532 14.9626 79.4782V40.2582H15.5597C18.5731 40.2582 20.895 37.9517 20.895 35.0072C20.8954 35.0018 20.8569 34.9959 20.8569 34.9905Z" fill="#2B3137"/>
<path d="M104.965 51.1878L105 51.0744C104.996 51.0059 104.67 44.1508 104.19 37.2798C103.149 22.3875 102.61 21.9777 101.615 21.2327L100.886 20.6841L99.904 20.7992C98.3089 21.0015 93.8564 22.4746 93.8564 25.4322V50.4596V51.3732V79.4779C93.8564 81.8528 95.7889 83.7853 98.1639 83.7853C100.539 83.7853 102.471 81.8528 102.471 79.4779V54.4532C103.831 53.7414 104.965 52.6836 104.965 51.1878Z" fill="#2B3137"/>
</svg>
