<svg width="90" height="87" viewBox="0 0 90 87" fill="none" xmlns="http://www.w3.org/2000/svg">
<g clip-path="url(#clip0_1475_576)">
<path d="M2.87842 6.35795C2.11501 6.35795 1.38288 6.02298 0.843069 5.42673C0.303261 4.83048 0 4.0218 0 3.17858C0 2.33535 0.303261 1.52667 0.843069 0.930418C1.38288 0.334169 2.11501 -0.000799946 2.87842 -0.000799946H10.3638H10.6494C13.1065 -0.0518683 15.529 0.645054 17.6514 2.01361C20.03 3.69233 21.7161 6.33632 22.3462 9.37553C22.5806 10.5162 22.8296 11.6569 23.0786 12.7976H87.1582C87.5359 12.7965 87.91 12.8778 88.2592 13.0367C88.6084 13.1956 88.9257 13.429 89.1931 13.7236C89.4605 14.0182 89.6726 14.3681 89.8174 14.7534C89.9621 15.1387 90.0366 15.5517 90.0366 15.9689C90.0368 16.3039 89.9898 16.6368 89.8975 16.9559L82.4121 50.222C82.2612 50.9123 81.9049 51.5268 81.4003 51.9668C80.8956 52.4069 80.2719 52.6471 79.6289 52.649H32.71C33.7646 56.8639 34.7314 59.121 36.1523 60.2051C37.8149 61.4348 40.7739 61.5238 45.6738 61.4348H45.7251H78.8086C79.572 61.4348 80.3041 61.7697 80.8439 62.366C81.3838 62.9622 81.687 63.7709 81.687 64.6141C81.687 65.4574 81.3838 66.2661 80.8439 66.8623C80.3041 67.4585 79.572 67.7935 78.8086 67.7935H45.7471C39.6899 67.9149 35.9473 67.7207 32.959 65.4959C29.9707 63.2712 28.3008 59.388 26.6821 52.3092L16.7871 11.0502C16.5098 9.57001 15.7217 8.26722 14.5898 7.41774C13.3532 6.67704 11.9601 6.314 10.5542 6.36604H2.87842V6.35795ZM70.3125 71.4664C71.7031 71.4664 73.0626 71.9219 74.2188 72.7753C75.3751 73.6286 76.2763 74.8416 76.8085 76.2607C77.3407 77.6798 77.4799 79.2414 77.2086 80.7479C76.9373 82.2545 76.2677 83.6383 75.2843 84.7245C74.301 85.8106 73.0482 86.5503 71.6842 86.85C70.3203 87.1496 68.9065 86.9958 67.6218 86.408C66.337 85.8202 65.2388 84.8248 64.4662 83.5476C63.6936 82.2704 63.2812 80.7688 63.2812 79.2328C63.2812 77.173 64.022 75.1976 65.3407 73.7411C66.6593 72.2846 68.4477 71.4664 70.3125 71.4664ZM39.4775 71.4664C40.8682 71.4664 42.2276 71.9219 43.3839 72.7753C44.5402 73.6286 45.4414 74.8416 45.9736 76.2607C46.5057 77.6798 46.645 79.2414 46.3737 80.7479C46.1024 82.2545 45.4327 83.6383 44.4494 84.7245C43.466 85.8106 42.2132 86.5503 40.8493 86.85C39.4853 87.1496 38.0716 86.9958 36.7868 86.408C35.502 85.8202 34.4039 84.8248 33.6313 83.5476C32.8587 82.2704 32.4463 80.7688 32.4463 79.2328C32.4463 77.173 33.1871 75.1976 34.5057 73.7411C35.8243 72.2846 37.6127 71.4664 39.4775 71.4664ZM57.1289 19.1483V30.7413H80.896L83.4814 19.1887L57.1289 19.1483ZM57.1289 37.0596V46.2903H77.4097L79.4751 37.0596H57.1289ZM51.3501 46.2903V37.0596H29.0259C29.7925 40.1338 30.5249 43.2107 31.2231 46.2903H51.3501ZM51.3501 30.7008V19.1483H24.5654C25.4883 22.9991 26.4551 26.85 27.4292 30.7008H51.3501Z" fill="#2B3137"/>
</g>
<defs>
<clipPath id="clip0_1475_576">
<rect width="90" height="87" fill="white"/>
</clipPath>
</defs>
</svg>
