<svg width="77" height="90" viewBox="0 0 77 90" fill="none" xmlns="http://www.w3.org/2000/svg">
<path d="M2.61855 87.3924H0V90H68.2223V87.3924H66.7471V74.9402C66.7471 74.7032 66.6523 74.4759 66.4835 74.3083C66.3148 74.1407 66.0859 74.0466 65.8472 74.0466H55.7197C55.481 74.0466 55.2521 74.1407 55.0834 74.3083C54.9146 74.4759 54.8198 74.7032 54.8198 74.9402V87.3924H35.7524V69.7469C35.7504 69.4315 35.6229 69.1297 35.3976 68.9074C35.1724 68.6851 34.8677 68.5603 34.5501 68.5603H14.7081C14.3905 68.5603 14.0858 68.6851 13.8605 68.9074C13.6353 69.1297 13.5077 69.4315 13.5058 69.7469V87.3924H0V1.89713C0.0413952 1.41193 0.255888 0.957364 0.604847 0.615285C0.995238 0.224429 1.52573 0.00317514 2.08008 0H47.156C47.4306 0.000773196 47.7023 0.0555416 47.9555 0.161145C48.2087 0.266749 48.4384 0.421097 48.6312 0.615285L48.7271 0.710507C49.0698 1.09126 49.2589 1.58423 49.2582 2.0949V25.3146H75.2371C75.4686 25.3146 75.6978 25.3598 75.9117 25.4478C76.1256 25.5358 76.32 25.6647 76.4837 25.8273C76.6475 25.9883 76.7775 26.1799 76.8661 26.3912C76.9547 26.6024 77.0002 26.829 77 27.0579V88.7987C77 89.1154 76.8733 89.4191 76.6479 89.643C76.4224 89.8669 76.1166 89.9927 75.7977 89.9927H68.2223V87.385H74.4995V27.827H49.2655V87.407H46.6396V2.60031H2.61855V87.3924ZM64.9768 87.3924H56.6196V75.8045H64.9768V87.3924ZM63.0295 32.9543H69.5279C69.5796 32.9543 69.6238 33.0276 69.6238 33.1155V37.298C69.6238 37.3712 69.5796 37.4518 69.5279 37.4518H63.0295C62.9779 37.4518 62.9336 37.3859 62.9336 37.298V33.1155C62.9336 33.0276 62.9779 32.9543 63.0295 32.9543ZM63.0295 61.9606H69.5279C69.5796 61.9606 69.6238 62.0339 69.6238 62.1144V66.2969C69.6238 66.3775 69.5796 66.458 69.5279 66.458H63.0295C62.9779 66.458 62.9336 66.3848 62.9336 66.2969V62.1144C62.9336 62.0339 62.9779 61.9606 63.0295 61.9606ZM52.0759 61.9606H58.5669C58.6259 61.9606 58.6702 62.0339 58.6702 62.1144V66.2969C58.6702 66.3775 58.6259 66.458 58.5669 66.458H52.0759C52.0169 66.458 51.9726 66.3848 51.9726 66.2969V62.1144C51.9726 62.0339 52.0169 61.9606 52.0759 61.9606ZM63.0295 52.2919H69.5279C69.5796 52.2919 69.6238 52.3651 69.6238 52.453V56.6355C69.6238 56.716 69.5796 56.7966 69.5279 56.7966H63.0295C62.9779 56.7966 62.9336 56.7234 62.9336 56.6355V52.453C62.9336 52.3578 62.9779 52.2919 63.0295 52.2919ZM63.0295 42.6231H69.5279C69.5796 42.6231 69.6238 42.6964 69.6238 42.7842V46.9667C69.6238 47.0473 69.5796 47.1279 69.5279 47.1279H63.0295C62.9779 47.1279 62.9336 47.0546 62.9336 46.9667V42.7842C62.9336 42.6964 62.9779 42.6231 63.0295 42.6231ZM52.0759 32.9543H58.5669C58.6259 32.9543 58.6702 33.0276 58.6702 33.1155V37.298C58.6702 37.3712 58.6259 37.4518 58.5669 37.4518H52.0759C52.0169 37.4518 51.9726 37.3859 51.9726 37.298V33.1155C51.9726 33.0276 52.0169 32.9543 52.0759 32.9543ZM52.0759 52.2919H58.5669C58.6259 52.2919 58.6702 52.3651 58.6702 52.453V56.6355C58.6702 56.716 58.6259 56.7966 58.5669 56.7966H52.0759C52.0169 56.7966 51.9726 56.7234 51.9726 56.6355V52.453C51.9726 52.3578 52.0169 52.2919 52.0759 52.2919ZM52.0759 42.6231H58.5669C58.6259 42.6231 58.6702 42.6964 58.6702 42.7842V46.9667C58.6702 47.0473 58.6259 47.1279 58.5669 47.1279H52.0759C52.0169 47.1279 51.9726 47.0546 51.9726 46.9667V42.7842C51.9726 42.6964 52.0169 42.6231 52.0759 42.6231ZM33.3477 87.3924H15.9104V70.9408H33.3477V87.3924ZM8.94731 9.16334H16.0137C16.0659 9.16517 16.1155 9.18659 16.1525 9.22329C16.1895 9.25999 16.211 9.30924 16.2129 9.36111V16.3856C16.211 16.4375 16.1895 16.4867 16.1525 16.5234C16.1155 16.5601 16.0659 16.5816 16.0137 16.5834H8.94731C8.89508 16.5816 8.84548 16.5601 8.80852 16.5234C8.77156 16.4867 8.74999 16.4375 8.74816 16.3856V9.36111C8.74999 9.30924 8.77156 9.25999 8.80852 9.22329C8.84548 9.18659 8.89508 9.16517 8.94731 9.16334ZM33.2445 9.16334H40.3109C40.3631 9.16517 40.4127 9.18659 40.4496 9.22329C40.4866 9.25999 40.5082 9.30924 40.51 9.36111V16.3856C40.5082 16.4375 40.4866 16.4867 40.4496 16.5234C40.4127 16.5601 40.3631 16.5816 40.3109 16.5834H33.2445C33.1922 16.5816 33.1426 16.5601 33.1057 16.5234C33.0687 16.4867 33.0471 16.4375 33.0453 16.3856V9.36111C33.0471 9.30924 33.0687 9.25999 33.1057 9.22329C33.1426 9.18659 33.1922 9.16517 33.2445 9.16334ZM21.0959 9.16334H28.1623C28.2145 9.16517 28.2641 9.18659 28.3011 9.22329C28.338 9.25999 28.3596 9.30924 28.3614 9.36111V16.3856C28.3596 16.4375 28.338 16.4867 28.3011 16.5234C28.2641 16.5601 28.2145 16.5816 28.1623 16.5834H21.0959C21.0437 16.5816 20.9941 16.5601 20.9571 16.5234C20.9201 16.4867 20.8986 16.4375 20.8967 16.3856V9.36111C20.8986 9.30924 20.9201 9.25999 20.9571 9.22329C20.9941 9.18659 21.0437 9.16517 21.0959 9.16334ZM8.94731 24.3697H16.0137C16.0659 24.3715 16.1155 24.3929 16.1525 24.4296C16.1895 24.4663 16.211 24.5156 16.2129 24.5674V31.5919C16.211 31.6438 16.1895 31.6931 16.1525 31.7298C16.1155 31.7665 16.0659 31.7879 16.0137 31.7897H8.94731C8.89508 31.7879 8.84548 31.7665 8.80852 31.7298C8.77156 31.6931 8.74999 31.6438 8.74816 31.5919V24.5674C8.74999 24.5156 8.77156 24.4663 8.80852 24.4296C8.84548 24.3929 8.89508 24.3715 8.94731 24.3697ZM33.2445 24.3697H40.3109C40.3631 24.3715 40.4127 24.3929 40.4496 24.4296C40.4866 24.4663 40.5082 24.5156 40.51 24.5674V31.5919C40.5082 31.6438 40.4866 31.6931 40.4496 31.7298C40.4127 31.7665 40.3631 31.7879 40.3109 31.7897H33.2445C33.1922 31.7879 33.1426 31.7665 33.1057 31.7298C33.0687 31.6931 33.0471 31.6438 33.0453 31.5919V24.5674C33.0471 24.5156 33.0687 24.4663 33.1057 24.4296C33.1426 24.3929 33.1922 24.3715 33.2445 24.3697ZM21.0959 24.3697H28.1623C28.2145 24.3715 28.2641 24.3929 28.3011 24.4296C28.338 24.4663 28.3596 24.5156 28.3614 24.5674V31.5919C28.3596 31.6438 28.338 31.6931 28.3011 31.7298C28.2641 31.7665 28.2145 31.7879 28.1623 31.7897H21.0959C21.0437 31.7879 20.9941 31.7665 20.9571 31.7298C20.9201 31.6931 20.8986 31.6438 20.8967 31.5919V24.5674C20.8986 24.5156 20.9201 24.4663 20.9571 24.4296C20.9941 24.3929 21.0437 24.3715 21.0959 24.3697ZM8.94731 54.7823H16.0137C16.0665 54.7823 16.1172 54.8031 16.1545 54.8402C16.1919 54.8773 16.2129 54.9276 16.2129 54.9801V61.9972C16.2129 62.0497 16.1919 62.1 16.1545 62.1371C16.1172 62.1742 16.0665 62.195 16.0137 62.195H8.94731C8.89449 62.195 8.84384 62.1742 8.80649 62.1371C8.76914 62.1 8.74816 62.0497 8.74816 61.9972V54.9801C8.74816 54.9276 8.76914 54.8773 8.80649 54.8402C8.84384 54.8031 8.89449 54.7823 8.94731 54.7823ZM33.2445 54.7823H40.3109C40.3637 54.7823 40.4143 54.8031 40.4517 54.8402C40.489 54.8773 40.51 54.9276 40.51 54.9801V61.9972C40.51 62.0497 40.489 62.1 40.4517 62.1371C40.4143 62.1742 40.3637 62.195 40.3109 62.195H33.2445C33.1917 62.195 33.141 62.1742 33.1036 62.1371C33.0663 62.1 33.0453 62.0497 33.0453 61.9972V54.9801C33.0453 54.9276 33.0663 54.8773 33.1036 54.8402C33.141 54.8031 33.1917 54.7823 33.2445 54.7823ZM21.0959 54.7823H28.1623C28.2151 54.7823 28.2658 54.8031 28.3031 54.8402C28.3405 54.8773 28.3614 54.9276 28.3614 54.9801V61.9972C28.3614 62.0497 28.3405 62.1 28.3031 62.1371C28.2658 62.1742 28.2151 62.195 28.1623 62.195H21.0959C21.0431 62.195 20.9924 62.1742 20.9551 62.1371C20.9177 62.1 20.8967 62.0497 20.8967 61.9972V54.9801C20.8967 54.9276 20.9177 54.8773 20.9551 54.8402C20.9924 54.8031 21.0431 54.7823 21.0959 54.7823ZM8.94731 39.5467H16.0137C16.0665 39.5467 16.1172 39.5675 16.1545 39.6046C16.1919 39.6417 16.2129 39.692 16.2129 39.7444V46.7982C16.211 46.8501 16.1895 46.8994 16.1525 46.9361C16.1155 46.9728 16.0659 46.9942 16.0137 46.996H8.94731C8.89508 46.9942 8.84548 46.9728 8.80852 46.9361C8.77156 46.8994 8.74999 46.8501 8.74816 46.7982V39.7738C8.74816 39.7213 8.76914 39.671 8.80649 39.6339C8.84384 39.5968 8.89449 39.576 8.94731 39.576V39.5467ZM33.2445 39.5467H40.3109C40.3637 39.5467 40.4143 39.5675 40.4517 39.6046C40.489 39.6417 40.51 39.692 40.51 39.7444V46.7982C40.5082 46.8501 40.4866 46.8994 40.4496 46.9361C40.4127 46.9728 40.3631 46.9942 40.3109 46.996H33.2445C33.1922 46.9942 33.1426 46.9728 33.1057 46.9361C33.0687 46.8994 33.0471 46.8501 33.0453 46.7982V39.7738C33.0453 39.7213 33.0663 39.671 33.1036 39.6339C33.141 39.5968 33.1917 39.576 33.2445 39.576V39.5467ZM21.0959 39.5467H28.1623C28.2151 39.5467 28.2658 39.5675 28.3031 39.6046C28.3405 39.6417 28.3614 39.692 28.3614 39.7444V46.7982C28.3596 46.8501 28.338 46.8994 28.3011 46.9361C28.2641 46.9728 28.2145 46.9942 28.1623 46.996H21.0959C21.0437 46.9942 20.9941 46.9728 20.9571 46.9361C20.9201 46.8994 20.8986 46.8501 20.8967 46.7982V39.7738C20.8925 39.7454 20.8944 39.7165 20.9025 39.689C20.9106 39.6616 20.9246 39.6361 20.9435 39.6145C20.9624 39.593 20.9859 39.5757 21.0122 39.564C21.0385 39.5523 21.0671 39.5464 21.0959 39.5467Z" fill="#2B3137"/>
</svg>
