<svg width="27" height="27" viewBox="0 0 27 27" fill="none" xmlns="http://www.w3.org/2000/svg">
<path d="M22.2492 6.34175L20.6583 4.75075L22.2492 6.34175ZM20.6583 4.75075C21.7189 3.69009 23.3099 5.28109 22.2492 6.34175L21.4505 7.14049C20.3898 8.20116 18.7988 6.61017 19.8595 5.5495L20.6583 4.75075L21.457 3.952C22.5177 2.89134 24.1087 4.48234 23.048 5.543L22.2492 6.34175C21.1886 7.40241 19.5976 5.81142 20.6583 4.75075ZM6.34175 22.2492L4.75075 20.6583L6.34175 22.2492ZM6.34175 22.2492L5.543 23.048C4.48234 24.1087 2.89134 22.5177 3.952 21.457L4.75075 20.6583L5.5495 19.8595C6.61017 18.7988 8.20116 20.3898 7.14049 21.4505L6.34175 22.2492C5.28109 23.3099 3.69009 21.7189 4.75075 20.6583C5.81142 19.5976 7.40241 21.1886 6.34175 22.2492ZM24.75 14.625V12.375V14.625ZM24.75 12.375C26.25 12.375 26.25 14.625 24.75 14.625H23.625C22.125 14.625 22.125 12.375 23.625 12.375H24.75H25.875C27.375 12.375 27.375 14.625 25.875 14.625H24.75C23.25 14.625 23.25 12.375 24.75 12.375ZM2.25 14.625V12.375V14.625ZM2.25 12.375C3.75 12.375 3.75 14.625 2.25 14.625H1.125C-0.375 14.625 -0.375 12.375 1.125 12.375H2.25H3.375C4.875 12.375 4.875 14.625 3.375 14.625H2.25C0.75 14.625 0.75 12.375 2.25 12.375ZM20.6583 22.2492L22.2492 20.6583L20.6583 22.2492ZM22.2492 20.6583C23.3099 21.7189 21.7189 23.3099 20.6583 22.2492L19.8595 21.4505C18.7988 20.3898 20.3898 18.7988 21.4505 19.8595L22.2492 20.6583L23.048 21.457C24.1087 22.5177 22.5177 24.1087 21.457 23.048L20.6583 22.2492C19.5976 21.1886 21.1886 19.5976 22.2492 20.6583ZM4.75075 6.34175L6.34175 4.75075L4.75075 6.34175ZM6.34175 4.75075C7.40241 5.81142 5.81142 7.40241 4.75075 6.34175L3.952 5.543C2.89134 4.48234 4.48234 2.89134 5.543 3.952L6.34175 4.75075L7.14049 5.5495C8.20116 6.61017 6.61017 8.20116 5.5495 7.14049L4.75075 6.34175C3.69009 5.28109 5.28109 3.69009 6.34175 4.75075ZM12.375 24.75H14.625H12.375ZM14.625 24.75C14.625 26.25 12.375 26.25 12.375 24.75V23.625C12.375 22.125 14.625 22.125 14.625 23.625V24.75V25.875C14.625 27.375 12.375 27.375 12.375 25.875V24.75C12.375 23.25 14.625 23.25 14.625 24.75ZM12.375 2.25H14.625H12.375ZM14.625 2.25C14.625 3.75 12.375 3.75 12.375 2.25V1.125C12.375 -0.375 14.625 -0.375 14.625 1.125V2.25V3.375C14.625 4.875 12.375 4.875 12.375 3.375V2.25C12.375 0.75 14.625 0.75 14.625 2.25ZM13.5 20.25C9.77208 20.25 6.75 17.2279 6.75 13.5C6.75 9.77208 9.77208 6.75 13.5 6.75C17.2279 6.75 20.25 9.77208 20.25 13.5C20.25 17.2279 17.2279 20.25 13.5 20.25Z" fill="white"/>
</svg>
