<svg width="100" height="102" viewBox="0 0 100 102" fill="none" xmlns="http://www.w3.org/2000/svg">
<path d="M17.2388 72.8668C28.5622 73.0916 38.3749 74.8188 45.6162 77.8616C45.7398 77.9132 45.8706 77.939 46.0003 77.939C46.1973 77.939 46.3932 77.88 46.5614 77.7651C46.8412 77.5743 47.009 77.2537 47.009 76.9104L47.0129 21.6978C47.0129 21.2764 46.7609 20.8975 46.3771 20.7419L17.6312 9.07435C17.3209 8.94828 16.969 8.98742 16.6923 9.17885C16.4157 9.37049 16.25 9.68927 16.25 10.0303V71.8383C16.25 72.3987 16.6896 72.8558 17.2388 72.8668Z" fill="white"/>
<path d="M99.5935 18.8803C99.3382 18.6863 99.0079 18.6269 98.7024 18.7197L88.5356 21.8201C88.1083 21.9504 87.8157 22.3511 87.8157 22.8056V76.1428C87.8157 76.1428 87.8609 76.9843 86.9924 76.9843C85.9978 76.9843 85.3446 76.9843 85.3446 76.9843C77.1429 76.9843 61.9012 77.8526 51.9707 83.6686L49.9998 84.8197L48.029 83.6686C38.0984 77.8528 22.8569 76.9843 14.6552 76.9843C14.6552 76.9843 12.9756 76.9843 12.5519 76.9843C12.1598 76.9843 12.1838 76.5037 12.1838 76.5039V22.8056C12.1838 22.3511 11.8912 21.9504 11.4642 21.8201L1.29738 18.7197C0.991904 18.6269 0.661546 18.6863 0.406052 18.8803C0.150559 19.0743 0 19.3801 0 19.705V84.2359C0 84.5261 0.120488 84.803 0.331188 84.9982C0.542094 85.1931 0.823718 85.2885 1.107 85.2597C4.12875 84.9574 8.85289 84.5974 14.1977 84.5974C25.9367 84.5974 35.3707 86.3459 41.4841 89.6557C42.3823 90.1363 47.5896 92.9985 50.0002 92.9985C52.4108 92.9985 57.6179 90.1365 58.5159 89.6557C64.6295 86.3459 74.0635 84.5974 85.8025 84.5974C91.1469 84.5974 95.8715 84.9574 98.893 85.2597C99.1765 85.2885 99.4581 85.1931 99.669 84.9982C99.8797 84.803 100 84.5263 100 84.2359V19.705C99.9998 19.3801 99.849 19.0743 99.5935 18.8803Z" fill="white"/>
<path d="M53.4374 77.7651C53.6058 77.8799 53.8018 77.939 53.9986 77.939C54.1284 77.939 54.259 77.9131 54.3828 77.8615C61.624 74.8185 71.4368 73.0913 82.7602 72.8667C83.3094 72.8557 83.7492 72.3986 83.7492 71.8385V10.0302C83.7492 9.689 83.5835 9.37022 83.3069 9.17879C83.0302 8.98757 82.6783 8.94822 82.3679 9.0743L53.622 20.7418C53.2381 20.8975 52.9863 21.2763 52.9863 21.6977L52.9903 76.9103C52.9899 77.2536 53.1578 77.5743 53.4374 77.7651Z" fill="white"/>
</svg>
