<svg width="36" height="35" viewBox="0 0 36 35" fill="none" xmlns="http://www.w3.org/2000/svg">
<path fill-rule="evenodd" clip-rule="evenodd" d="M0.248047 17.5C0.248047 7.83502 8.08306 0 17.748 0C27.413 0 35.248 7.83502 35.248 17.5C35.248 27.165 27.413 35 17.748 35C8.08306 35 0.248047 27.165 0.248047 17.5ZM27.0814 17.4871C27.0814 16.8554 27.0171 16.2237 26.8909 15.6107C26.7678 15.0108 26.5855 14.421 26.3467 13.859C26.1134 13.3057 25.824 12.7723 25.4859 12.2753C25.1527 11.7811 24.769 11.3187 24.3474 10.8959C23.9249 10.4753 23.46 10.0936 22.9665 9.75952C22.4679 9.42227 21.9342 9.13328 21.3809 8.89847C20.8171 8.66045 20.2269 8.47798 19.6276 8.35599C19.0124 8.2304 18.3798 8.16667 17.7477 8.16667C17.1151 8.16667 16.4825 8.2304 15.8681 8.35599C15.2679 8.47794 14.6777 8.66041 14.1144 8.89847C13.5611 9.13332 13.027 9.42227 12.5284 9.75952C12.0348 10.0936 11.5699 10.4753 11.1484 10.8959C10.7264 11.3187 10.3426 11.7811 10.009 12.2753C9.67264 12.7723 9.38276 13.3056 9.14852 13.859C8.90968 14.421 8.72695 15.0108 8.60344 15.6107C8.4785 16.2237 8.41471 16.8554 8.41471 17.4871C8.41471 18.1183 8.47853 18.7486 8.6034 19.363C8.72691 19.9628 8.90964 20.5517 9.14849 21.1146C9.38273 21.6676 9.67261 22.2005 10.009 22.6975C10.3426 23.1913 10.7263 23.6545 11.1483 24.0769C11.5699 24.4974 12.0348 24.8801 12.5284 25.2146C13.0269 25.5504 13.5611 25.8394 14.1144 26.0738C14.6777 26.3114 15.2679 26.4934 15.8681 26.6163C16.4825 26.7428 17.115 26.8074 17.7476 26.8074C18.3797 26.8074 19.0124 26.7428 19.6276 26.6163C20.2269 26.4934 20.8171 26.3114 21.3809 26.0738C21.9342 25.8394 22.4678 25.5504 22.9664 25.2146C23.46 24.8801 23.9249 24.4974 24.3474 24.0769C24.7689 23.6545 25.1527 23.1913 25.4858 22.6975C25.824 22.2005 26.1134 21.6676 26.3467 21.1146C26.5855 20.5517 26.7678 19.9628 26.8909 19.363C27.0171 18.7486 27.0814 18.1183 27.0814 17.4871Z" fill="white"/>
<path fill-rule="evenodd" clip-rule="evenodd" d="M19.4626 15.5802C22.6096 14.2968 23.888 12.4523 23.9031 12.4309C25.0214 13.7866 25.6973 15.5183 25.7156 17.4051C25.6002 17.3815 22.9026 16.8026 20.1645 17.1466C20.1084 17.0101 20.051 16.8736 19.9922 16.7343C19.8268 16.3461 19.6476 15.9598 19.4626 15.5802ZM22.2017 24.0878C22.1206 23.6081 21.6958 21.2716 20.6503 18.4027C23.223 17.9908 25.453 18.6958 25.6171 18.7485C25.2625 20.9667 23.9914 22.8818 22.2017 24.0878ZM19.1568 18.7713C20.2784 21.6821 20.7414 24.1196 20.8595 24.815C19.9028 25.2214 18.8514 25.4458 17.7476 25.4458C15.8991 25.4458 14.2019 24.8118 12.8487 23.761C12.8653 23.725 14.4011 20.4257 19.1039 18.7886C19.1213 18.7823 19.139 18.7772 19.1568 18.7713ZM23.0116 11.5135C22.992 11.5426 21.8567 13.2683 18.8492 14.3942C17.486 11.8948 15.9888 9.91156 15.8695 9.75135C16.4715 9.60664 17.1 9.52835 17.7476 9.52835C19.7657 9.52835 21.6083 10.2778 23.0116 11.5135ZM17.9668 16.1C18.1951 16.5469 18.4135 17.0001 18.6135 17.4525C18.5087 17.4825 18.403 17.5135 18.2991 17.5481C13.9977 18.937 11.8164 22.8012 11.8192 22.8053C10.5494 21.3958 9.77694 19.5318 9.77694 17.4871C9.77694 17.4015 9.78103 17.3187 9.78333 17.2331C9.9246 17.2386 13.8628 17.3268 17.9668 16.1ZM14.3468 10.2879C14.453 10.4295 15.9269 12.4268 17.3064 14.8743C13.4795 15.8897 10.158 15.8478 9.94784 15.846C10.4651 13.3812 12.1241 11.336 14.3468 10.2879Z" fill="white"/>
</svg>
