<svg width="99" height="102" viewBox="0 0 99 102" fill="none" xmlns="http://www.w3.org/2000/svg">
<path d="M89.0623 63.3021C89.1962 63.3021 89.3218 63.3187 89.4473 63.3353C90.2676 61.9241 91.0125 60.4383 91.6821 58.886C91.6988 58.8528 91.7072 58.8279 91.7239 58.7947C92.7367 56.429 93.4983 53.9719 94.0089 51.4236C94.4106 49.448 94.6534 47.4226 94.7454 45.3474H82.7012C82.4836 51.4153 80.659 57.3919 77.2524 63.2937H89.0623V63.3021ZM9.25566 92.5624C9.26403 90.4706 10.4609 88.4286 12.4027 86.1459L1.13689 79.0819C0.42545 78.7748 0.44219 78.3431 0.852313 77.8368L3.23772 75.8197C3.67296 75.5541 4.1333 75.4379 4.62712 75.579L18.5378 77.9115L27.5857 67.9837L0.542628 49.8215C-0.1437 49.4231 -0.202289 48.9748 0.500779 48.4519L4.40114 45.364L39.6717 55.1921L50.0922 44.1438C53.5908 41.1472 56.9806 39.8024 59.592 40.4416C61.0316 40.7902 61.5338 41.2219 61.9774 42.5583C62.8395 45.1814 61.5003 48.7009 58.3365 52.3284L47.2046 62.6546L57.1145 97.6342L54.0009 101.502C53.4736 102.2 53.0217 102.142 52.6199 101.469L34.3067 74.641L24.2963 83.6142L26.6482 97.4101C26.7821 97.8999 26.6733 98.3564 26.4055 98.7881L24.3716 101.154C23.8611 101.561 23.4258 101.577 23.1161 100.872L15.9934 89.6987C13.6749 91.6327 11.616 92.8198 9.50675 92.8198C9.2975 92.8115 9.25566 92.7451 9.25566 92.5624ZM86.9615 67.1121H74.8252C71.5023 71.8851 67.1416 76.6083 61.7514 81.2733L60.5964 77.2059C64.3294 73.8524 67.4932 70.4906 70.0962 67.1121H57.7339L57.0978 64.8709L58.7885 63.3021H72.7829C76.5828 57.367 78.6251 51.3821 78.8678 45.3557H71.5274C71.7199 44.069 71.745 42.7907 71.5944 41.5456H78.7841C78.2819 35.652 76.0806 29.6754 72.1384 23.5992H56.7295V31.1198C55.5326 31.319 54.3357 31.6593 53.1305 32.1242C53.0468 32.1574 52.9714 32.1906 52.8877 32.2238V23.6075H37.4788C33.5366 29.6754 31.3354 35.6603 30.8332 41.5539H41.0444L37.4537 45.364H37.4035L23.7355 41.5539H26.9998C27.4434 35.6105 29.4354 29.6339 32.9926 23.6075H20.1532C19.3413 25.0104 18.6048 26.4796 17.9352 28.0153C17.9185 28.0485 17.9101 28.0734 17.8934 28.1066C16.8806 30.4723 16.1189 32.9294 15.6084 35.4777C15.3657 36.6813 15.1815 37.8932 15.0476 39.1301L11.2979 38.0842C11.4318 36.9552 11.616 35.8346 11.8336 34.7306C12.3944 31.9499 13.2397 29.2438 14.3613 26.6124C14.378 26.5792 14.3864 26.546 14.4031 26.5045C15.5414 23.8815 16.889 21.4161 18.4541 19.1002C20.0193 16.7926 21.7937 14.6509 23.7774 12.692C25.7527 10.7247 27.9121 8.96488 30.2389 7.41263C32.5741 5.86038 35.0683 4.51565 37.7048 3.39504H37.7132C40.3915 2.25782 43.1536 1.41114 45.991 0.846684C48.8618 0.282228 51.7913 0 54.8128 0C57.826 0 60.7638 0.282228 63.6095 0.846684C66.4134 1.40284 69.142 2.24122 71.7953 3.35353C71.8288 3.37013 71.8706 3.37843 71.9041 3.39504C74.549 4.52395 77.0348 5.86038 79.37 7.41263C81.7052 8.96488 83.8562 10.7247 85.8315 12.692C87.8236 14.6509 89.5896 16.7926 91.1548 19.1002C92.7199 21.4161 94.0758 23.8898 95.2058 26.5045V26.5128C96.3524 29.1691 97.2062 31.9084 97.7753 34.7223C98.3445 37.5446 98.629 40.4582 98.629 43.4465C98.629 46.4348 98.3445 49.3484 97.7753 52.1707C97.2145 54.9514 96.3692 57.6575 95.2476 60.2806C95.2393 60.3138 95.2225 60.347 95.2058 60.3885C94.0675 63.0115 92.7199 65.4769 91.1548 67.7928C89.5896 70.1004 87.8236 72.242 85.8315 74.201C83.8479 76.1683 81.6968 77.9281 79.37 79.4803C77.0348 81.0326 74.5406 82.3773 71.9041 83.4979H71.8957C69.2174 84.6352 66.4553 85.4818 63.6179 86.0463C63.4589 86.0795 63.2999 86.1044 63.1492 86.1376L62.103 82.4603C62.3541 82.4188 62.6135 82.369 62.8646 82.3192C65.4677 81.8046 67.9786 81.0326 70.3891 80.0116C72.8415 78.9657 75.1265 77.7372 77.244 76.3343C79.3616 74.9232 81.3202 73.3211 83.1281 71.5282L83.1364 71.5199C84.5175 70.1502 85.798 68.681 86.9615 67.1121ZM22.6558 19.7975H35.445C39.0858 14.5928 43.9069 9.35502 49.9164 4.084C48.8535 4.20852 47.7989 4.37453 46.7526 4.58205C44.1496 5.0967 41.647 5.86868 39.2281 6.88968C36.7758 7.93558 34.4908 9.1641 32.3732 10.5669C30.2556 11.9781 28.2971 13.5801 26.4892 15.3731L26.4808 15.3814C25.0998 16.7594 23.8192 18.2369 22.6558 19.7975ZM59.6924 4.084C65.702 9.35502 70.523 14.5845 74.1639 19.7975H86.9615C85.798 18.2369 84.5175 16.7594 83.1281 15.3814L83.1197 15.3731C81.3202 13.5801 79.3533 11.9781 77.2357 10.5669C75.1181 9.1641 72.8331 7.93558 70.3808 6.88968C70.3473 6.87308 70.3222 6.86478 70.2887 6.84818C67.9033 5.84378 65.4258 5.0884 62.8563 4.58205C61.8184 4.37453 60.7638 4.20852 59.6924 4.084ZM89.4557 23.6075H76.6247C80.1902 29.6256 82.1739 35.6105 82.6175 41.5539H94.7371C94.645 39.4787 94.3939 37.4533 94.0005 35.4777C93.4816 32.8961 92.7032 30.4142 91.6737 28.0153C91.0041 26.4796 90.2759 25.0104 89.4557 23.6075ZM56.7295 6.55765V19.7975H69.4433C66.1038 15.4312 61.8686 11.0152 56.7295 6.55765ZM52.8877 19.7975V6.55765C47.7487 11.0152 43.5135 15.4312 40.1739 19.7975H52.8877Z" fill="white"/>
</svg>
