<svg width="245" height="266" viewBox="0 0 245 266" fill="none" xmlns="http://www.w3.org/2000/svg">
<g filter="url(#filter0_d_865_435)">
<path opacity="0.468225" fill-rule="evenodd" clip-rule="evenodd" d="M164.411 46.4712H95.346C86.6598 46.4712 79.6182 53.4826 79.6182 62.1315V235.799C79.6182 244.448 86.6598 251.459 95.346 251.459H164.411C173.097 251.459 180.138 244.448 180.138 235.799V62.1315C180.138 53.4826 173.097 46.4712 164.411 46.4712Z" stroke="url(#paint0_linear_865_435)" stroke-width="2" stroke-linecap="round" stroke-linejoin="round"/>
<path opacity="0.307826" fill-rule="evenodd" clip-rule="evenodd" d="M163.975 47.8752H95.782C87.6343 47.8752 81.0293 54.4776 81.0293 62.6219V235.309C81.0293 243.453 87.6343 250.055 95.782 250.055H163.975C172.123 250.055 178.728 243.453 178.728 235.309V62.6219C178.728 54.4776 172.123 47.8752 163.975 47.8752Z" fill="url(#paint1_linear_865_435)"/>
<path fill-rule="evenodd" clip-rule="evenodd" d="M150.168 99.9678C148.844 88.522 143.081 82.7991 132.878 82.7991C122.675 82.7991 116.912 88.522 115.588 99.9678H150.168Z" fill="#F2C94C"/>
<path d="M133.006 77.1616C137.781 77.1616 141.651 73.3183 141.651 68.5773C141.651 63.8363 137.781 59.9929 133.006 59.9929C128.232 59.9929 124.361 63.8363 124.361 68.5773C124.361 73.3183 128.232 77.1616 133.006 77.1616Z" fill="#F2C94C"/>
<path opacity="0.15" d="M109.236 111.364H156.389" stroke="white" stroke-width="10"/>
<path opacity="0.067234" d="M173.808 164.839H132.877V205.515H173.808V164.839Z" fill="url(#paint2_linear_865_435)"/>
<g opacity="0.67">
<g opacity="0.67" filter="url(#filter1_d_865_435)">
<path opacity="0.4" d="M146.387 194.18C149.944 194.18 152.827 191.314 152.827 187.779C152.827 184.243 149.944 181.377 146.387 181.377C142.83 181.377 139.947 184.243 139.947 187.779C139.947 191.314 142.83 194.18 146.387 194.18Z" fill="url(#paint3_linear_865_435)"/>
</g>
<g opacity="0.67">
<path opacity="0.4" d="M153.676 198.073C156.255 198.073 158.345 195.996 158.345 193.432C158.345 190.869 156.255 188.792 153.676 188.792C151.098 188.792 149.008 190.869 149.008 193.432C149.008 195.996 151.098 198.073 153.676 198.073Z" fill="url(#paint4_linear_865_435)"/>
</g>
<g opacity="0.67">
<path opacity="0.4" d="M156.858 192.44C162.075 192.44 166.304 188.224 166.304 183.023C166.304 177.822 162.075 173.605 156.858 173.605C151.641 173.605 147.412 177.822 147.412 183.023C147.412 188.224 151.641 192.44 156.858 192.44Z" fill="url(#paint5_linear_865_435)"/>
</g>
</g>
<path opacity="0.07" d="M126.526 165.891H85.5947V206.567H126.526V165.891Z" fill="url(#paint6_linear_865_435)"/>
<path opacity="0.07" fill-rule="evenodd" clip-rule="evenodd" d="M96.4618 206.567H115.659C121.66 206.567 126.526 201.724 126.526 195.75V191.021C125.507 190.327 124.515 189.68 123.467 189.68C122.65 189.68 121.866 190.074 121.077 190.47C120.487 190.766 119.895 191.064 119.283 191.199C117.957 191.516 116.529 190.883 115.202 189.997C113.774 189.11 112.345 187.908 111.019 186.136C110.701 185.742 110.389 185.321 110.08 184.903C108.996 183.439 107.946 182.021 106.835 182.021C106.031 182.021 105.19 182.881 104.335 183.756C103.778 184.325 103.215 184.9 102.652 185.249C101.827 185.8 100.963 185.789 100.108 185.777C99.5882 185.77 99.0718 185.763 98.5701 185.882C97.2515 186.116 96.0199 187.159 94.7148 188.264C94.6059 188.356 94.4966 188.448 94.3866 188.541C93.0602 189.68 91.6316 190.883 90.2031 191.516C88.8767 192.085 87.4482 192.085 86.1217 190.566C85.9441 190.385 85.7682 190.181 85.5947 189.959V195.75C85.5947 201.724 90.4601 206.567 96.4618 206.567Z" fill="url(#paint7_linear_865_435)"/>
<path opacity="0.5" fill-rule="evenodd" clip-rule="evenodd" d="M126.526 188.528V201.308H85.5947V177.708C86.3495 177.439 87.1083 177.363 87.8902 177.625C88.7367 177.963 89.6147 178.745 90.5088 179.54C91.4636 180.39 92.4368 181.256 93.41 181.618C94.3536 181.958 95.3363 181.727 96.316 181.498C97.1534 181.302 97.9886 181.106 98.7952 181.267C100.54 181.592 102.169 183.296 103.896 185.104C104.035 185.249 104.175 185.395 104.315 185.541C104.48 185.712 104.643 185.884 104.806 186.054C106.507 187.835 108.115 189.519 109.835 190.094C111.585 190.795 113.47 190.094 115.22 189.113C115.659 188.885 116.09 188.638 116.518 188.393C117.927 187.585 119.294 186.802 120.74 186.802C121.818 186.802 122.853 187.238 123.894 187.676C124.672 188.004 125.453 188.333 126.26 188.483C126.348 188.501 126.437 188.516 126.526 188.528Z" fill="url(#paint8_linear_865_435)"/>
<path opacity="0.2" fill-rule="evenodd" clip-rule="evenodd" d="M85.5947 185.09V201.307H126.526V184.327C126.099 184.199 125.668 184.125 125.231 184.125C123.951 184.125 122.612 184.853 121.25 185.594C120.363 186.076 119.467 186.564 118.57 186.86C117.257 187.326 115.882 187.316 114.521 187.306C113.693 187.3 112.871 187.294 112.073 187.396C109.974 187.594 108.013 188.477 105.935 189.413C105.762 189.491 105.588 189.569 105.413 189.648C103.301 190.613 101.027 191.632 98.7525 192.168C96.6408 192.65 94.3666 192.65 92.2548 191.363C90.2628 190.283 88.3953 188.216 87.1984 186.891C87.0289 186.703 86.8729 186.53 86.7318 186.377L85.5947 185.09Z" fill="url(#paint9_linear_865_435)"/>
<path d="M114.887 173.255H109.937C108.381 173.255 107.119 174.511 107.119 176.06C107.119 177.609 108.381 178.865 109.937 178.865H114.887C116.443 178.865 117.705 177.609 117.705 176.06C117.705 174.511 116.443 173.255 114.887 173.255Z" fill="#F2C94C"/>
<path d="M107.119 181.51C107.419 181.51 107.662 181.268 107.662 180.969C107.662 180.671 107.419 180.428 107.119 180.428C106.818 180.428 106.575 180.671 106.575 180.969C106.575 181.268 106.818 181.51 107.119 181.51Z" fill="#F2994A"/>
<g filter="url(#filter2_d_865_435)">
<path opacity="0.477865" d="M85.5947 150.813C87.9705 150.738 90.4923 149.202 92.8136 147.788C93.1862 147.561 93.5545 147.334 93.9197 147.109C96.4506 145.55 98.828 144.085 101.411 143.37C102.665 142.988 103.978 142.785 105.322 142.576C106.857 142.338 108.432 142.094 110.008 141.571C110.921 141.292 111.866 140.9 112.821 140.505C114.674 139.736 116.563 138.953 118.336 138.953C120.216 138.953 121.988 139.681 123.789 140.422C124.819 140.845 125.858 141.273 126.933 141.571C129.62 142.552 132.575 142.552 135.262 140.262C136.505 139.367 137.748 138.067 138.971 136.788C140.655 135.026 142.302 133.304 143.858 132.735C145.833 132.188 147.687 133.175 149.581 134.183C150.523 134.684 151.474 135.191 152.456 135.517C153.799 135.926 155.209 135.926 156.62 135.926C158.03 135.926 159.441 135.926 160.784 136.335C162.028 136.679 163.273 137.343 164.497 137.996C166.18 138.893 167.826 139.771 169.381 139.771C170.859 139.771 172.269 139.116 173.68 138.462C173.84 138.387 174.001 138.313 174.161 138.239" stroke="url(#paint10_linear_865_435)" stroke-width="5" stroke-linecap="round"/>
<path opacity="0.2" d="M143.816 141.345C148.103 141.345 151.578 137.813 151.578 133.455C151.578 129.098 148.103 125.566 143.816 125.566C139.528 125.566 136.053 129.098 136.053 133.455C136.053 137.813 139.528 141.345 143.816 141.345Z" fill="#F39800"/>
<path d="M143.992 137.488C146.233 137.488 148.05 135.683 148.05 133.455C148.05 131.228 146.233 129.423 143.992 129.423C141.751 129.423 139.935 131.228 139.935 133.455C139.935 135.683 141.751 137.488 143.992 137.488Z" fill="#F39800"/>
</g>
<path opacity="0.3" fill-rule="evenodd" clip-rule="evenodd" d="M144.277 27H216V59.7875H156.28L144.277 66.4832V27Z" fill="url(#paint11_linear_865_435)"/>
<path opacity="0.15" d="M186.659 36.7356H161.665V39.4399H186.659V36.7356Z" fill="white"/>
<path opacity="0.15" d="M212.197 43.7668H161.665V46.4712H212.197V43.7668Z" fill="white"/>
<path opacity="0.3" fill-rule="evenodd" clip-rule="evenodd" d="M99.7227 99.4761H28.0001V132.264H87.7201L99.7227 138.959V99.4761Z" fill="url(#paint12_linear_865_435)"/>
<path opacity="0.15" d="M57.2956 109.212H82.0449V111.916H57.2956V109.212Z" fill="white"/>
<path opacity="0.15" d="M32.041 116.243H82.5498V118.947H32.041V116.243Z" fill="white"/>
</g>
<defs>
<filter id="filter0_d_865_435" x="24" y="27" width="196" height="233.459" filterUnits="userSpaceOnUse" color-interpolation-filters="sRGB">
<feFlood flood-opacity="0" result="BackgroundImageFix"/>
<feColorMatrix in="SourceAlpha" type="matrix" values="0 0 0 0 0 0 0 0 0 0 0 0 0 0 0 0 0 0 127 0" result="hardAlpha"/>
<feOffset dy="4"/>
<feGaussianBlur stdDeviation="2"/>
<feComposite in2="hardAlpha" operator="out"/>
<feColorMatrix type="matrix" values="0 0 0 0 0 0 0 0 0 0 0 0 0 0 0 0 0 0 0.25 0"/>
<feBlend mode="normal" in2="BackgroundImageFix" result="effect1_dropShadow_865_435"/>
<feBlend mode="normal" in="SourceGraphic" in2="effect1_dropShadow_865_435" result="shape"/>
</filter>
<filter id="filter1_d_865_435" x="135.947" y="179.377" width="20.8799" height="20.8032" filterUnits="userSpaceOnUse" color-interpolation-filters="sRGB">
<feFlood flood-opacity="0" result="BackgroundImageFix"/>
<feColorMatrix in="SourceAlpha" type="matrix" values="0 0 0 0 0 0 0 0 0 0 0 0 0 0 0 0 0 0 127 0" result="hardAlpha"/>
<feOffset dy="2"/>
<feGaussianBlur stdDeviation="2"/>
<feColorMatrix type="matrix" values="0 0 0 0 0 0 0 0 0 0 0 0 0 0 0 0 0 0 0.5 0"/>
<feBlend mode="normal" in2="BackgroundImageFix" result="effect1_dropShadow_865_435"/>
<feBlend mode="normal" in="SourceGraphic" in2="effect1_dropShadow_865_435" result="shape"/>
</filter>
<filter id="filter2_d_865_435" x="79.0947" y="123.566" width="101.567" height="35.7473" filterUnits="userSpaceOnUse" color-interpolation-filters="sRGB">
<feFlood flood-opacity="0" result="BackgroundImageFix"/>
<feColorMatrix in="SourceAlpha" type="matrix" values="0 0 0 0 0 0 0 0 0 0 0 0 0 0 0 0 0 0 127 0" result="hardAlpha"/>
<feOffset dy="2"/>
<feGaussianBlur stdDeviation="2"/>
<feColorMatrix type="matrix" values="0 0 0 0 0 0 0 0 0 0 0 0 0 0 0 0 0 0 0.5 0"/>
<feBlend mode="normal" in2="BackgroundImageFix" result="effect1_dropShadow_865_435"/>
<feBlend mode="normal" in="SourceGraphic" in2="effect1_dropShadow_865_435" result="shape"/>
</filter>
<linearGradient id="paint0_linear_865_435" x1="126.103" y1="42.0836" x2="141.735" y2="250.57" gradientUnits="userSpaceOnUse">
<stop stop-color="white"/>
<stop offset="1" stop-color="white" stop-opacity="0"/>
</linearGradient>
<linearGradient id="paint1_linear_865_435" x1="33.5363" y1="18.4234" x2="195.341" y2="107.757" gradientUnits="userSpaceOnUse">
<stop stop-color="white"/>
<stop offset="1" stop-color="white" stop-opacity="0"/>
</linearGradient>
<linearGradient id="paint2_linear_865_435" x1="149.045" y1="166.843" x2="161.64" y2="200.734" gradientUnits="userSpaceOnUse">
<stop stop-color="white"/>
<stop offset="1" stop-color="white" stop-opacity="0"/>
</linearGradient>
<linearGradient id="paint3_linear_865_435" x1="139.947" y1="186.794" x2="155.242" y2="186.669" gradientUnits="userSpaceOnUse">
<stop stop-color="white"/>
<stop offset="1" stop-color="white" stop-opacity="0"/>
</linearGradient>
<linearGradient id="paint4_linear_865_435" x1="155.482" y1="194.67" x2="151.224" y2="187.532" gradientUnits="userSpaceOnUse">
<stop stop-color="white"/>
<stop offset="1" stop-color="white" stop-opacity="0"/>
</linearGradient>
<linearGradient id="paint5_linear_865_435" x1="156.858" y1="176.683" x2="152.806" y2="191.585" gradientUnits="userSpaceOnUse">
<stop stop-color="white"/>
<stop offset="1" stop-color="white" stop-opacity="0"/>
</linearGradient>
<linearGradient id="paint6_linear_865_435" x1="93.884" y1="168.065" x2="99.1057" y2="204.363" gradientUnits="userSpaceOnUse">
<stop stop-color="white"/>
<stop offset="1" stop-color="white" stop-opacity="0"/>
</linearGradient>
<linearGradient id="paint7_linear_865_435" x1="93.728" y1="153.388" x2="98.2324" y2="201.224" gradientUnits="userSpaceOnUse">
<stop stop-color="white"/>
<stop offset="1" stop-color="white" stop-opacity="0"/>
</linearGradient>
<linearGradient id="paint8_linear_865_435" x1="99.6624" y1="165.479" x2="99.6624" y2="200.099" gradientUnits="userSpaceOnUse">
<stop stop-color="white"/>
<stop offset="1" stop-color="white" stop-opacity="0"/>
</linearGradient>
<linearGradient id="paint9_linear_865_435" x1="109.439" y1="163.722" x2="109.199" y2="199.235" gradientUnits="userSpaceOnUse">
<stop stop-color="white"/>
<stop offset="1" stop-color="white" stop-opacity="0"/>
</linearGradient>
<linearGradient id="paint10_linear_865_435" x1="129.878" y1="132.579" x2="129.878" y2="150.813" gradientUnits="userSpaceOnUse">
<stop stop-color="white"/>
<stop offset="1" stop-color="white" stop-opacity="0"/>
</linearGradient>
<linearGradient id="paint11_linear_865_435" x1="148.496" y1="34.8907" x2="182.966" y2="80.3864" gradientUnits="userSpaceOnUse">
<stop stop-color="white"/>
<stop offset="1" stop-color="white" stop-opacity="0"/>
</linearGradient>
<linearGradient id="paint12_linear_865_435" x1="95.5041" y1="107.367" x2="61.0341" y2="152.862" gradientUnits="userSpaceOnUse">
<stop stop-color="white"/>
<stop offset="1" stop-color="white" stop-opacity="0"/>
</linearGradient>
</defs>
</svg>
