<svg width="245" height="266" viewBox="0 0 245 266" fill="none" xmlns="http://www.w3.org/2000/svg">
<g filter="url(#filter0_d_865_438)">
<path opacity="0.3" fill-rule="evenodd" clip-rule="evenodd" d="M207.712 79.2461H156.184L156.184 103.687L162.203 99.0897H207.712V79.2461Z" fill="url(#paint0_linear_865_438)"/>
<path opacity="0.15" d="M187.299 82.624H169.065V84.8098H187.299V82.624Z" fill="white"/>
<path opacity="0.15" d="M191.064 86.9956H168.867V89.1814H191.064V86.9956Z" fill="white"/>
<path opacity="0.15" d="M198.199 91.3672H169.065V93.5529H198.199V91.3672Z" fill="white"/>
<path d="M219.999 84.2136H195.424V89.7773H219.999V84.2136Z" fill="#F2994A"/>
<path d="M163.317 91.5659C165.397 91.5659 167.083 89.8756 167.083 87.7905C167.083 85.7054 165.397 84.0151 163.317 84.0151C161.238 84.0151 159.552 85.7054 159.552 87.7905C159.552 89.8756 161.238 91.5659 163.317 91.5659Z" fill="#F2994A"/>
<path fill-rule="evenodd" clip-rule="evenodd" d="M82.771 153.146L99.1906 127.398L104.401 167.52C99.2958 173.786 88.3599 187.203 85.4549 190.741C82.5499 194.279 80.8764 192.215 80.4028 190.741C80.3501 181.263 80.2764 161.707 80.4028 159.306C80.5291 156.905 82.0342 154.199 82.771 153.146Z" fill="#F2C94C"/>
<path fill-rule="evenodd" clip-rule="evenodd" d="M163.697 153.266L147.867 128.492L142.326 167.876C147.92 174.705 159.739 189.188 162.272 192.491C165.311 194.143 166.282 191.803 166.388 190.427C166.335 183.28 166.261 167.908 166.388 163.588C166.514 159.269 164.646 154.907 163.697 153.266Z" fill="#F2994A"/>
<path opacity="0.30426" fill-rule="evenodd" clip-rule="evenodd" d="M151.187 72.766C149.163 49.8308 131.999 34.699 123.67 30C115.605 34.7518 98.0157 50.0169 96.6278 72.766C94.8886 101.277 102.795 156.872 103.902 165.901C105.673 172.87 110.544 174.507 112.758 174.454H135.689C141.129 173.694 143.227 168.435 143.596 165.901C146.97 144.412 152.725 90.1892 151.187 72.766Z" fill="url(#paint1_linear_865_438)"/>
<path opacity="0.1" fill-rule="evenodd" clip-rule="evenodd" d="M116.197 214.91L116.183 214.974C113.549 214.974 106.766 216.452 100.712 222.368C94.6576 228.284 95.7226 237.831 97.0119 241.865C97.7967 244.722 101.721 251.142 111.138 253.966C120.556 256.789 127.955 250.884 130.478 247.579C131.549 248.917 136.26 249.034 138.516 249.091L138.55 249.092C140.568 250.436 145.109 254.47 149.986 254.47C155.461 254.47 163.103 253.63 167.139 248.587C171.175 243.545 174.875 236.318 169.662 225.226C165.491 216.352 155.479 214.693 150.995 214.974C144.537 208.52 136.532 208.587 133.337 209.427C122.426 186.613 118.664 203.704 116.197 214.91Z" fill="url(#paint2_linear_865_438)"/>
<path opacity="0.3" fill-rule="evenodd" clip-rule="evenodd" d="M38.2554 109.523H89.4512L89.4512 133.964L83.4704 129.367H38.2554V109.523Z" fill="url(#paint3_linear_865_438)"/>
<path d="M82.3351 122.042C80.2609 122.042 78.5795 120.351 78.5795 118.266C78.5795 116.181 80.2609 114.491 82.3351 114.491C84.4093 114.491 86.0908 116.181 86.0908 118.266C86.0908 120.351 84.4093 122.042 82.3351 122.042Z" fill="#F2C94C"/>
<path opacity="0.15" d="M58.6154 113.1H76.8008V115.683H58.6154V113.1Z" fill="white"/>
<path opacity="0.15" d="M54.6625 117.273H76.6035V119.856H54.6625V117.273Z" fill="white"/>
<path opacity="0.15" d="M47.7441 121.645H76.6035V124.228H47.7441V121.645Z" fill="white"/>
<path d="M26 114.69H50.5107V120.055H26V114.69Z" fill="#F2C94C"/>
<path opacity="0.101581" d="M123.911 94.2022C134.485 94.2022 143.056 85.6279 143.056 75.0509C143.056 64.474 134.485 55.8997 123.911 55.8997C113.338 55.8997 104.767 64.474 104.767 75.0509C104.767 85.6279 113.338 94.2022 123.911 94.2022Z" fill="white"/>
<path d="M125.005 133.964V189.776" stroke="#4579F6" stroke-width="5" stroke-linecap="round"/>
</g>
<defs>
<filter id="filter0_d_865_438" x="22" y="30" width="201.999" height="232.708" filterUnits="userSpaceOnUse" color-interpolation-filters="sRGB">
<feFlood flood-opacity="0" result="BackgroundImageFix"/>
<feColorMatrix in="SourceAlpha" type="matrix" values="0 0 0 0 0 0 0 0 0 0 0 0 0 0 0 0 0 0 127 0" result="hardAlpha"/>
<feOffset dy="4"/>
<feGaussianBlur stdDeviation="2"/>
<feComposite in2="hardAlpha" operator="out"/>
<feColorMatrix type="matrix" values="0 0 0 0 0 0 0 0 0 0 0 0 0 0 0 0 0 0 0.25 0"/>
<feBlend mode="normal" in2="BackgroundImageFix" result="effect1_dropShadow_865_438"/>
<feBlend mode="normal" in="SourceGraphic" in2="effect1_dropShadow_865_438" result="shape"/>
</filter>
<linearGradient id="paint0_linear_865_438" x1="174.172" y1="70.8486" x2="181.184" y2="104.388" gradientUnits="userSpaceOnUse">
<stop stop-color="white"/>
<stop offset="1" stop-color="white" stop-opacity="0"/>
</linearGradient>
<linearGradient id="paint1_linear_865_438" x1="123.911" y1="44.311" x2="184.011" y2="135.073" gradientUnits="userSpaceOnUse">
<stop stop-color="white"/>
<stop offset="1" stop-color="white" stop-opacity="0"/>
</linearGradient>
<linearGradient id="paint2_linear_865_438" x1="124.604" y1="200.625" x2="126.775" y2="252.428" gradientUnits="userSpaceOnUse">
<stop stop-color="white"/>
<stop offset="1" stop-color="white" stop-opacity="0"/>
</linearGradient>
<linearGradient id="paint3_linear_865_438" x1="71.5786" y1="101.126" x2="64.5255" y2="134.647" gradientUnits="userSpaceOnUse">
<stop stop-color="white"/>
<stop offset="1" stop-color="white" stop-opacity="0"/>
</linearGradient>
</defs>
</svg>
