<svg width="106" height="102" viewBox="0 0 106 102" fill="none" xmlns="http://www.w3.org/2000/svg">
<path d="M67.8776 43.0372C67.7499 41.9818 67.3474 41.0192 66.7287 40.2154L70.9764 13.9465C71.1345 12.9691 70.5052 12.0373 69.5374 11.8144L69.4899 11.8037C68.5221 11.5809 67.5468 12.1439 67.2587 13.0913L59.5207 38.5568C57.6138 39.5123 56.29 41.46 56.29 43.7285C56.29 46.9315 58.9038 49.5378 62.1179 49.5378C62.7168 49.5378 63.2832 49.4212 63.8272 49.2535L79.9929 57.625C80.8823 58.0854 81.9771 57.7979 82.5229 56.9601L82.5473 56.9227C83.0933 56.0852 82.9118 54.9715 82.1275 54.3492L67.8776 43.0372ZM59.2393 43.7285C59.2393 42.147 60.531 40.8597 62.1181 40.8597C63.7065 40.8597 64.9983 42.147 64.9983 43.7285C64.9983 45.3112 63.7065 46.5986 62.1181 46.5986C60.531 46.5986 59.2393 45.3114 59.2393 43.7285ZM106 43.7285C106 63.1729 93.1951 79.6861 75.5494 85.3535L75.5486 79.1269C89.8821 73.7081 100.101 59.888 100.101 43.7285C100.101 22.8581 83.0616 5.87814 62.1181 5.87814C41.1744 5.87814 24.1349 22.8581 24.1349 43.7285C24.1349 45.8221 24.314 47.8741 24.6438 49.8764H18.6785C18.3934 47.8663 18.2362 45.8157 18.2362 43.7285C18.2362 19.6162 37.9212 0 62.1181 0C86.315 0 106 19.6162 106 43.7285ZM69.7677 74.8871L56.2597 61.5731C55.4044 60.7207 54.2394 60.2503 53.0449 60.2503H46.2318V57.7081C46.2318 55.8123 44.6835 54.2842 42.781 54.2842H3.43651C1.53423 54.2842 0.000519608 55.8123 0.000519608 57.7081V80.6325H71.1246V78.1345C71.1244 76.9151 70.6377 75.7394 69.7677 74.8871ZM63.8837 75.3281H50.8033C50.5083 75.3281 50.2724 75.0928 50.2724 74.7989V64.7327C50.2724 64.4387 50.5081 64.2035 50.8033 64.2035H53.2955C53.4283 64.2035 53.5757 64.2625 53.679 64.3505L64.2525 74.4171C64.6063 74.7398 64.3702 75.3281 63.8837 75.3281ZM71.126 82.5266V90.1106C71.126 92.0025 69.5869 93.5363 67.6883 93.5363H64.01C63.3454 88.9915 59.4149 85.4975 54.6711 85.4975C49.9383 85.4975 46.008 88.9915 45.3434 93.5363H26.6994C26.0348 88.9915 22.1043 85.4975 17.3717 85.4975C12.6391 85.4975 8.70863 88.9915 8.04405 93.5363H3.43773C1.53908 93.536 0 92.0025 0 90.1108V82.5266H71.126ZM54.6816 87.7894C50.7444 87.7894 47.5443 90.9636 47.5443 94.8871C47.5443 98.8109 50.7444 102 54.6816 102C58.619 102 61.8044 98.8109 61.8044 94.8871C61.8044 90.9636 58.619 87.7894 54.6816 87.7894ZM54.6816 98.4436C52.7057 98.4436 51.113 96.8566 51.113 94.8873C51.113 92.9328 52.7056 91.3311 54.6816 91.3311C56.643 91.3311 58.2357 92.9326 58.2357 94.8873C58.2357 96.8566 56.643 98.4436 54.6816 98.4436ZM17.3722 87.7894C13.435 87.7894 10.2347 90.9636 10.2347 94.8871C10.2347 98.8109 13.435 102 17.3722 102C21.3096 102 24.495 98.8109 24.495 94.8871C24.495 90.9636 21.3096 87.7894 17.3722 87.7894ZM17.3722 98.4436C15.3962 98.4436 13.8036 96.8566 13.8036 94.8873C13.8036 92.9328 15.3962 91.3311 17.3722 91.3311C19.3336 91.3311 20.9409 92.9326 20.9409 94.8873C20.9409 96.8566 19.3336 98.4436 17.3722 98.4436Z" fill="white"/>
</svg>
