<svg width="102" height="102" viewBox="0 0 102 102" fill="none" xmlns="http://www.w3.org/2000/svg">
<path fill-rule="evenodd" clip-rule="evenodd" d="M20.0704 90.4398V57.153H34.5688C40.7177 58.2852 46.8583 61.7331 53.0072 65.7258H64.2664C69.3602 66.0408 72.039 71.3786 67.0771 74.8861C63.1289 77.8827 57.9197 77.7039 52.5786 77.2102C48.8942 77.0229 48.7376 82.1308 52.5786 82.1479C53.9139 82.2585 55.3645 81.935 56.6256 81.935C63.2938 81.9265 68.775 80.607 72.1379 75.1755L73.8194 71.1062L90.5681 62.5333C98.9506 59.6814 104.902 68.7395 98.7281 75.0393C86.5952 84.157 74.1573 91.6572 61.431 97.7186C52.1912 103.525 42.9432 103.329 33.7034 97.7186L20.0704 90.4398ZM62.8652 9.54693C67.176 4.91572 70.1927 0.897472 76.8279 0.114254C89.2905 -1.36705 100.747 11.8115 94.4585 24.7856C93.2798 27.2119 91.3099 29.9361 88.9525 32.737V32.3965H73.6381H72.8221L72.2533 33.0094L69.6817 35.7592L64.3653 25.2198L62.6014 21.7209L60.9117 25.2624L56.0981 35.3506L51.3257 28.1994L49.6443 25.688L48.0865 28.2846L45.8528 32.0219H36.036C32.6978 27.28 30.3487 22.1636 30.1591 16.6385C29.813 6.52473 37.5361 0.054661 46.4215 0.173846C54.359 0.276005 57.6972 4.35385 62.8652 9.54693ZM85.7133 36.4062C85.4742 36.6701 85.227 36.9255 84.9879 37.1894C77.8829 44.7918 70.1762 52.1812 62.8734 59.6644C55.2244 52.0621 45.9517 44.0426 39.1599 36.0231H46.9325H48.004L48.5728 35.0696L49.8174 32.9839L54.7793 40.4245L56.6421 43.2253L58.0928 40.1776L62.6674 30.5746L67.448 40.0669L68.6844 42.5187L70.5471 40.5266L74.4211 36.4062H85.7133ZM0 53.952H15.7019V93.7855H0V53.952Z" fill="white"/>
</svg>
