<svg width="36" height="35" viewBox="0 0 36 35" fill="none" xmlns="http://www.w3.org/2000/svg">
<path fill-rule="evenodd" clip-rule="evenodd" d="M0.148438 17.5C0.148438 7.83502 7.98345 0 17.6484 0C27.3134 0 35.1484 7.83502 35.1484 17.5C35.1484 27.165 27.3134 35 17.6484 35C7.98345 35 0.148438 27.165 0.148438 17.5ZM17.6493 8.16667C15.1145 8.16667 14.7964 8.17775 13.8008 8.22306C12.8072 8.26856 12.129 8.42586 11.5355 8.65667C10.9217 8.89506 10.4009 9.21396 9.88215 9.73293C9.36298 10.2517 9.04408 10.7724 8.80492 11.3861C8.57352 11.9798 8.41602 12.6582 8.3713 13.6514C8.32677 14.647 8.3151 14.9653 8.3151 17.5001C8.3151 20.0349 8.32638 20.352 8.37149 21.3476C8.41719 22.3412 8.5745 23.0195 8.80511 23.6129C9.04369 24.2268 9.36259 24.7475 9.88157 25.2663C10.4002 25.7855 10.9209 26.1051 11.5344 26.3435C12.1282 26.5743 12.8066 26.7316 13.8001 26.7771C14.7956 26.8224 15.1135 26.8335 17.6481 26.8335C20.1831 26.8335 20.5003 26.8224 21.4959 26.7771C22.4895 26.7316 23.1685 26.5743 23.7623 26.3435C24.376 26.1051 24.8959 25.7855 25.4145 25.2663C25.9337 24.7475 26.2526 24.2268 26.4918 23.6131C26.7212 23.0195 26.8787 22.341 26.9254 21.3478C26.9701 20.3522 26.9818 20.0349 26.9818 17.5001C26.9818 14.9653 26.9701 14.6472 26.9254 13.6516C26.8787 12.658 26.7212 11.9798 26.4918 11.3863C26.2526 10.7724 25.9337 10.2517 25.4145 9.73293C24.8954 9.21376 24.3762 8.89487 23.7617 8.65667C23.1667 8.42586 22.4881 8.26856 21.4945 8.22306C20.4989 8.17775 20.182 8.16667 17.6464 8.16667H17.6493Z" fill="white"/>
<path fill-rule="evenodd" clip-rule="evenodd" d="M16.812 9.84863C17.0605 9.84824 17.3378 9.84863 17.6493 9.84863C20.1413 9.84863 20.4367 9.85757 21.4208 9.9023C22.3308 9.94391 22.8247 10.096 23.1537 10.2237C23.5893 10.3929 23.8998 10.5951 24.2263 10.9218C24.5529 11.2484 24.7552 11.5596 24.9247 11.9951C25.0525 12.3237 25.2047 12.8176 25.2461 13.7276C25.2909 14.7115 25.3006 15.0071 25.3006 17.498C25.3006 19.9888 25.2909 20.2844 25.2461 21.2683C25.2045 22.1783 25.0525 22.6722 24.9247 23.0008C24.7556 23.4364 24.5529 23.7465 24.2263 24.073C23.8996 24.3996 23.5895 24.6019 23.1537 24.771C22.8251 24.8994 22.3308 25.051 21.4208 25.0926C20.4369 25.1374 20.1413 25.1471 17.6493 25.1471C15.1571 25.1471 14.8617 25.1374 13.8778 25.0926C12.9678 25.0506 12.4739 24.8986 12.1447 24.7708C11.7092 24.6017 11.3981 24.3994 11.0714 24.0728C10.7447 23.7461 10.5425 23.4358 10.3729 23C10.2452 22.6714 10.0929 22.1775 10.0515 21.2675C10.0068 20.2836 9.99784 19.988 9.99784 17.4956C9.99784 15.0032 10.0068 14.7092 10.0515 13.7253C10.0931 12.8153 10.2452 12.3214 10.3729 11.9924C10.5421 11.5568 10.7447 11.2457 11.0714 10.9191C11.3981 10.5924 11.7092 10.3902 12.1447 10.2206C12.4737 10.0923 12.9678 9.9406 13.8778 9.8988C14.7388 9.85991 15.0725 9.84824 16.812 9.8463V9.84863ZM22.6314 11.3984C22.0131 11.3984 21.5114 11.8995 21.5114 12.518C21.5114 13.1363 22.0131 13.638 22.6314 13.638C23.2498 13.638 23.7514 13.1363 23.7514 12.518C23.7514 11.8996 23.2498 11.3984 22.6314 11.3984ZM17.6493 12.707C15.0023 12.707 12.8562 14.8531 12.8562 17.5001C12.8562 20.1471 15.0023 22.2922 17.6493 22.2922C20.2963 22.2922 22.4416 20.1471 22.4416 17.5001C22.4416 14.8531 20.2963 12.707 17.6493 12.707Z" fill="white"/>
<path fill-rule="evenodd" clip-rule="evenodd" d="M17.6493 14.389C19.3674 14.389 20.7605 15.7818 20.7605 17.5001C20.7605 19.2182 19.3674 20.6112 17.6493 20.6112C15.931 20.6112 14.5382 19.2182 14.5382 17.5001C14.5382 15.7818 15.931 14.389 17.6493 14.389Z" fill="white"/>
</svg>
