<svg width="36" height="35" viewBox="0 0 36 35" fill="none" xmlns="http://www.w3.org/2000/svg">
<path fill-rule="evenodd" clip-rule="evenodd" d="M0.0996094 17.5C0.0996094 7.83502 7.93463 0 17.5996 0C27.2646 0 35.0996 7.83502 35.0996 17.5C35.0996 27.165 27.2646 35 17.5996 35C7.93463 35 0.0996094 27.165 0.0996094 17.5ZM12.4667 14.4943H8.50079V26.4101H12.4667V14.4943ZM12.7279 10.8082C12.7021 9.63988 11.8666 8.75 10.5099 8.75C9.15324 8.75 8.26628 9.63988 8.26628 10.8082C8.26628 11.9524 9.12703 12.8679 10.4585 12.8679H10.4838C11.8666 12.8679 12.7279 11.9524 12.7279 10.8082ZM26.7692 19.5779C26.7692 15.9179 24.8127 14.2145 22.2029 14.2145C20.0973 14.2145 19.1546 15.371 18.6282 16.1824V14.4946H14.6619C14.7141 15.6127 14.6619 26.4104 14.6619 26.4104H18.6282V19.7556C18.6282 19.3995 18.654 19.0442 18.7588 18.7893C19.0455 18.0778 19.6981 17.3412 20.7937 17.3412C22.2294 17.3412 22.8033 18.4339 22.8033 20.0351V26.4101H26.769L26.7692 19.5779Z" fill="white"/>
</svg>
