<svg width="36" height="35" viewBox="0 0 36 35" fill="none" xmlns="http://www.w3.org/2000/svg">
<path fill-rule="evenodd" clip-rule="evenodd" d="M35.2979 17.5C35.2979 27.165 27.4628 35 17.7979 35C8.13287 35 0.297852 27.165 0.297852 17.5C0.297852 7.83502 8.13287 0 17.7979 0C27.4628 0 35.2979 7.83502 35.2979 17.5ZM8.60395 11.1081C8.81783 11.3054 8.92706 11.5951 8.89807 11.8883V22.443C8.96153 22.8237 8.84426 23.2127 8.58217 23.4907L6.13119 26.5334V26.9346H13.0811V26.5334L10.6301 23.4907C10.3661 23.2131 10.2415 22.8268 10.2924 22.443V13.3149L16.3926 26.9346H17.1007L22.3403 13.3149V24.1705C22.3403 24.4603 22.3403 24.516 22.1551 24.7055L20.2706 26.5779V26.9792H29.4209V26.5779L27.6018 24.7501C27.4412 24.6248 27.3615 24.4189 27.3948 24.2151V10.7849C27.3615 10.5811 27.4412 10.3752 27.6018 10.2499L29.4645 8.42207V8.02083H23.0157L18.4188 19.7569L13.19 8.02083H6.4253V8.42207L8.60395 11.1081Z" fill="white"/>
</svg>
