<svg width="99" height="102" viewBox="0 0 99 102" fill="none" xmlns="http://www.w3.org/2000/svg">
<path d="M68.7635 89.7472H58.242C57.8619 89.7472 57.5515 89.4279 57.5515 89.0363V86.6489C57.5515 86.2576 57.2411 85.938 56.8615 85.938H42.1386C41.7588 85.938 41.4484 86.2576 41.4484 86.6489V89.0363C41.4484 89.4279 41.138 89.7472 40.7582 89.7472H30.2361C29.8563 89.7472 29.5459 90.067 29.5459 90.4581V93.5108C29.5459 93.9018 29.8563 94.2216 30.2361 94.2216H68.763C69.1431 94.2216 69.4535 93.9018 69.4535 93.5108V90.4581C69.4535 90.067 69.1431 89.7472 68.7635 89.7472Z" fill="white"/>
<path d="M93.453 7.77832H5.54673C2.48815 7.77832 0 10.3421 0 13.4934V76.4336C0 79.5846 2.4884 82.1484 5.54673 82.1484H93.4533C96.5116 82.1484 99 79.5846 99 76.4336V13.4936C99 10.3421 96.5116 7.77832 93.453 7.77832ZM49.4996 77.214C48.1197 77.214 47.0008 76.0611 47.0008 74.6389C47.0008 73.2166 48.1197 72.0638 49.4996 72.0638C50.88 72.0638 51.9995 73.2166 51.9995 74.6389C51.9995 76.0611 50.88 77.214 49.4996 77.214ZM94.802 69.292H4.19772V13.4936C4.19772 12.7404 4.81538 12.104 5.54673 12.104H93.4533C94.1841 12.104 94.8023 12.7404 94.8023 13.4936V69.292H94.802Z" fill="white"/>
<path d="M57.5286 41.8735L45.705 33.9377C45.3542 33.7235 45.0674 33.8921 45.0674 34.3122V50.2133C45.0674 50.6332 45.3542 50.8017 45.705 50.5878L57.5286 42.6521C57.8789 42.4378 57.8789 42.0874 57.5286 41.8735Z" fill="white"/>
<path d="M49.4997 25.5244C40.5419 25.5244 33.2539 33.033 33.2539 42.2622C33.2539 51.4913 40.5419 59.0001 49.4997 59.0001C58.4575 59.0001 65.7452 51.4913 65.7452 42.2622C65.7452 33.033 58.4575 25.5244 49.4997 25.5244ZM49.4997 55.4884C42.4214 55.4884 36.6623 49.5553 36.6623 42.2622C36.6623 34.9692 42.4211 29.0361 49.4997 29.0361C56.5785 29.0361 62.3368 34.9694 62.3368 42.2622C62.3368 49.5551 56.578 55.4884 49.4997 55.4884Z" fill="white"/>
</svg>
