<svg width="101" height="102" viewBox="0 0 101 102" fill="none" xmlns="http://www.w3.org/2000/svg">
<path d="M52.8904 17.5728C34.6393 17.5728 19.791 32.5681 19.791 50.9999C19.791 69.4316 34.6393 84.427 52.8904 84.427C71.1419 84.427 85.9902 69.4316 85.9902 50.9999C85.9902 32.5681 71.1415 17.5728 52.8904 17.5728ZM52.8904 66.8087C44.2448 66.8087 37.2365 59.731 37.2365 50.9999C37.2365 42.2687 44.2448 35.191 52.8904 35.191C61.536 35.191 68.5443 42.2687 68.5443 50.9999C68.5443 59.731 61.5355 66.8087 52.8904 66.8087Z" fill="white"/>
<path d="M20.0624 33.9904C20.1082 33.7944 20.0624 33.5913 20.0624 33.3817V22.3703C20.0624 20.911 18.8905 19.7275 17.4455 19.7275C16.0006 19.7275 14.8287 20.911 14.8287 22.3703V30.2945L12.648 30.2954V22.3703C12.648 20.911 11.4761 19.7275 10.0312 19.7275C8.58625 19.7275 7.41435 20.911 7.41435 22.3703V30.2976L5.23366 30.2985V22.3703C5.23366 20.911 4.06175 19.7275 2.61683 19.7275C1.1719 19.7275 0 20.911 0 22.3703V33.3817C0 33.4707 0.0771964 33.5583 0.0859192 33.6446C0.0776326 33.7662 0.109035 33.8873 0.109035 34.0067C0.109035 36.867 2.41577 39.1076 5.31434 39.1076H6.10593V77.2071C6.10593 79.5142 7.96476 81.3914 10.2492 81.3914C12.5337 81.3914 14.3926 79.5142 14.3926 77.2071V39.1076H14.967C17.8655 39.1076 20.099 36.867 20.099 34.0067C20.0994 34.0014 20.0624 33.9957 20.0624 33.9904Z" fill="white"/>
<path d="M100.966 49.7249L100.999 49.6148C100.996 49.5483 100.682 42.889 100.22 36.2144C99.2189 21.7476 98.7008 21.3494 97.7435 20.6257L97.0422 20.0928L96.0975 20.2047C94.5631 20.4011 90.2803 21.8321 90.2803 24.7052V49.0175V49.9051V77.2067C90.2803 79.5139 92.1391 81.3911 94.4236 81.3911C96.7081 81.3911 98.5669 79.5139 98.5669 77.2067V52.8971C99.8753 52.2056 100.966 51.178 100.966 49.7249Z" fill="white"/>
</svg>
