<svg width="112" height="102" viewBox="0 0 112 102" fill="none" xmlns="http://www.w3.org/2000/svg">
<g clip-path="url(#clip0_402_1205)">
<path d="M3.58203 7.45474C2.63202 7.45474 1.72091 7.06202 1.04915 6.36297C0.377391 5.66392 0 4.7158 0 3.7272C0 2.73859 0.377391 1.79047 1.04915 1.09142C1.72091 0.392374 2.63202 -0.000348563 3.58203 -0.000348563H12.8971H13.2526C16.3104 -0.0602218 19.325 0.75686 21.9661 2.36138C24.9262 4.32953 27.0245 7.42938 27.8086 10.9926C28.1003 12.3299 28.4102 13.6673 28.7201 15.0047H108.464C108.934 15.0034 109.399 15.0987 109.834 15.285C110.268 15.4713 110.663 15.7449 110.996 16.0903C111.329 16.4357 111.593 16.846 111.773 17.2977C111.953 17.7494 112.046 18.2337 112.046 18.7227C112.046 19.1155 111.987 19.5058 111.872 19.8799L102.557 58.8816C102.37 59.6909 101.926 60.4113 101.298 60.9272C100.67 61.4431 99.8939 61.7248 99.0938 61.727H40.7057C42.0182 66.6686 43.2214 69.3149 44.9896 70.5859C47.0586 72.0276 50.7409 72.1319 56.8385 72.0276H56.9023H98.0729C99.0229 72.0276 99.934 72.4203 100.606 73.1193C101.278 73.8184 101.655 74.7665 101.655 75.7551C101.655 76.7437 101.278 77.6918 100.606 78.3909C99.934 79.0899 99.0229 79.4827 98.0729 79.4827H56.9297C49.3919 79.6249 44.7344 79.3973 41.0156 76.7889C37.2969 74.1806 35.2188 69.6279 33.2044 61.3287L20.8906 12.9559C20.5455 11.2206 19.5648 9.69319 18.1562 8.69725C16.6173 7.82885 14.8837 7.40321 13.1341 7.46422H3.58203V7.45474ZM87.5 83.7888C89.2306 83.7888 90.9223 84.3228 92.3612 85.3233C93.8002 86.3238 94.9217 87.7459 95.5839 89.4097C96.2462 91.0735 96.4195 92.9043 96.0819 94.6706C95.7442 96.4369 94.9109 98.0593 93.6872 99.3327C92.4635 100.606 90.9044 101.473 89.207 101.825C87.5097 102.176 85.7504 101.996 84.1515 101.307C82.5527 100.617 81.1861 99.4503 80.2246 97.9529C79.2632 96.4556 78.75 94.6951 78.75 92.8942C78.75 90.4793 79.6719 88.1633 81.3128 86.4557C82.9538 84.7481 85.1794 83.7888 87.5 83.7888ZM49.1276 83.7888C50.8582 83.7888 52.5499 84.3228 53.9888 85.3233C55.4278 86.3238 56.5493 87.7459 57.2116 89.4097C57.8738 91.0735 58.0471 92.9043 57.7095 94.6706C57.3719 96.4369 56.5385 98.0593 55.3148 99.3327C54.0911 100.606 52.532 101.473 50.8346 101.825C49.1373 102.176 47.378 101.996 45.7791 101.307C44.1803 100.617 42.8137 99.4503 41.8522 97.9529C40.8908 96.4556 40.3776 94.6951 40.3776 92.8942C40.3776 90.4793 41.2995 88.1633 42.9404 86.4557C44.5814 84.7481 46.807 83.7888 49.1276 83.7888ZM71.0938 22.4503V36.0421H100.671L103.888 22.4977L71.0938 22.4503ZM71.0938 43.4497V54.2719H96.332L98.9023 43.4497H71.0938ZM63.9023 54.2719V43.4497H36.1211C37.0751 47.054 37.9865 50.6614 38.8555 54.2719H63.9023ZM63.9023 35.9946V22.4503H30.5703C31.7188 26.9651 32.9219 31.4798 34.1341 35.9946H63.9023Z" fill="white"/>
</g>
<defs>
<clipPath id="clip0_402_1205">
<rect width="112" height="102" fill="white"/>
</clipPath>
</defs>
</svg>
