<svg width="36" height="35" viewBox="0 0 36 35" fill="none" xmlns="http://www.w3.org/2000/svg">
<path fill-rule="evenodd" clip-rule="evenodd" d="M0.0498047 17.5C0.0498047 7.83502 7.88482 0 17.5498 0C27.2148 0 35.0498 7.83502 35.0498 17.5C35.0498 27.165 27.2148 35 17.5498 35C7.88482 35 0.0498047 27.165 0.0498047 17.5ZM17.0257 14.2242L17.0624 14.8298L16.4504 14.7556C14.2225 14.4714 12.2762 13.5075 10.6237 11.8886L9.8158 11.0853L9.6077 11.6785C9.16703 13.0008 9.44857 14.3972 10.3666 15.3364C10.8563 15.8555 10.7461 15.9296 9.90149 15.6207C9.6077 15.5218 9.35065 15.4477 9.32616 15.4847C9.24048 15.5712 9.53426 16.6958 9.76684 17.1407C10.0851 17.7586 10.7339 18.3641 11.4438 18.7225L12.0436 19.0067L11.3337 19.0191C10.6482 19.0191 10.6237 19.0315 10.6971 19.291C10.942 20.0942 11.909 20.9469 12.9862 21.3177L13.7451 21.5772L13.0841 21.9727C12.1048 22.5411 10.9542 22.8624 9.80356 22.8871C9.25272 22.8995 8.7998 22.9489 8.7998 22.986C8.7998 23.1096 10.2932 23.8016 11.1623 24.0735C13.7696 24.8768 16.8666 24.5308 19.1923 23.159C20.8448 22.1827 22.4974 20.2425 23.2685 18.3641C23.6847 17.3631 24.1009 15.5342 24.1009 14.6567C24.1009 14.0883 24.1376 14.0141 24.8231 13.3344C25.2271 12.939 25.6065 12.5065 25.68 12.3829C25.8024 12.1481 25.7902 12.1481 25.1659 12.3582C24.1254 12.7289 23.9785 12.6795 24.4926 12.1234C24.8721 11.7279 25.325 11.0112 25.325 10.8011C25.325 10.764 25.1414 10.8258 24.9333 10.937C24.713 11.0606 24.2233 11.246 23.8561 11.3572L23.1951 11.5673L22.5953 11.1594C22.2648 10.937 21.7996 10.6898 21.5548 10.6157C20.9305 10.4427 19.9757 10.4674 19.4127 10.6651C17.8825 11.2212 16.9155 12.6548 17.0257 14.2242Z" fill="white"/>
</svg>
