<svg width="91" height="102" viewBox="0 0 91 102" fill="none" xmlns="http://www.w3.org/2000/svg">
<path d="M3.09465 99.0447H0V102H80.6264V99.0447H78.8829V84.9322C78.8829 84.6636 78.7709 84.406 78.5714 84.2161C78.372 84.0261 78.1015 83.9194 77.8194 83.9194H65.8506C65.5685 83.9194 65.298 84.0261 65.0985 84.2161C64.8991 84.406 64.787 84.6636 64.787 84.9322V99.0447H42.2528V79.0465C42.2505 78.689 42.0998 78.347 41.8336 78.095C41.5673 77.8431 41.2072 77.7016 40.8319 77.7016H17.3823C17.007 77.7016 16.6469 77.8431 16.3806 78.095C16.1144 78.347 15.9637 78.689 15.9614 79.0465V99.0447H0V2.15008C0.0489216 1.60019 0.302413 1.08501 0.714819 0.697322C1.17619 0.254352 1.80313 0.00359849 2.45828 0H55.7298C56.0543 0.000876289 56.3755 0.0629472 56.6747 0.182631C56.974 0.302315 57.2453 0.477244 57.4732 0.697322L57.5866 0.805241C57.9916 1.23676 58.2151 1.79546 58.2142 2.37422V28.6898H88.9166C89.1902 28.6898 89.4611 28.7411 89.7139 28.8409C89.9666 28.9406 90.1963 29.0867 90.3898 29.2709C90.5834 29.4534 90.737 29.6706 90.8418 29.91C90.9465 30.1494 91.0003 30.4062 91 30.6656V100.639C91 100.997 90.8503 101.342 90.5838 101.595C90.3174 101.849 89.9559 101.992 89.5791 101.992H80.6264V99.0364H88.0448V31.5372H58.2229V99.0613H55.1196V2.94702H3.09465V99.0447ZM76.7908 99.0447H66.9141V85.9118H76.7908V99.0447ZM74.4894 37.3483H82.1694C82.2304 37.3483 82.2827 37.4313 82.2827 37.5309V42.271C82.2827 42.354 82.2304 42.4454 82.1694 42.4454H74.4894C74.4284 42.4454 74.3761 42.3706 74.3761 42.271V37.5309C74.3761 37.4313 74.4284 37.3483 74.4894 37.3483ZM74.4894 70.222H82.1694C82.2304 70.222 82.2827 70.305 82.2827 70.3964V75.1365C82.2827 75.2278 82.2304 75.3191 82.1694 75.3191H74.4894C74.4284 75.3191 74.3761 75.2361 74.3761 75.1365V70.3964C74.3761 70.305 74.4284 70.222 74.4894 70.222ZM61.5442 70.222H69.2154C69.2852 70.222 69.3375 70.305 69.3375 70.3964V75.1365C69.3375 75.2278 69.2852 75.3191 69.2154 75.3191H61.5442C61.4745 75.3191 61.4222 75.2361 61.4222 75.1365V70.3964C61.4222 70.305 61.4745 70.222 61.5442 70.222ZM74.4894 59.2641H82.1694C82.2304 59.2641 82.2827 59.3471 82.2827 59.4467V64.1869C82.2827 64.2782 82.2304 64.3695 82.1694 64.3695H74.4894C74.4284 64.3695 74.3761 64.2865 74.3761 64.1869V59.4467C74.3761 59.3388 74.4284 59.2641 74.4894 59.2641ZM74.4894 48.3062H82.1694C82.2304 48.3062 82.2827 48.3892 82.2827 48.4888V53.2289C82.2827 53.3203 82.2304 53.4116 82.1694 53.4116H74.4894C74.4284 53.4116 74.3761 53.3286 74.3761 53.2289V48.4888C74.3761 48.3892 74.4284 48.3062 74.4894 48.3062ZM61.5442 37.3483H69.2154C69.2852 37.3483 69.3375 37.4313 69.3375 37.5309V42.271C69.3375 42.354 69.2852 42.4454 69.2154 42.4454H61.5442C61.4745 42.4454 61.4222 42.3706 61.4222 42.271V37.5309C61.4222 37.4313 61.4745 37.3483 61.5442 37.3483ZM61.5442 59.2641H69.2154C69.2852 59.2641 69.3375 59.3471 69.3375 59.4467V64.1869C69.3375 64.2782 69.2852 64.3695 69.2154 64.3695H61.5442C61.4745 64.3695 61.4222 64.2865 61.4222 64.1869V59.4467C61.4222 59.3388 61.4745 59.2641 61.5442 59.2641ZM61.5442 48.3062H69.2154C69.2852 48.3062 69.3375 48.3892 69.3375 48.4888V53.2289C69.3375 53.3203 69.2852 53.4116 69.2154 53.4116H61.5442C61.4745 53.4116 61.4222 53.3286 61.4222 53.2289V48.4888C61.4222 48.3892 61.4745 48.3062 61.5442 48.3062ZM39.411 99.0447H18.8032V80.3996H39.411V99.0447ZM10.5741 10.3851H18.9253C18.987 10.3872 19.0456 10.4115 19.0893 10.4531C19.133 10.4947 19.1585 10.5505 19.1606 10.6093V18.5704C19.1585 18.6291 19.133 18.685 19.0893 18.7266C19.0456 18.7682 18.987 18.7924 18.9253 18.7945H10.5741C10.5124 18.7924 10.4537 18.7682 10.4101 18.7266C10.3664 18.685 10.3409 18.6291 10.3387 18.5704V10.6093C10.3409 10.5505 10.3664 10.4947 10.4101 10.4531C10.4537 10.4115 10.5124 10.3872 10.5741 10.3851ZM39.2889 10.3851H47.6401C47.7018 10.3872 47.7604 10.4115 47.8041 10.4531C47.8478 10.4947 47.8733 10.5505 47.8755 10.6093V18.5704C47.8733 18.6291 47.8478 18.685 47.8041 18.7266C47.7604 18.7682 47.7018 18.7924 47.6401 18.7945H39.2889C39.2272 18.7924 39.1686 18.7682 39.1249 18.7266C39.0812 18.685 39.0557 18.6291 39.0536 18.5704V10.6093C39.0557 10.5505 39.0812 10.4947 39.1249 10.4531C39.1686 10.4115 39.2272 10.3872 39.2889 10.3851ZM24.9315 10.3851H33.2827C33.3444 10.3872 33.403 10.4115 33.4467 10.4531C33.4904 10.4947 33.5159 10.5505 33.5181 10.6093V18.5704C33.5159 18.6291 33.4904 18.685 33.4467 18.7266C33.403 18.7682 33.3444 18.7924 33.2827 18.7945H24.9315C24.8698 18.7924 24.8112 18.7682 24.7675 18.7266C24.7238 18.685 24.6983 18.6291 24.6961 18.5704V10.6093C24.6983 10.5505 24.7238 10.4947 24.7675 10.4531C24.8112 10.4115 24.8698 10.3872 24.9315 10.3851ZM10.5741 27.6189H18.9253C18.987 27.621 19.0456 27.6453 19.0893 27.6869C19.133 27.7285 19.1585 27.7843 19.1606 27.8431V35.8042C19.1585 35.863 19.133 35.9188 19.0893 35.9604C19.0456 36.002 18.987 36.0263 18.9253 36.0283H10.5741C10.5124 36.0263 10.4537 36.002 10.4101 35.9604C10.3664 35.9188 10.3409 35.863 10.3387 35.8042V27.8431C10.3409 27.7843 10.3664 27.7285 10.4101 27.6869C10.4537 27.6453 10.5124 27.621 10.5741 27.6189ZM39.2889 27.6189H47.6401C47.7018 27.621 47.7604 27.6453 47.8041 27.6869C47.8478 27.7285 47.8733 27.7843 47.8755 27.8431V35.8042C47.8733 35.863 47.8478 35.9188 47.8041 35.9604C47.7604 36.002 47.7018 36.0263 47.6401 36.0283H39.2889C39.2272 36.0263 39.1686 36.002 39.1249 35.9604C39.0812 35.9188 39.0557 35.863 39.0536 35.8042V27.8431C39.0557 27.7843 39.0812 27.7285 39.1249 27.6869C39.1686 27.6453 39.2272 27.621 39.2889 27.6189ZM24.9315 27.6189H33.2827C33.3444 27.621 33.403 27.6453 33.4467 27.6869C33.4904 27.7285 33.5159 27.7843 33.5181 27.8431V35.8042C33.5159 35.863 33.4904 35.9188 33.4467 35.9604C33.403 36.002 33.3444 36.0263 33.2827 36.0283H24.9315C24.8698 36.0263 24.8112 36.002 24.7675 35.9604C24.7238 35.9188 24.6983 35.863 24.6961 35.8042V27.8431C24.6983 27.7843 24.7238 27.7285 24.7675 27.6869C24.8112 27.6453 24.8698 27.621 24.9315 27.6189ZM10.5741 62.0866H18.9253C18.9877 62.0866 19.0476 62.1102 19.0917 62.1522C19.1359 62.1943 19.1606 62.2513 19.1606 62.3107V70.2635C19.1606 70.323 19.1359 70.38 19.0917 70.422C19.0476 70.4641 18.9877 70.4877 18.9253 70.4877H10.5741C10.5117 70.4877 10.4518 70.4641 10.4077 70.422C10.3635 70.38 10.3387 70.323 10.3387 70.2635V62.3107C10.3387 62.2513 10.3635 62.1943 10.4077 62.1522C10.4518 62.1102 10.5117 62.0866 10.5741 62.0866ZM39.2889 62.0866H47.6401C47.7025 62.0866 47.7624 62.1102 47.8065 62.1522C47.8507 62.1943 47.8755 62.2513 47.8755 62.3107V70.2635C47.8755 70.323 47.8507 70.38 47.8065 70.422C47.7624 70.4641 47.7025 70.4877 47.6401 70.4877H39.2889C39.2265 70.4877 39.1666 70.4641 39.1225 70.422C39.0784 70.38 39.0536 70.323 39.0536 70.2635V62.3107C39.0536 62.2513 39.0784 62.1943 39.1225 62.1522C39.1666 62.1102 39.2265 62.0866 39.2889 62.0866ZM24.9315 62.0866H33.2827C33.3451 62.0866 33.405 62.1102 33.4491 62.1522C33.4933 62.1943 33.5181 62.2513 33.5181 62.3107V70.2635C33.5181 70.323 33.4933 70.38 33.4491 70.422C33.405 70.4641 33.3451 70.4877 33.2827 70.4877H24.9315C24.8691 70.4877 24.8092 70.4641 24.7651 70.422C24.7209 70.38 24.6961 70.323 24.6961 70.2635V62.3107C24.6961 62.2513 24.7209 62.1943 24.7651 62.1522C24.8092 62.1102 24.8691 62.0866 24.9315 62.0866ZM10.5741 44.8196H18.9253C18.9877 44.8196 19.0476 44.8432 19.0917 44.8852C19.1359 44.9273 19.1606 44.9843 19.1606 45.0437V53.038C19.1585 53.0968 19.133 53.1526 19.0893 53.1942C19.0456 53.2358 18.987 53.2601 18.9253 53.2621H10.5741C10.5124 53.2601 10.4537 53.2358 10.4101 53.1942C10.3664 53.1526 10.3409 53.0968 10.3387 53.038V45.0769C10.3387 45.0175 10.3635 44.9605 10.4077 44.9184C10.4518 44.8764 10.5117 44.8528 10.5741 44.8528V44.8196ZM39.2889 44.8196H47.6401C47.7025 44.8196 47.7624 44.8432 47.8065 44.8852C47.8507 44.9273 47.8755 44.9843 47.8755 45.0437V53.038C47.8733 53.0968 47.8478 53.1526 47.8041 53.1942C47.7604 53.2358 47.7018 53.2601 47.6401 53.2621H39.2889C39.2272 53.2601 39.1686 53.2358 39.1249 53.1942C39.0812 53.1526 39.0557 53.0968 39.0536 53.038V45.0769C39.0536 45.0175 39.0784 44.9605 39.1225 44.9184C39.1666 44.8764 39.2265 44.8528 39.2889 44.8528V44.8196ZM24.9315 44.8196H33.2827C33.3451 44.8196 33.405 44.8432 33.4491 44.8852C33.4933 44.9273 33.5181 44.9843 33.5181 45.0437V53.038C33.5159 53.0968 33.4904 53.1526 33.4467 53.1942C33.403 53.2358 33.3444 53.2601 33.2827 53.2621H24.9315C24.8698 53.2601 24.8112 53.2358 24.7675 53.1942C24.7238 53.1526 24.6983 53.0968 24.6961 53.038V45.0769C24.6911 45.0448 24.6934 45.0121 24.703 44.9809C24.7125 44.9498 24.729 44.921 24.7514 44.8965C24.7738 44.872 24.8015 44.8525 24.8326 44.8392C24.8637 44.8259 24.8974 44.8192 24.9315 44.8196Z" fill="white"/>
</svg>
