<svg width="36" height="35" viewBox="0 0 36 35" fill="none" xmlns="http://www.w3.org/2000/svg">
<path fill-rule="evenodd" clip-rule="evenodd" d="M0.198242 17.5C0.198242 7.83502 8.03326 0 17.6982 0C27.3632 0 35.1982 7.83502 35.1982 17.5C35.1982 27.165 27.3632 35 17.6982 35C8.03326 35 0.198242 27.165 0.198242 17.5ZM26.6415 13.1784C26.4268 12.3537 25.7943 11.7043 24.9911 11.4839C23.5355 11.0833 17.6982 11.0833 17.6982 11.0833C17.6982 11.0833 11.861 11.0833 10.4053 11.4839C9.60211 11.7043 8.96956 12.3537 8.75489 13.1784C8.36491 14.673 8.36491 17.7917 8.36491 17.7917C8.36491 17.7917 8.36491 20.9102 8.75489 22.4049C8.96956 23.2296 9.60211 23.879 10.4053 24.0996C11.861 24.5 17.6982 24.5 17.6982 24.5C17.6982 24.5 23.5355 24.5 24.9911 24.0996C25.7943 23.879 26.4268 23.2296 26.6415 22.4049C27.0316 20.9102 27.0316 17.7917 27.0316 17.7917C27.0316 17.7917 27.0316 14.673 26.6415 13.1784Z" fill="white"/>
<path fill-rule="evenodd" clip-rule="evenodd" d="M15.9482 21.0003V15.167L20.6149 18.0838L15.9482 21.0003Z" fill="white"/>
</svg>
